<svg width="42" height="39" viewBox="0 0 42 39" fill="none" xmlns="http://www.w3.org/2000/svg">
<path d="M9.50685 0C10.8633 5.12154e-05 13.4925 0.56173 16.209 1.25586C18.2519 1.77787 20.3565 2.37849 22.0313 2.88086L23.5449 3.34375L23.5459 3.34473C24.2255 3.56528 25.3373 3.90142 26.461 4.19336C27.5881 4.48621 28.7153 4.7313 29.4317 4.77344C30.3422 4.82698 32.5966 4.8895 35.0293 4.72852C37.4692 4.56705 40.0623 4.18181 41.666 3.35352L41.7481 3.3252C41.7799 3.3202 41.8159 3.32211 41.8526 3.33594C41.9273 3.36437 41.9631 3.42829 41.9795 3.47559C42.0102 3.56466 42.007 3.68961 41.9922 3.82129C41.9611 4.09818 41.8633 4.51864 41.7149 5.04688C41.4169 6.10731 40.905 7.63419 40.2744 9.38867C39.0197 12.8798 37.2895 17.2843 35.8223 20.7412L41.7227 35.0088C41.9873 35.6486 41.6647 36.3808 41.0108 36.6123C40.2428 36.884 39.3588 37.1913 38.6211 37.4365C38.2524 37.5591 37.9196 37.6674 37.6553 37.7471C37.3961 37.8252 37.1898 37.8803 37.084 37.8936C36.7945 37.9297 35.3204 38.1001 33.626 38.208C31.9366 38.3156 30.0084 38.3625 28.8223 38.1436C26.9462 37.7971 20.8962 36.0333 18.1133 35.1973L18.1045 35.1943L18.0957 35.1904C16.7339 34.5747 13.1487 33.4478 9.73927 33.874C7.0674 34.2081 3.88715 35.1501 1.80568 35.8633C1.00585 36.1373 0.148456 35.5541 0.144544 34.7012L1.28183e-05 3.27832C-0.00227729 2.77809 0.302505 2.33494 0.746107 2.12402C1.62461 1.70643 2.56447 1.17095 3.90431 0.745117C5.24784 0.31815 6.99397 1.51191e-05 9.50685 0ZM38.5195 6.7998C37.1977 7.10483 34.0163 7.7148 31.8633 7.71484V35.5615C33.212 35.705 36.7072 35.4004 38.6719 34.7188C38.8779 34.6473 38.4658 33.7402 38.4658 33.7402L33.209 20.7236L38.5195 6.7998ZM14.8897 7.16895V9.34863C11.0535 9.53131 8.29982 11.5143 8.29982 14.7764V14.8027C8.29995 17.7383 10.2313 19.3171 13.7149 20.0869L14.8897 20.335V24.1973C13.363 24.0537 12.4754 23.4139 12.2666 22.2656L12.2539 22.2402L8.14357 22.2529L8.1172 22.2656C8.22159 25.606 10.9099 27.446 14.8897 27.6025V29.7295H16.3643V27.5898C20.3959 27.3418 23.0966 25.3454 23.0967 22.0312V22.0049C23.0966 19.0823 21.231 17.6205 17.5518 16.8115L16.3643 16.5635V12.7803C17.6558 12.9891 18.5039 13.7066 18.6865 14.9199L18.6992 14.9463L22.7969 14.9326L22.8096 14.9199C22.6661 11.7493 20.3046 9.63545 16.3643 9.36133V7.16895H14.8897ZM16.3643 20.6611C18.0603 21.0917 18.7256 21.5355 18.7256 22.501V22.5273C18.7254 23.5318 17.8775 24.0667 16.3643 24.1973V20.6611ZM14.8897 16.2246C13.3761 15.8201 12.6709 15.3113 12.6709 14.4502V14.4238C12.671 13.4845 13.4284 12.8844 14.8897 12.7539V16.2246Z" fill="#BCF0B5"/>
</svg>
