<svg width="23" height="23" viewBox="0 0 23 23" fill="none" xmlns="http://www.w3.org/2000/svg">
<g clip-path="url(#clip0_1417_2723)">
<path d="M18.0576 19.9083C17.9827 19.9151 17.9042 19.918 17.8232 19.918H4.72754C3.68262 19.918 3.05762 19.4297 3.05762 18.6192C3.05762 16.1823 6.00831 12.8502 10.7932 12.6439L18.0576 19.9083ZM15.1865 6.5586C15.1865 7.93464 14.6125 9.13075 13.7355 9.91235L8.04294 4.21971C8.75558 3.0842 9.96366 2.35938 11.2802 2.35938C13.3701 2.35938 15.1865 4.14649 15.1865 6.5586Z" fill="black" fill-opacity="0.85"/>
<path d="M20.3818 20.4639C20.6748 20.7569 21.163 20.7471 21.4462 20.4541C21.7392 20.1514 21.7392 19.6826 21.4462 19.3897L3.53613 1.46973C3.24316 1.17676 2.75488 1.17676 2.46191 1.46973C2.16895 1.75293 2.16895 2.25098 2.46191 2.53418L20.3818 20.4639Z" fill="black" fill-opacity="0.85"/>
</g>
<defs>
<clipPath id="clip0_1417_2723">
<rect width="22.9126" height="22.2852" fill="white"/>
</clipPath>
</defs>
</svg>
