<svg width="269" height="188" viewBox="0 0 269 188" fill="none" xmlns="http://www.w3.org/2000/svg">
<path d="M116.84 0C118.885 4.683e-06 122.848 0.847243 126.943 1.89355C131.049 2.94269 135.32 4.20178 138 5.04102H138.002C139.027 5.37346 140.702 5.88128 142.396 6.32129C144.095 6.76267 145.794 7.13083 146.874 7.19434C148.246 7.27504 151.644 7.36962 155.311 7.12695C158.989 6.88358 162.897 6.30313 165.314 5.05469L165.371 5.03027C165.433 5.00811 165.512 4.99701 165.595 5.02832C165.708 5.07106 165.762 5.16693 165.787 5.23828C165.833 5.37246 165.828 5.5613 165.806 5.75977C165.759 6.17711 165.612 6.81155 165.388 7.60742C164.939 9.2058 164.168 11.508 163.217 14.1523C161.326 19.4144 158.718 26.0533 156.506 31.2637L165.4 52.7695C165.798 53.734 165.312 54.8378 164.327 55.1865C163.169 55.596 161.837 56.06 160.725 56.4297C160.169 56.6144 159.667 56.7764 159.269 56.8965C158.879 57.0142 158.568 57.0972 158.409 57.1172C157.973 57.1717 155.75 57.4292 153.196 57.5918C150.649 57.7539 147.743 57.8242 145.956 57.4941C143.128 56.9721 134.009 54.314 129.814 53.0537L129.8 53.0488L129.787 53.043C127.734 52.1148 122.331 50.4172 117.192 51.0596C113.164 51.563 108.369 52.9826 105.232 54.0576C104.027 54.4704 102.735 53.591 102.729 52.3057L102.512 4.94141C102.509 4.18744 102.968 3.51907 103.636 3.20117C104.96 2.57172 106.377 1.76485 108.397 1.12305C110.422 0.479551 113.053 4.22789e-05 116.84 0ZM160.572 10.25C158.579 10.7098 153.784 11.6289 150.539 11.6289V53.6025C152.571 53.8189 157.841 53.3597 160.802 52.332C161.113 52.224 160.491 50.8574 160.491 50.8574L152.567 31.2373L160.572 10.25ZM124.954 10.8076V14.0918C119.171 14.3671 115.021 17.3567 115.021 22.2734V22.3135C115.021 26.7385 117.932 29.118 123.183 30.2783L124.954 30.6523V36.4736C122.653 36.2573 121.314 35.294 121 33.5635L120.98 33.5234L114.785 33.543L114.746 33.5635C114.903 38.5981 118.955 41.3714 124.954 41.6074V44.8125H127.175V41.5879C133.253 41.2142 137.324 38.2046 137.324 33.209V33.1699C137.324 28.7644 134.512 26.5612 128.965 25.3418L127.175 24.9678V19.2646C129.122 19.5793 130.401 20.6611 130.676 22.4902L130.696 22.5293L136.872 22.5098L136.891 22.4902C136.675 17.711 133.115 14.5243 127.175 14.1113V10.8076H124.954ZM127.175 31.1436C129.732 31.7926 130.736 32.4616 130.736 33.917V33.9561C130.736 35.4705 129.457 36.277 127.175 36.4736V31.1436ZM124.954 24.457C122.672 23.8474 121.61 23.0802 121.61 21.7822V21.7432C121.61 20.3271 122.751 19.4223 124.954 19.2256V24.457Z" fill="#BCF0B5"/>
<path d="M39.0264 65.7277C40.7461 65.7277 42.4545 66.0051 44.0859 66.549L45.1553 66.9054C46.3359 67.2989 47.4512 67.8667 48.4639 68.59C49.5056 69.3341 50.4272 70.2338 51.1953 71.2579L51.4688 71.6232C52.2812 72.7065 52.9472 73.8922 53.4502 75.1495L53.5967 75.5148C54.1718 76.9526 54.5356 78.4667 54.6758 80.0089L54.7207 80.505C54.8444 81.8655 54.7929 83.2366 54.5684 84.5841L54.2109 86.7277C54.085 87.4834 53.8465 88.2162 53.5039 88.9015L53.1035 89.7032C52.8336 90.2431 52.4418 90.7132 51.959 91.0753C51.2861 91.58 50.4671 91.8526 49.626 91.8527H48.1953C47.3718 91.8527 46.5636 91.6289 45.8574 91.2052L45.6602 91.087C45.0477 90.7195 44.5528 90.1849 44.2334 89.546C43.9727 89.0245 43.8369 88.4494 43.8369 87.8663V85.2111L44.0947 82.8898C44.2159 81.799 44.0524 80.6954 43.6201 79.6866L43.4482 79.2853C43.1228 78.5258 42.6034 77.865 41.9424 77.3693C41.4393 76.992 40.8659 76.719 40.2559 76.5665L40.0801 76.5226C39.6347 76.4112 39.1769 76.3546 38.7178 76.3546H37.7695C36.2176 76.3546 34.6773 76.626 33.2188 77.1564L32.7803 77.3156C31.3036 77.8525 29.9143 78.6052 28.6572 79.548L26.4883 81.1749C25.6578 81.7978 24.8897 82.5 24.1953 83.2716L22.2871 85.3917C21.6002 86.155 20.9883 86.9829 20.46 87.8634L17.2695 93.1808L14.2061 100.072C13.887 100.79 13.6214 101.531 13.4111 102.288L11.5127 109.122L10.7881 114.195C10.681 114.945 10.627 115.701 10.627 116.458V120.821C10.627 121.875 10.7309 122.926 10.9375 123.959L11.0928 124.733C11.3717 126.127 11.8347 127.478 12.4707 128.75L13.3857 130.58C13.902 131.613 14.6367 132.52 15.5381 133.241C16.0993 133.69 16.7183 134.062 17.3789 134.345L17.6172 134.447C18.8481 134.975 20.1735 135.247 21.5127 135.247H22.3232C23.6698 135.247 25.0091 135.05 26.2988 134.663L27.123 134.416C28.2257 134.085 29.2896 133.636 30.2959 133.077L31.6885 132.304C32.4065 131.905 33.0928 131.451 33.7412 130.946L36.752 128.605L40.2949 125.505L43.3945 121.963L47.8223 116.65L52.25 110.893L56.2354 105.137L59.4258 99.8185C59.9541 98.9379 60.566 98.1101 61.2529 97.3468L62.8604 95.5607C63.7534 94.5684 64.7672 93.6918 65.8779 92.9513L66.6104 92.463C67.659 91.7639 68.7965 91.2083 69.9922 90.8097C71.4383 90.3277 72.9532 90.0812 74.4775 90.0812H76.5039C78.6162 90.0812 80.7074 90.5002 82.6572 91.3126L84.1299 91.9259C84.7203 92.1719 85.2924 92.4611 85.8408 92.7902L87.0049 93.4884C87.1551 93.5786 87.2941 93.6868 87.418 93.8107C88.4305 94.823 90.1314 94.5781 90.8174 93.3214L91.7705 91.5753C91.9896 91.1736 92.2823 90.8165 92.6338 90.5236L93.3311 89.9435C94.2537 89.1746 95.4162 88.7531 96.6172 88.7531C97.9787 88.7531 99.2843 89.2942 100.247 90.257L100.461 90.4708C100.79 90.7996 101.064 91.179 101.271 91.5948C101.645 92.341 101.794 93.1798 101.702 94.0089L101.518 95.671C101.44 96.3705 101.288 97.06 101.065 97.7277L90.4463 129.586C90.3697 129.816 90.3301 130.057 90.3301 130.299V130.746C90.3301 131.561 90.9056 132.262 91.7041 132.422C92.2329 132.528 92.7807 132.377 93.1816 132.017L96.2188 129.283C96.7199 128.832 97.1735 128.331 97.5723 127.787L101.844 121.963L107.157 113.55L111.452 106.391C112.128 105.264 112.664 104.057 113.045 102.799L116.651 90.8956C116.815 90.3546 117.04 89.8337 117.32 89.3429L117.688 88.6984C118.322 87.5891 119.324 86.7359 120.521 86.2872L120.678 86.2286C121.674 85.855 122.764 85.8114 123.787 86.1036L123.865 86.1261C124.806 86.3949 125.64 86.9499 126.251 87.714C126.795 88.3936 127.14 89.2107 127.248 90.0743L127.423 91.4757C127.49 92.0147 127.432 92.5621 127.251 93.0743L125.28 98.6573C125.113 99.1317 125.564 99.5906 126.041 99.4318C126.143 99.3978 126.235 99.3378 126.306 99.257L129.297 95.838L132.114 93.3019C133.183 92.3401 134.376 91.5269 135.662 90.8839L137.294 90.0685C138.447 89.4921 139.697 89.1364 140.98 89.0197L142.239 88.9044C143.33 88.8052 144.428 89.013 145.408 89.5031C146.171 89.8843 146.841 90.4263 147.374 91.0919L147.543 91.3029C148.068 91.9591 148.473 92.7038 148.738 93.5011L148.801 93.6866C149.08 94.5249 149.223 95.4027 149.223 96.2863V99.9728C149.223 100.758 149.165 101.541 149.05 102.318L147.47 112.983C147.457 113.065 147.451 113.149 147.451 113.233V113.543C147.451 114.463 148.293 115.152 149.195 114.972C149.501 114.911 149.779 114.754 149.988 114.524L154.094 110.007L155.51 108.186C156.623 106.754 157.486 105.143 158.06 103.422L162.548 89.9581C162.814 89.161 163.218 88.417 163.743 87.7609L164.422 86.9122C164.618 86.6667 164.866 86.4659 165.147 86.3253C165.449 86.1746 165.782 86.0968 166.119 86.0968H167.784C169.225 86.0968 170.606 86.6682 171.625 87.6866L171.963 88.0255C172.152 88.2144 172.309 88.4322 172.429 88.671C172.601 89.016 172.69 89.3966 172.69 89.7823V92.88C172.69 93.0794 172.659 93.2777 172.596 93.4669L171.738 96.0382C171.384 97.1014 172.655 97.9559 173.506 97.2267C173.553 97.1865 173.596 97.1423 173.636 97.0948L174.421 96.1525C175.33 95.0621 176.382 94.1001 177.549 93.2921L180.45 91.2833C181.179 90.7786 181.957 90.3485 182.772 89.9991L183.118 89.8507C184.131 89.4167 185.204 89.1401 186.301 89.0304L187.56 88.9044C188.553 88.8051 189.556 88.9594 190.474 89.3527C191.581 89.8272 192.516 90.6291 193.154 91.6505L193.844 92.7531C194.204 93.3297 194.472 93.9596 194.637 94.6193C194.765 95.1342 194.831 95.6636 194.831 96.1945V99.6476C194.831 100.059 194.801 100.47 194.743 100.877L192.918 113.653C192.784 114.592 193.715 115.324 194.596 114.972C194.751 114.91 194.892 114.817 195.01 114.699L198.373 111.336L201.587 107.408C202.101 106.781 202.566 106.114 202.979 105.416L208.114 96.7238L212.412 90.8634C212.793 90.3439 213.233 89.8696 213.722 89.4503L214.602 88.6964C215.559 87.8759 216.778 87.4249 218.039 87.4249C219.607 87.425 221.093 88.1211 222.097 89.3253L222.518 89.8312C222.656 89.9977 222.776 90.1793 222.873 90.3732C223.068 90.7636 223.17 91.1945 223.17 91.631V92.3253C223.17 93.4609 222.833 94.5709 222.203 95.5157L220.513 98.0519L216.527 103.808L212.985 110.007L209.921 117.286C209.603 118.041 209.343 118.82 209.145 119.614L208.592 121.823C208.275 123.092 208.114 124.396 208.114 125.704V129.699C208.114 129.853 208.15 130.005 208.219 130.143C208.419 130.542 208.861 130.758 209.299 130.67L210.198 130.49C210.574 130.415 210.923 130.243 211.211 129.991L213.358 128.111C213.993 127.556 214.572 126.939 215.087 126.271L218.741 121.52L223.612 114.436L228.926 106.907L233.354 101.151L236.654 97.5509C237.695 96.4151 238.896 95.4355 240.217 94.6427L242.168 93.4718C242.49 93.2786 242.832 93.1208 243.188 93.0021C243.713 92.8271 244.263 92.7384 244.816 92.7384H247.198C248.269 92.7384 249.308 93.1029 250.144 93.7716C250.749 94.2562 251.226 94.883 251.531 95.5958L251.981 96.6456C252.256 97.2857 252.457 97.9547 252.582 98.6398L253.221 102.154C253.26 102.37 253.28 102.59 253.28 102.81C253.28 105.622 256.318 107.386 258.76 105.99L259.479 105.579L259.945 105.346C260.803 104.917 261.75 104.693 262.709 104.693H263.511C264.88 104.693 266.177 105.316 267.032 106.386C267.309 106.732 267.533 107.117 267.697 107.528L268.05 108.408C268.238 108.88 268.335 109.383 268.335 109.891C268.335 110.824 268.007 111.729 267.409 112.446L266.814 113.16C266.355 113.711 265.808 114.184 265.196 114.558L258.15 118.863L256.871 119.686C253.694 121.728 251.342 124.829 250.231 128.439L250.181 128.605L247.523 137.461L243.096 148.53L239.11 156.058L235.125 161.815L232.184 165.082C231.489 165.854 230.722 166.556 229.892 167.179L228.934 167.898C228.047 168.562 227.07 169.097 226.033 169.485L225.806 169.571C224.648 170.005 223.422 170.228 222.186 170.228C221.078 170.228 219.977 170.049 218.926 169.698L218.02 169.397C217.029 169.066 216.087 168.605 215.219 168.026C214.324 167.43 213.516 166.714 212.816 165.898L212.43 165.446C211.626 164.509 210.992 163.437 210.559 162.28C210.114 161.094 209.886 159.837 209.886 158.57V157.136C209.886 155.541 210.124 153.955 210.593 152.431L211.136 150.667C211.482 149.541 211.952 148.457 212.536 147.435L215.199 142.775L218.42 138.588C218.714 138.205 218.288 137.688 217.856 137.903L214.925 139.858C214.226 140.324 213.467 140.695 212.67 140.961C211.706 141.282 210.696 141.445 209.68 141.445H209.121C207.866 141.445 206.618 141.263 205.416 140.902L204.31 140.57C203.313 140.272 202.384 139.784 201.571 139.134C200.919 138.612 200.351 137.993 199.888 137.298L199.636 136.92C199.091 136.103 198.659 135.217 198.349 134.286L197.701 132.346C197.56 131.921 197.487 131.476 197.487 131.028V128.036C197.487 126.956 196.499 126.146 195.439 126.358C195.329 126.38 195.216 126.391 195.104 126.391H192.569C191.429 126.391 190.299 126.186 189.231 125.785C187.961 125.309 186.806 124.566 185.847 123.607L185.089 122.849L184.234 121.779C183.628 121.022 183.161 120.163 182.854 119.243C182.575 118.405 182.433 117.527 182.433 116.644V111.674C182.433 110.859 182.494 110.045 182.618 109.24L183.308 104.761C183.314 104.716 183.318 104.671 183.318 104.626C183.318 103.834 182.361 103.438 181.801 103.997L181.104 104.693L176.233 110.45L172.69 115.764L168.263 122.849L162.507 133.476L159.275 139.533C159.069 139.921 158.806 140.276 158.496 140.586C157.662 141.42 156.529 141.889 155.35 141.889H154.83C153.496 141.889 152.204 141.421 151.179 140.567L150.466 139.973C150.23 139.776 150.038 139.533 149.9 139.259C149.746 138.95 149.665 138.609 149.665 138.264V135.011C149.665 134.579 149.721 134.15 149.831 133.733L151.338 128.004C151.587 127.055 150.756 126.173 149.794 126.365C149.708 126.382 149.621 126.391 149.534 126.391H147.905C146.151 126.391 144.42 125.982 142.851 125.197L142.592 125.068C141.415 124.48 140.369 123.662 139.513 122.663C138.616 121.617 137.949 120.396 137.553 119.076L137.368 118.462C137.008 117.26 136.824 116.011 136.824 114.756V111.778L137.71 104.693C137.71 103.877 136.722 103.468 136.145 104.045L135.496 104.693L131.953 109.122L125.754 117.978L120.884 126.391L115.57 136.575L113.264 140.42C113.033 140.804 112.719 141.132 112.347 141.381C111.85 141.712 111.266 141.889 110.669 141.889H107.636C107.319 141.889 107.004 141.838 106.703 141.737C106.134 141.548 105.635 141.189 105.275 140.709L104.747 140.004C104.585 139.788 104.477 139.536 104.433 139.27L104.348 138.762C104.203 137.895 103.261 137.416 102.476 137.809C102.35 137.871 102.235 137.955 102.136 138.054L101.027 139.162C100.393 139.797 99.6833 140.351 98.9141 140.813L96.501 142.26C95.9329 142.601 95.3175 142.856 94.6748 143.017C94.1422 143.15 93.5949 143.217 93.0459 143.217H91.0039C89.6784 143.217 88.361 143.003 87.1035 142.584L86.3926 142.348C85.4826 142.044 84.6338 141.582 83.8848 140.983C83.1689 140.41 82.5552 139.72 82.0693 138.943L80.7998 136.911C80.6601 136.688 80.5472 136.448 80.4639 136.198L79.875 134.434C79.7723 134.126 79.4845 133.918 79.1602 133.918C78.9428 133.918 78.7359 134.012 78.5928 134.176L75.7178 137.461L73.7207 139.209C72.6951 140.106 71.5587 140.869 70.3398 141.479L69.6055 141.846C68.959 142.169 68.2838 142.431 67.5889 142.63C66.2304 143.018 64.8122 143.157 63.4043 143.039L62.6611 142.978C61.0487 142.843 59.4765 142.402 58.0293 141.679L57.9785 141.653C56.5349 140.932 55.2455 139.936 54.1826 138.721C53.1975 137.595 52.4237 136.3 51.8984 134.9L51.4561 133.72C51.3952 133.558 51.3517 133.389 51.3271 133.218L51.083 131.506C50.9989 130.918 50.4027 130.55 49.8389 130.737C49.6782 130.791 49.5344 130.886 49.4229 131.014L46.4941 134.361L43.1045 137.411C42.4134 138.033 41.6693 138.594 40.8809 139.087L34.9805 142.775L31.7871 144.226C30.6729 144.732 29.5039 145.11 28.3037 145.35L27.2354 145.564C26.2023 145.77 25.1511 145.874 24.0977 145.874H21.0029C19.4081 145.874 17.8221 145.635 16.2979 145.166L14.7002 144.675C13.4656 144.295 12.2815 143.766 11.1738 143.102L10.5127 142.706C9.12094 141.871 7.86442 140.828 6.78613 139.615L6.27637 139.042C5.34328 137.992 4.55293 136.824 3.9248 135.568L2.55664 132.832C2.03464 131.788 1.62784 130.69 1.34473 129.558L0.442383 125.948L0 122.405V115.691C7.34767e-06 114.855 0.0650143 114.021 0.195312 113.195L1.32812 106.023L3.54199 97.6095L6.19922 90.9669L10.627 82.9972L14.6123 77.6827L16.2441 75.7794C16.9256 74.9843 17.6834 74.2575 18.5068 73.6105L22.1914 70.7159C23.0405 70.0488 23.9551 69.4694 24.9209 68.9865L27.2109 67.8419C28.255 67.3199 29.3529 66.9131 30.4854 66.63L32.1846 66.2052C33.4537 65.8879 34.7573 65.7277 36.0654 65.7277H39.0264ZM231.141 140.117L227.155 144.545L223.612 148.974L220.513 154.287L220.07 158.273L220.956 159.601L223.17 160.043L225.826 156.943L228.926 152.516L232.469 145.874L236.454 137.018L236.896 135.247H235.568L231.141 140.117ZM70.8477 102.037L68.1904 105.137L65.0908 110.893L62.4346 118.863L61.1064 125.948V129.933L62.4346 132.59L64.6484 133.032L67.748 130.818L69.9619 128.605L73.5039 124.177L77.0469 118.863L83.2461 108.236L83.6885 105.579L81.0322 102.48L77.4893 100.266H73.9473L70.8477 102.037ZM242.21 106.465L241.767 106.907L234.683 117.535L229.369 124.619L224.498 130.818H225.826L229.369 127.719L234.683 122.849L241.767 117.092L242.652 114.878L243.096 106.465H242.21Z" fill="#BCF0B5"/>
<path d="M21.1279 183.353L21.1279 182.853L37.1279 182.853L37.1279 183.353L21.1279 183.353Z" fill="#BCF0B5"/>
<path d="M218.312 187.902C216.396 187.902 215.215 186.537 215.215 184.391V184.379C215.215 182.246 216.408 180.837 218.243 180.837C220.077 180.837 221.207 182.208 221.207 184.233V184.588H216.072C216.097 186.188 216.973 187.146 218.332 187.146C219.328 187.146 220.014 186.676 220.236 186.143L220.261 186.099H221.105L221.086 186.15C220.82 187.076 219.823 187.902 218.312 187.902ZM218.243 181.586C217.062 181.586 216.186 182.424 216.078 183.903H220.356C220.261 182.385 219.417 181.586 218.243 181.586Z" fill="#BCF0B5"/>
<path d="M209.74 187.902C208.248 187.902 207.213 187.191 207.074 186.073H207.937C208.121 186.753 208.775 187.191 209.765 187.191C210.768 187.191 211.523 186.676 211.523 185.966V185.953C211.523 185.362 211.098 185.013 210.102 184.779L209.149 184.55C207.88 184.252 207.29 183.725 207.29 182.766V182.76C207.29 181.655 208.375 180.837 209.752 180.837C211.13 180.837 212.107 181.529 212.266 182.608H211.441C211.289 181.973 210.654 181.541 209.746 181.541C208.851 181.541 208.146 182.043 208.146 182.722V182.735C208.146 183.293 208.565 183.617 209.473 183.833L210.419 184.055C211.739 184.372 212.38 184.905 212.38 185.889V185.902C212.38 187.076 211.231 187.902 209.74 187.902Z" fill="#BCF0B5"/>
<path d="M200.818 187.902C199.282 187.902 198.418 186.962 198.418 185.394V180.951H199.256V185.185C199.256 186.461 199.847 187.153 201.021 187.153C202.297 187.153 203.059 186.308 203.059 185.013V180.951H203.896V187.787H203.059V186.594H202.982C202.646 187.419 201.878 187.902 200.818 187.902Z" fill="#BCF0B5"/>
<path d="M192.169 187.902C190.258 187.902 189.065 186.549 189.065 184.372V184.36C189.065 182.182 190.258 180.837 192.169 180.837C194.08 180.837 195.279 182.182 195.279 184.36V184.372C195.279 186.549 194.08 187.902 192.169 187.902ZM192.169 187.153C193.578 187.153 194.416 186.099 194.416 184.372V184.36C194.416 182.633 193.578 181.586 192.169 181.586C190.76 181.586 189.922 182.633 189.922 184.36V184.372C189.922 186.099 190.76 187.153 192.169 187.153Z" fill="#BCF0B5"/>
<path d="M180.441 187.787V178.228H181.279V182.151H181.361C181.723 181.319 182.459 180.837 183.526 180.837C185.049 180.837 185.919 181.751 185.919 183.344V187.787H185.081V183.553C185.081 182.252 184.484 181.586 183.304 181.586C182.098 181.586 181.279 182.436 181.279 183.725V187.787H180.441Z" fill="#BCF0B5"/>
<path d="M174.306 187.902C173.258 187.902 172.408 187.343 172.014 186.423H171.932V187.787H171.094V178.228H171.932V182.278H172.014C172.389 181.395 173.271 180.837 174.306 180.837C176.039 180.837 177.181 182.233 177.181 184.36V184.372C177.181 186.486 176.032 187.902 174.306 187.902ZM174.134 187.153C175.48 187.153 176.324 186.067 176.324 184.366V184.353C176.324 182.658 175.48 181.586 174.134 181.586C172.789 181.586 171.919 182.677 171.919 184.36V184.372C171.919 186.054 172.789 187.153 174.134 187.153Z" fill="#BCF0B5"/>
<path d="M164.406 187.902C162.87 187.902 162.007 186.962 162.007 185.394V180.951H162.845V185.185C162.845 186.461 163.435 187.153 164.609 187.153C165.885 187.153 166.647 186.308 166.647 185.013V180.951H167.485V187.787H166.647V186.594H166.571C166.234 187.419 165.466 187.902 164.406 187.902Z" fill="#BCF0B5"/>
<path d="M157.617 187.787V178.228H158.455V187.787H157.617Z" fill="#BCF0B5"/>
<path d="M150.682 187.978C148.194 187.978 146.645 186.15 146.645 183.217V183.204C146.645 180.272 148.194 178.437 150.676 178.437C152.561 178.437 154.084 179.688 154.332 181.421L154.326 181.427H153.456L153.45 181.421C153.183 180.132 152.053 179.243 150.676 179.243C148.759 179.243 147.534 180.786 147.534 183.204V183.217C147.534 185.635 148.752 187.172 150.682 187.172C152.098 187.172 153.196 186.384 153.45 185.185L153.456 185.178L154.326 185.172L154.332 185.185C154.072 186.861 152.625 187.978 150.682 187.978Z" fill="#BCF0B5"/>
<path d="M135.91 187.902C133.993 187.902 132.812 186.537 132.812 184.391V184.379C132.812 182.246 134.006 180.837 135.84 180.837C137.675 180.837 138.805 182.208 138.805 184.233V184.588H133.669C133.695 186.188 134.571 187.146 135.929 187.146C136.926 187.146 137.611 186.676 137.833 186.143L137.859 186.099H138.703L138.684 186.15C138.417 187.076 137.421 187.902 135.91 187.902ZM135.84 181.586C134.66 181.586 133.784 182.424 133.676 183.903H137.954C137.859 182.385 137.015 181.586 135.84 181.586Z" fill="#BCF0B5"/>
<path d="M124.189 187.787V178.228H125.027V182.151H125.109C125.471 181.319 126.208 180.837 127.274 180.837C128.797 180.837 129.667 181.751 129.667 183.344V187.787H128.829V183.553C128.829 182.252 128.232 181.586 127.052 181.586C125.846 181.586 125.027 182.436 125.027 183.725V187.787H124.189Z" fill="#BCF0B5"/>
<path d="M117.159 187.787V179.415H114.086V178.628H121.094V179.415H118.022V187.787H117.159Z" fill="#BCF0B5"/>
<path d="M103.447 187.787V180.951H104.285V182.074H104.367C104.634 181.294 105.3 180.837 106.227 180.837C106.475 180.837 106.703 180.862 106.868 180.9V181.725C106.621 181.662 106.398 181.636 106.138 181.636C105.072 181.636 104.285 182.417 104.285 183.522V187.787H103.447Z" fill="#BCF0B5"/>
<path d="M97.1401 187.902C95.2295 187.902 94.0361 186.549 94.0361 184.372V184.36C94.0361 182.182 95.2295 180.837 97.1401 180.837C99.0508 180.837 100.25 182.182 100.25 184.36V184.372C100.25 186.549 99.0508 187.902 97.1401 187.902ZM97.1401 187.153C98.5493 187.153 99.3872 186.099 99.3872 184.372V184.36C99.3872 182.633 98.5493 181.586 97.1401 181.586C95.731 181.586 94.8931 182.633 94.8931 184.36V184.372C94.8931 186.099 95.731 187.153 97.1401 187.153Z" fill="#BCF0B5"/>
<path d="M85.7427 187.787V178.628H91.1763V179.415H86.6123V182.855H90.8081V183.63H86.6123V187.787H85.7427Z" fill="#BCF0B5"/>
<path d="M77.0015 187.832C75.6938 187.832 75.1543 187.33 75.1543 186.086V181.655H74.0562V180.951H75.1543V179.174H76.0239V180.951H77.5854V181.655H76.0239V185.896C76.0239 186.734 76.3223 187.083 77.0967 187.083C77.2871 187.083 77.4141 187.076 77.5854 187.057V187.781C77.395 187.813 77.2046 187.832 77.0015 187.832Z" fill="#BCF0B5"/>
<path d="M70.2944 187.787V178.228H71.1323V187.787H70.2944Z" fill="#BCF0B5"/>
<path d="M66.2349 179.529C65.8921 179.529 65.6128 179.256 65.6128 178.913C65.6128 178.57 65.8921 178.298 66.2349 178.298C66.5713 178.298 66.8506 178.57 66.8506 178.913C66.8506 179.256 66.5713 179.529 66.2349 179.529ZM65.8096 187.787V180.951H66.6475V187.787H65.8096Z" fill="#BCF0B5"/>
<path d="M59.1475 187.902C57.6113 187.902 56.748 186.962 56.748 185.394V180.951H57.5859V185.185C57.5859 186.461 58.1763 187.153 59.3506 187.153C60.6265 187.153 61.3882 186.308 61.3882 185.013V180.951H62.2261V187.787H61.3882V186.594H61.312C60.9756 187.419 60.2075 187.902 59.1475 187.902Z" fill="#BCF0B5"/>
<path d="M47.1279 187.787V178.628H50.416C52.1045 178.628 53.1455 179.516 53.1455 180.887V180.9C53.1455 181.903 52.4409 182.76 51.4697 182.938V183.014C52.7202 183.173 53.6152 184.01 53.6152 185.274V185.286C53.6152 186.835 52.498 187.787 50.4668 187.787H47.1279ZM50.2446 179.396H47.9976V182.696H50.0479C51.4634 182.696 52.2695 182.093 52.2695 181.033V181.021C52.2695 180.018 51.5142 179.396 50.2446 179.396ZM50.27 183.445H47.9976V187.019H50.3398C51.9331 187.019 52.7266 186.372 52.7266 185.242V185.229C52.7266 184.087 51.8252 183.445 50.27 183.445Z" fill="#BCF0B5"/>
<path d="M231.207 183.353L231.207 182.853L247.207 182.853L247.207 183.353L231.207 183.353Z" fill="url(#paint0_linear_266_2482)"/>
<defs>
<linearGradient id="paint0_linear_266_2482" x1="231.207" y1="182.353" x2="247.207" y2="182.353" gradientUnits="userSpaceOnUse">
<stop stop-color="#BCF0B5"/>
<stop offset="1" stop-color="white"/>
</linearGradient>
</defs>
</svg>
