<svg width="209" height="122" viewBox="0 0 209 122" fill="none" xmlns="http://www.w3.org/2000/svg">
<path fill-rule="evenodd" clip-rule="evenodd" d="M69.5732 34.7866C69.5732 54.0007 54.0007 69.5732 34.7866 69.5732C15.5726 69.5732 0 54.0007 0 34.7866C0 15.5726 15.5726 0 34.7866 0C54.0007 0 69.5732 15.5726 69.5732 34.7866ZM48.842 62.0429C48.784 62.0236 48.7116 61.9946 48.6343 61.9656C48.1609 61.7821 47.7793 61.4971 47.5282 61.1252C46.9437 61.8256 46.1612 62.3327 45.3305 62.6515C46.1565 62.6902 46.9245 62.9365 47.4413 63.4968C47.7262 62.9896 48.2141 62.4873 48.842 62.0429ZM49.523 56.0198C49.5037 56.0101 49.4892 56.0005 49.4699 55.9908C49.0642 55.7396 48.4846 55.2518 48.1948 54.3727C47.8712 54.9813 47.4268 55.5223 46.5864 56.0874C46.2724 56.2951 45.9102 56.4689 45.5189 56.5993C46.4415 56.7346 47.2239 57.1596 47.7553 57.8551C48.1803 57.1403 48.7937 56.5028 49.523 56.0198ZM55.9229 54.6576C55.7491 54.4886 55.5945 54.2954 55.4689 54.078C55.2516 54.3582 55.0439 54.59 54.8217 54.8122C54.5947 55.0392 54.3677 55.2421 54.0875 55.4594C54.3049 55.585 54.4981 55.7396 54.6671 55.9135C54.8603 55.6816 55.0632 55.4449 55.2661 55.2469C55.4544 55.0585 55.6863 54.8508 55.9229 54.6576ZM57.8453 47.7555C57.1546 47.2241 56.7248 46.4417 56.5895 45.5191C56.4591 45.9152 56.2853 46.2774 56.0776 46.5866C55.5173 47.427 54.9763 47.8714 54.3629 48.195C55.242 48.4848 55.7347 49.0693 55.981 49.4701C55.9907 49.4846 56.0003 49.5039 56.01 49.5232C56.5026 48.7987 57.1401 48.1806 57.8453 47.7555ZM63.4965 47.4415C62.9363 46.9247 62.6899 46.1518 62.6513 45.3308C62.3373 46.1664 61.8302 46.9441 61.1249 47.5284C61.492 47.7844 61.7818 48.1612 61.9654 48.6345C61.9944 48.7118 62.0233 48.7794 62.0427 48.8422C62.487 48.2143 62.9893 47.7265 63.4965 47.4415ZM64.2259 26.3146C64.2645 25.5949 64.4915 25.0974 64.8586 24.851C60.6806 12.235 48.789 3.09596 34.7868 3.09596C17.3113 3.09596 3.09639 17.3108 3.09639 34.7864C3.09639 48.7886 12.2349 60.68 24.8515 64.8582C25.0978 64.4911 25.5953 64.2641 26.315 64.2254C27.7447 64.1482 29.6574 64.8244 30.1211 65.916C30.1452 65.9788 30.1452 66.0367 30.1597 66.0995C30.947 66.2155 31.7343 66.3072 32.5362 66.3604C32.5169 66.3121 32.5024 66.2686 32.4927 66.2348L32.4879 66.2058C32.4686 66.0561 32.4444 65.8484 32.5362 65.602C32.9226 64.5829 34.362 64.1433 35.5839 64.0709C37.0282 63.9839 38.7283 64.3703 39.2741 65.4282C39.3659 65.6021 39.4094 65.7856 39.4094 65.9595C39.4094 66.0078 39.3901 66.0513 39.3852 66.0948C39.6461 66.0561 39.9069 66.0223 40.1677 65.974C40.1291 65.8774 40.1098 65.7856 40.0904 65.718L40.0856 65.66C40.0856 65.6021 40.0808 65.5441 40.0856 65.491C40.1677 64.4235 41.5104 63.5058 42.8484 63.0373C42.322 63.0083 41.8293 62.902 41.409 62.7233C39.8875 62.0664 39.8489 60.8975 39.8393 60.4338L39.849 60.3324C39.8586 60.2503 39.8634 60.1633 39.8731 60.0957C40.1532 58.4824 41.752 57.2652 43.3315 56.7822C42.8002 56.7049 42.2785 56.5214 41.81 56.2123C40.39 55.2752 40.3754 53.8406 40.3705 53.3528C40.4237 52.8409 40.5493 51.6382 41.7761 50.4934C43.8143 48.5903 45.8188 49.17 46.5868 49.5081C47.4756 49.8993 48.1905 50.5852 48.4512 51.242C48.7314 50.6286 49.1275 50.0683 49.596 49.5998C50.0693 49.1265 50.6248 48.7353 51.2382 48.4551C50.5813 48.1991 49.8954 47.4843 49.5042 46.5907C49.1661 45.8227 48.5865 43.823 50.4896 41.78C51.6343 40.5531 52.8321 40.4275 53.349 40.3744C53.8368 40.3793 55.2714 40.3937 56.2084 41.8138C56.5175 42.2824 56.7011 42.804 56.7784 43.3354C57.2614 41.7512 58.4786 40.1572 60.0918 39.877C60.1594 39.8625 60.2464 39.8577 60.3285 39.8528L60.4299 39.8432C60.8888 39.8577 62.0625 39.8963 62.7194 41.4129C62.8982 41.8331 63.0044 42.3258 63.0334 42.8523C63.5019 41.5144 64.4197 40.1668 65.4871 40.0895C65.5403 40.0846 65.5982 40.0895 65.6562 40.0895L65.7141 40.0943C65.7818 40.1088 65.8735 40.1329 65.9701 40.1716C66.0136 39.9156 66.0523 39.6499 66.0909 39.3891C66.0426 39.3939 65.9991 39.4133 65.9557 39.4133C65.7769 39.4133 65.5982 39.3698 65.4243 39.278C64.3665 38.7274 63.9801 37.0272 64.067 35.5878C64.1395 34.3658 64.579 32.9265 65.5982 32.5401C65.8445 32.4434 66.0522 32.4724 66.202 32.4917L66.2309 32.4966C66.2647 32.5062 66.3082 32.5207 66.3565 32.5401C66.2985 31.7383 66.2116 30.9461 66.0957 30.1636C66.0377 30.1491 65.9749 30.1491 65.9121 30.125C64.8254 29.6613 64.1486 27.7442 64.2259 26.3146ZM26.9761 58.1064C25.7155 57.8069 24.5852 58.0871 24.0346 58.8309C23.7351 59.2366 23.7303 59.623 23.7351 59.8597C23.7738 60.1495 23.8849 60.961 24.9234 61.6855C26.2855 62.637 27.8938 62.5646 28.7826 62.0043C29.3043 61.6759 29.5747 61.1977 29.5747 60.6422C29.5747 60.5456 29.5651 60.4393 29.5506 60.333C29.3526 59.169 28.116 58.3769 26.9761 58.1064ZM28.2368 55.1165C29.0579 54.7108 29.5313 53.9573 29.5313 53.0831C29.5313 53.0154 29.5264 52.9478 29.5216 52.8802C29.4298 51.7403 28.5942 50.7453 27.3915 50.3492C26.2129 49.958 25.0247 50.2333 24.2857 51.0641C23.8124 51.6002 23.7641 52.1267 23.7351 52.4358C23.7399 52.7643 23.7544 53.7109 24.7108 54.5611C25.8604 55.5899 27.3094 55.5802 28.2368 55.1165ZM18.1998 56.836C17.4656 56.5075 16.7943 56.5365 16.403 56.9133C16.1132 57.1886 16.118 57.517 16.118 57.7151C16.1422 57.9228 16.2195 58.4975 16.8812 59.1302C17.6202 59.8403 18.649 60.1591 19.3253 59.8886C19.6924 59.7437 19.9049 59.4394 19.9194 59.0336V58.9757C19.9194 58.0773 19.0643 57.2272 18.1998 56.836ZM52.885 29.5216C52.9526 29.5264 53.0203 29.5312 53.0879 29.5312C53.9621 29.5312 54.7108 29.0579 55.1213 28.2367C55.585 27.3093 55.5947 25.8603 54.5707 24.7107C53.7206 23.7544 52.7739 23.7399 52.4454 23.735C52.1314 23.764 51.6098 23.8172 51.0736 24.2857C50.238 25.0198 49.9627 26.2129 50.3587 27.3914C50.75 28.5941 51.7403 29.4297 52.885 29.5216ZM60.7194 31.8207H60.6904C60.3716 31.84 60.0432 31.8545 59.5843 32.1202C58.0919 32.9751 57.6426 34.9989 57.86 36.5156C58.0725 38.0129 58.855 39.0659 59.9563 39.3315C60.1253 39.375 60.2944 39.3895 60.4634 39.3895C61.1783 39.3895 61.8593 39.0224 62.3955 38.3365C63.3035 37.1628 63.7334 35.0521 62.7964 33.2939C62.0767 31.9464 61.0526 31.8497 60.7194 31.8207ZM36.5111 57.8603C34.9944 57.643 32.9754 58.0922 32.1157 59.5846C31.85 60.0435 31.8355 60.3767 31.8162 60.6907V60.7197C31.8452 61.053 31.9418 62.077 33.2894 62.7966C35.0524 63.7337 37.1631 63.3038 38.332 62.3957C39.0179 61.8644 39.3849 61.1786 39.3849 60.4637C39.3849 60.2946 39.3656 60.1256 39.327 59.9565C39.0613 58.8601 38.0084 58.0729 36.5111 57.8603ZM58.8313 24.0357C58.0826 24.5863 57.8073 25.7166 58.1067 26.9772C58.3772 28.1171 59.1694 29.3537 60.3383 29.5516C60.4445 29.5709 60.546 29.5758 60.6474 29.5758C61.2028 29.5758 61.681 29.3004 62.0095 28.7836C62.5698 27.8949 62.6423 26.2865 61.6907 24.9244C60.9662 23.8907 60.1499 23.7748 59.8649 23.7362C59.6234 23.7265 59.237 23.7314 58.8313 24.0357ZM59.0341 19.9205C59.4398 19.9012 59.7393 19.6935 59.889 19.3264C60.1595 18.6501 59.8407 17.6262 59.1307 16.8823C58.498 16.2206 57.9232 16.1433 57.7155 16.1191C57.5223 16.1191 57.1939 16.1095 56.9137 16.4041C56.537 16.7954 56.508 17.4667 56.8365 18.2009C57.2277 19.0655 58.0778 19.9204 58.9762 19.9204L59.0341 19.9205ZM33.9034 47.3363C34.995 48.254 36.4972 48.4279 37.7289 47.771C38.7818 47.2107 39.4049 46.177 39.4049 45.013C39.4049 44.897 39.4001 44.7811 39.3856 44.6652C39.2456 43.3321 38.3423 42.2502 37.0334 41.8299C35.7389 41.4193 34.3914 41.7719 33.522 42.7573C32.8216 43.5542 32.7588 44.3802 32.7299 44.7811C32.7444 45.1916 32.7828 46.3944 33.9034 47.3363ZM36.7387 50.1522C35.0965 49.8237 33.4832 50.4468 32.6379 51.7462C32.2129 52.3982 32.1597 52.9827 32.1259 53.3304C32.1356 53.7554 32.1694 54.9822 33.4204 55.8951C34.9177 56.9819 36.7919 56.7114 37.9752 55.9579C38.9944 55.3155 39.5644 54.3495 39.5644 53.3062C39.5644 53.1275 39.5451 52.944 39.5113 52.7604C39.2698 51.4466 38.207 50.4468 36.7387 50.1522ZM45.0078 41.1392C44.5248 41.1633 43.5202 41.2164 42.5203 42.0182C42.4237 42.0955 42.3416 42.1776 42.2595 42.2597C42.1774 42.3419 42.0953 42.4288 42.018 42.5206C41.2162 43.5156 41.1631 44.5251 41.1389 45.008C41.1582 45.4911 41.2259 46.9208 42.5107 47.9496C43.6409 48.8528 45.172 48.9832 46.5004 48.2828C46.8917 48.08 47.2201 47.8192 47.5196 47.5197C47.819 47.2202 48.0798 46.8918 48.2827 46.5005C48.9831 45.1675 48.8527 43.6411 47.9494 42.5108C46.9206 41.226 45.4908 41.1584 45.0078 41.1392ZM53.3301 32.1261C52.9823 32.1551 52.3979 32.2131 51.7459 32.6381C50.4514 33.4882 49.8235 35.0967 50.1519 36.7389C50.4417 38.2072 51.4464 39.2699 52.7602 39.5162C52.9438 39.55 53.1273 39.5693 53.306 39.5693C54.3493 39.5693 55.3153 38.9994 55.9577 37.9802C56.7112 36.792 56.9817 34.9227 55.8949 33.4254C54.982 32.1696 53.7551 32.1358 53.3301 32.1261ZM44.6697 39.3858C44.7857 39.4003 44.9016 39.4051 45.0175 39.4051C46.1767 39.4051 47.2152 38.782 47.7755 37.729C48.4276 36.4925 48.2585 34.9904 47.3408 33.9035C46.3941 32.7829 45.1962 32.7443 44.7857 32.7346C44.3897 32.7636 43.5589 32.8216 42.7619 33.5268C41.7766 34.3962 41.424 35.7438 41.8345 37.0382C42.2499 38.3472 43.3365 39.2458 44.6697 39.3858Z" fill="#064102"/>
<path d="M10.6731 111.076C10.2625 111.78 9.92514 112.41 9.66114 112.968C9.33848 113.466 9.00114 113.936 8.64914 114.376C8.32648 114.845 7.91581 115.256 7.41714 115.608C6.85981 116.018 6.27314 116.326 5.65714 116.532C5.04114 116.737 4.36648 116.722 3.63314 116.488C3.04648 116.312 2.56248 116.033 2.18114 115.652C1.79981 115.27 1.46248 114.83 1.16914 114.332C0.758476 113.569 0.47981 112.806 0.333143 112.044C0.186476 111.252 0.0838095 110.445 0.0251429 109.624C-0.0335238 108.421 0.0104762 107.248 0.157143 106.104C0.333143 104.96 0.553143 103.816 0.817143 102.672C1.13981 101.264 1.50648 99.8851 1.91714 98.5357C2.35714 97.1571 2.88514 95.8077 3.50114 94.4877C3.70648 94.0771 3.92648 93.6664 4.16114 93.2557C4.42514 92.8451 4.67448 92.4491 4.90914 92.0677C5.02648 91.8917 5.15848 91.7304 5.30514 91.5837C5.45181 91.4371 5.59848 91.2904 5.74514 91.1437C6.39048 90.5864 7.09448 90.3664 7.85714 90.4837C8.61981 90.5717 9.25048 90.9531 9.74914 91.6277C10.5118 92.6544 10.7318 93.8131 10.4091 95.1037C10.9665 95.3677 11.4211 95.7051 11.7731 96.1157C12.1545 96.4971 12.4478 96.9224 12.6531 97.3917C12.8585 97.8611 13.0051 98.3597 13.0931 98.8877C13.1811 99.4157 13.2398 99.9584 13.2691 100.516C13.2985 101.454 13.2251 102.378 13.0491 103.288C12.8731 104.197 12.6385 105.121 12.3451 106.06C12.2571 106.382 12.2278 106.661 12.2571 106.896C12.3158 107.101 12.4771 107.321 12.7411 107.556C13.2691 108.054 13.7678 108.553 14.2371 109.052C14.7358 109.521 15.2345 110.005 15.7331 110.504C16.0265 110.768 16.3051 111.046 16.5691 111.34C17.3025 112.22 17.3758 113.056 16.7891 113.848C16.4665 114.229 16.0851 114.449 15.6451 114.508C15.2345 114.596 14.7798 114.478 14.2811 114.156C13.8705 113.921 13.4745 113.657 13.0931 113.364C12.7411 113.07 12.3891 112.762 12.0371 112.44C11.8025 112.234 11.5825 112.029 11.3771 111.824C11.1718 111.589 10.9371 111.34 10.6731 111.076ZM7.41714 95.4997L7.28514 95.7637C6.43448 97.6704 5.73048 99.6064 5.17314 101.572C4.61581 103.508 4.23448 105.517 4.02914 107.6C3.97048 108.274 3.95581 108.934 3.98514 109.58C4.01448 110.225 4.13181 110.87 4.33714 111.516C4.39581 111.692 4.45448 111.868 4.51314 112.044C4.60114 112.22 4.68914 112.425 4.77714 112.66C4.95314 112.513 5.09981 112.381 5.21714 112.264C5.33448 112.146 5.45181 112.029 5.56914 111.912C6.00914 111.354 6.36114 110.782 6.62514 110.196C6.91848 109.58 7.18248 108.964 7.41714 108.348C7.62248 107.937 7.49048 107.673 7.02114 107.556C6.49314 107.409 6.08248 107.16 5.78914 106.808C5.52514 106.426 5.24648 106.045 4.95314 105.664C4.57181 105.077 4.60114 104.446 5.04114 103.772C5.48114 103.126 6.06781 102.877 6.80114 103.024C7.18248 103.112 7.59314 103.273 8.03314 103.508C8.17981 103.566 8.31181 103.64 8.42914 103.728C8.54648 103.786 8.67848 103.86 8.82514 103.948C9.00114 103.273 9.13314 102.628 9.22114 102.012C9.30914 101.366 9.32381 100.706 9.26514 100.032C9.20648 99.7091 9.11848 99.4304 9.00114 99.1957C8.91314 98.9317 8.73714 98.6824 8.47314 98.4477C8.20914 98.1837 8.04781 97.8904 7.98914 97.5677C7.93048 97.2451 7.94514 96.8931 8.03314 96.5117C8.03314 96.4237 8.04781 96.3357 8.07714 96.2477C8.10648 96.1597 8.13581 96.0717 8.16514 95.9837C8.01848 95.8957 7.88648 95.8224 7.76914 95.7637C7.65181 95.6757 7.53448 95.5877 7.41714 95.4997Z" fill="#064102"/>
<path d="M137.525 110.533C137.781 110.341 138.069 110.309 138.389 110.437C138.709 110.544 138.965 110.736 139.157 111.013C139.371 111.269 139.477 111.589 139.477 111.973C139.477 112.357 139.296 112.731 138.933 113.093C138.208 113.819 137.461 114.533 136.693 115.237C135.925 115.941 135.125 116.603 134.293 117.221C133.931 117.499 133.557 117.744 133.173 117.957C132.789 118.171 132.373 118.331 131.925 118.437C131.349 118.544 130.795 118.48 130.261 118.245C129.749 118.032 129.312 117.659 128.949 117.125C128.651 116.677 128.448 116.208 128.341 115.717C128.235 115.248 128.16 114.768 128.117 114.277C128.053 113.659 128.043 113.051 128.085 112.453C128.149 111.856 128.256 111.269 128.405 110.693C128.811 109.008 129.387 107.429 130.133 105.957C130.88 104.485 131.861 103.131 133.077 101.893C133.227 101.723 133.397 101.573 133.589 101.445C133.781 101.296 133.973 101.147 134.165 100.997C134.421 100.805 134.72 100.656 135.061 100.549C135.445 100.4 135.819 100.347 136.181 100.389C136.544 100.432 136.864 100.549 137.141 100.741C137.44 100.912 137.675 101.168 137.845 101.509C138.037 101.829 138.155 102.203 138.197 102.629C138.197 102.885 138.176 103.152 138.133 103.429C138.091 103.707 138.037 103.973 137.973 104.229C137.653 105.317 137.195 106.288 136.597 107.141C136 107.973 135.275 108.731 134.421 109.413C134.165 109.605 133.899 109.797 133.621 109.989C133.365 110.181 133.088 110.363 132.789 110.533C132.555 110.704 132.288 110.843 131.989 110.949C131.712 111.056 131.413 111.184 131.093 111.333C130.923 112.528 130.944 113.381 131.157 113.893C131.371 114.384 131.68 114.651 132.085 114.693C132.491 114.736 132.971 114.597 133.525 114.277C134.08 113.957 134.624 113.573 135.157 113.125C135.691 112.677 136.171 112.208 136.597 111.717C137.024 111.227 137.333 110.832 137.525 110.533ZM132.789 107.077C133.877 106.245 134.645 105.2 135.093 103.941C134.603 104.368 134.165 104.848 133.781 105.381C133.419 105.915 133.088 106.48 132.789 107.077Z" fill="#064102"/>
<path d="M111.345 110.822C111.409 110.715 111.463 110.609 111.505 110.502C111.548 110.395 111.591 110.289 111.633 110.182C112.06 108.753 112.487 107.355 112.913 105.99C113.361 104.603 113.809 103.206 114.257 101.798C114.343 101.542 114.417 101.286 114.481 101.03C114.567 100.753 114.663 100.486 114.769 100.23C114.812 100.123 114.865 100.017 114.929 99.91C114.993 99.8033 115.068 99.6966 115.153 99.59C115.495 99.0566 116.017 98.886 116.721 99.078C117.361 99.334 117.745 99.782 117.873 100.422C117.916 100.785 117.916 101.147 117.873 101.51C117.809 102.427 117.735 103.323 117.649 104.198C117.585 105.051 117.521 105.926 117.457 106.822C117.436 107.185 117.425 107.558 117.425 107.942C117.425 108.326 117.415 108.721 117.393 109.126C117.457 109.126 117.5 109.137 117.521 109.158C117.564 109.051 117.607 108.966 117.649 108.902C117.713 108.817 117.767 108.731 117.809 108.646C118.172 107.729 118.513 106.822 118.833 105.926C119.175 105.03 119.516 104.134 119.857 103.238C120.22 102.299 120.572 101.382 120.913 100.486C121.276 99.5686 121.639 98.6513 122.001 97.734C122.108 97.4993 122.225 97.254 122.353 96.998C122.503 96.742 122.641 96.486 122.769 96.23C122.897 95.9526 123.068 95.7286 123.281 95.558C123.495 95.3446 123.74 95.2166 124.017 95.174C124.295 95.11 124.561 95.1206 124.817 95.206C125.073 95.27 125.308 95.4086 125.521 95.622C125.735 95.814 125.895 96.0593 126.001 96.358C126.065 96.55 126.108 96.7526 126.129 96.966C126.151 97.1793 126.172 97.3926 126.193 97.606C126.151 98.3313 126.087 99.046 126.001 99.75C125.916 100.454 125.852 101.169 125.809 101.894C125.639 103.729 125.511 105.563 125.425 107.398C125.34 109.211 125.351 111.057 125.457 112.934C125.5 113.894 125.596 114.843 125.745 115.782C125.895 116.721 126.14 117.649 126.481 118.566C126.524 118.694 126.556 118.822 126.577 118.95C126.599 119.078 126.62 119.217 126.641 119.366C126.748 119.707 126.727 119.995 126.577 120.23C126.449 120.486 126.236 120.667 125.937 120.774C125.617 120.881 125.297 120.87 124.977 120.742C124.679 120.635 124.433 120.411 124.241 120.07C124.071 119.75 123.9 119.419 123.729 119.078C123.58 118.737 123.431 118.385 123.281 118.022C123.111 117.403 122.972 116.795 122.865 116.198C122.78 115.622 122.705 115.025 122.641 114.406C122.492 112.913 122.417 111.43 122.417 109.958C122.439 108.486 122.481 107.014 122.545 105.542C122.567 105.371 122.535 105.147 122.449 104.87C122.428 104.977 122.396 105.062 122.353 105.126C122.332 105.19 122.321 105.254 122.321 105.318C121.98 106.15 121.649 106.993 121.329 107.846C121.031 108.699 120.7 109.531 120.337 110.342C120.209 110.705 120.049 111.046 119.857 111.366C119.665 111.665 119.463 111.963 119.249 112.262C119.143 112.433 118.993 112.603 118.801 112.774C118.631 112.923 118.46 113.073 118.289 113.222C117.735 113.585 117.148 113.67 116.529 113.478C115.911 113.265 115.452 112.827 115.153 112.166C115.047 111.953 114.951 111.729 114.865 111.494C114.801 111.259 114.716 111.003 114.609 110.726C114.545 110.982 114.471 111.185 114.385 111.334C114.193 111.761 114.012 112.209 113.841 112.678C113.671 113.147 113.457 113.606 113.201 114.054C113.095 114.289 112.945 114.513 112.753 114.726C112.583 114.939 112.412 115.163 112.241 115.398C111.943 115.739 111.559 115.942 111.089 116.006C110.599 116.07 110.151 115.985 109.745 115.75C109.34 115.515 109.02 115.153 108.785 114.662C108.615 114.278 108.497 113.894 108.433 113.51C108.391 113.105 108.348 112.71 108.305 112.326C108.263 111.259 108.263 110.214 108.305 109.19C108.369 108.145 108.465 107.099 108.593 106.054C108.764 104.966 108.924 103.889 109.073 102.822C109.223 101.734 109.383 100.646 109.553 99.558C109.596 99.3873 109.628 99.238 109.649 99.11C109.692 98.9606 109.745 98.822 109.809 98.694C109.937 98.374 110.161 98.15 110.481 98.022C110.801 97.894 111.132 97.8833 111.473 97.99C111.857 98.118 112.145 98.342 112.337 98.662C112.551 98.982 112.636 99.3233 112.593 99.686C112.593 99.8566 112.572 99.9846 112.529 100.07C112.145 101.777 111.857 103.494 111.665 105.222C111.495 106.929 111.356 108.657 111.249 110.406C111.228 110.47 111.217 110.534 111.217 110.598C111.239 110.641 111.249 110.705 111.249 110.79L111.345 110.822Z" fill="#064102"/>
<path d="M103.673 98.7899C103.78 98.5979 103.876 98.4166 103.961 98.2459C104.068 98.0752 104.164 97.9046 104.249 97.7339C104.462 97.3499 104.75 97.1152 105.113 97.0299C105.518 96.9232 105.902 96.9766 106.265 97.1899C106.628 97.4032 106.862 97.7232 106.969 98.1499C107.14 98.5552 107.14 99.0032 106.969 99.4939C106.436 101.329 105.988 103.185 105.625 105.062C105.284 106.939 104.985 108.838 104.729 110.758C104.58 111.782 104.473 112.806 104.409 113.83C104.366 114.854 104.409 115.899 104.537 116.966V117.478C104.494 118.203 104.153 118.598 103.513 118.662C103.193 118.705 102.894 118.651 102.617 118.502C102.34 118.353 102.137 118.118 102.009 117.798C101.817 117.201 101.668 116.603 101.561 116.006C101.476 115.238 101.454 114.47 101.497 113.702C101.54 112.934 101.604 112.177 101.689 111.43C101.732 111.067 101.774 110.694 101.817 110.31C101.86 109.926 101.881 109.531 101.881 109.126C101.817 109.233 101.742 109.35 101.657 109.478C101.294 110.097 100.932 110.715 100.569 111.334C100.228 111.953 99.865 112.571 99.481 113.19C99.2677 113.51 99.0331 113.819 98.7771 114.118C98.5211 114.417 98.265 114.705 98.009 114.982C97.5824 115.43 97.0811 115.75 96.5051 115.942C95.9504 116.155 95.3957 116.134 94.841 115.878C94.3077 115.643 93.8917 115.238 93.593 114.662C93.2517 114.001 93.0811 113.286 93.0811 112.518C93.1024 112.091 93.1237 111.675 93.1451 111.27C93.1664 110.843 93.2197 110.417 93.3051 109.99C93.6891 108.091 94.2651 106.289 95.0331 104.582C95.8011 102.875 96.761 101.265 97.913 99.7499C98.1477 99.4512 98.4037 99.1846 98.6811 98.9499C98.9584 98.6939 99.2357 98.4379 99.5131 98.1819C99.5557 98.1392 99.609 98.0966 99.673 98.0539C99.737 98.0112 99.8011 97.9686 99.8651 97.9259C101.23 97.1366 102.5 97.4246 103.673 98.7899ZM96.0251 112.678C96.1744 112.507 96.3024 112.358 96.409 112.23C96.5157 112.102 96.6224 111.974 96.729 111.846C97.369 110.993 97.9344 110.097 98.425 109.158C98.9157 108.219 99.4064 107.27 99.897 106.31C99.961 106.225 99.9717 106.075 99.9291 105.862C99.8224 105.521 99.8544 105.137 100.025 104.71C100.153 104.454 100.27 104.198 100.377 103.942C100.505 103.665 100.612 103.377 100.697 103.078C100.804 102.779 100.889 102.47 100.953 102.15C101.038 101.809 101.124 101.478 101.209 101.158C101.209 101.115 101.198 101.062 101.177 100.998C101.177 100.934 101.177 100.87 101.177 100.806C100.814 101.019 100.43 101.393 100.025 101.926C99.6411 102.438 99.2464 103.057 98.841 103.782C98.457 104.486 98.0837 105.254 97.7211 106.086C97.3584 106.897 97.0384 107.707 96.7611 108.518C96.5051 109.307 96.3024 110.075 96.1531 110.822C96.0251 111.547 95.9824 112.166 96.0251 112.678Z" fill="#064102"/>
<path d="M87.2255 109.732C87.1829 109.625 87.1509 109.561 87.1295 109.54C86.6815 109.092 86.4362 108.622 86.3935 108.132C86.3722 107.62 86.4682 107.15 86.6815 106.724C86.9162 106.297 87.2362 105.934 87.6415 105.636C88.0469 105.337 88.4735 105.145 88.9215 105.06C89.2629 104.996 89.5829 105.006 89.8815 105.092C90.1802 105.177 90.4469 105.358 90.6815 105.636C91.2149 106.254 91.4922 106.958 91.5135 107.748C91.5349 108.9 91.5455 110.062 91.5455 111.236C91.5669 112.409 91.5775 113.572 91.5775 114.724V116.228C91.5775 116.633 91.4709 116.974 91.2575 117.252C91.0442 117.529 90.7562 117.71 90.3935 117.796C89.5829 117.924 89.0069 117.572 88.6655 116.74C88.5162 116.377 88.4309 116.014 88.4095 115.652C88.3882 115.289 88.3669 114.926 88.3455 114.564C88.3455 114.457 88.3349 114.35 88.3135 114.244C88.3135 114.137 88.3135 114.009 88.3135 113.86C88.2069 113.924 88.1215 113.977 88.0575 114.02C87.9935 114.062 87.9189 114.116 87.8335 114.18C87.3002 114.649 86.6922 114.958 86.0095 115.108C84.6015 115.364 83.4282 114.916 82.4895 113.764C82.0629 113.23 81.7429 112.654 81.5295 112.036C81.3162 111.396 81.1775 110.734 81.1135 110.052C81.0069 109.113 81.0282 108.206 81.1775 107.332C81.3269 106.457 81.5722 105.582 81.9135 104.708C82.3829 103.47 82.9375 102.297 83.5775 101.188C84.2389 100.078 85.0175 99.0436 85.9135 98.0836C86.4042 97.5289 86.9589 97.0382 87.5775 96.6116C88.0682 96.3129 88.6015 96.0996 89.1775 95.9716C89.9242 95.8009 90.5749 95.9289 91.1295 96.3556C91.7055 96.7609 92.0255 97.3369 92.0895 98.0836C92.1322 98.5102 92.1322 98.9369 92.0895 99.3636C92.0469 99.7689 92.0042 100.185 91.9615 100.612C91.9189 100.804 91.8762 100.985 91.8335 101.156C91.7909 101.326 91.7482 101.497 91.7055 101.668C91.5775 102.03 91.3642 102.308 91.0655 102.5C90.7669 102.67 90.4362 102.713 90.0735 102.628C89.7109 102.564 89.4229 102.393 89.2095 102.116C88.9962 101.838 88.9002 101.508 88.9215 101.124C88.9429 100.889 88.9642 100.654 88.9855 100.42C89.0282 100.164 89.0709 99.9076 89.1135 99.6516C88.9215 99.6516 88.7722 99.7049 88.6655 99.8116C88.5802 99.8969 88.4949 99.9929 88.4095 100.1C88.0469 100.59 87.6842 101.07 87.3215 101.54C86.9589 102.009 86.6069 102.5 86.2655 103.012C85.8175 103.758 85.4229 104.526 85.0815 105.316C84.7615 106.084 84.5375 106.905 84.4095 107.78C84.3029 108.334 84.2602 108.889 84.2815 109.444C84.3029 109.998 84.4202 110.553 84.6335 111.108C84.9962 112.068 85.4869 112.153 86.1055 111.364C86.3189 111.108 86.5109 110.841 86.6815 110.564C86.8735 110.265 87.0549 109.988 87.2255 109.732Z" fill="#064102"/>
<path d="M58.2423 101.894C58.3489 101.724 58.4343 101.542 58.4983 101.35C58.5623 101.158 58.6369 100.977 58.7223 100.806C58.9996 100.188 59.2769 99.5582 59.5543 98.9182C59.8529 98.2782 60.1516 97.6489 60.4503 97.0302C60.5783 96.7315 60.8023 96.4329 61.1223 96.1342C61.5703 95.7502 62.1036 95.7395 62.7223 96.1022C62.9996 96.2729 63.2023 96.4755 63.3303 96.7102C63.4796 96.9449 63.5329 97.2222 63.4903 97.5422C63.4903 97.7769 63.4583 98.0009 63.3943 98.2142C63.3516 98.4062 63.2876 98.6195 63.2023 98.8542C62.8396 100.07 62.4556 101.286 62.0503 102.502C61.6663 103.718 61.2823 104.945 60.8983 106.182C60.7916 106.545 60.6849 106.908 60.5783 107.27C60.4929 107.633 60.3969 107.996 60.2903 108.358C60.2903 108.465 60.2583 108.678 60.1943 108.998C60.3436 108.934 60.4609 108.881 60.5463 108.838C60.6529 108.774 60.7596 108.721 60.8663 108.678C61.6343 108.252 62.4023 107.836 63.1703 107.43C63.9596 107.004 64.7383 106.577 65.5063 106.15C65.8263 105.98 66.1036 105.852 66.3383 105.766C66.5943 105.681 66.8609 105.681 67.1383 105.766C67.4156 105.852 67.6396 106.012 67.8103 106.246C68.0236 106.481 68.1516 106.748 68.1943 107.046C68.2583 107.324 68.2049 107.58 68.0343 107.814C67.9276 107.964 67.8103 108.113 67.6823 108.262C67.5756 108.39 67.4369 108.497 67.2663 108.582C65.2823 109.67 63.2556 110.748 61.1863 111.814C60.9303 111.921 60.6529 112.017 60.3543 112.102C60.0556 112.166 59.7569 112.241 59.4583 112.326C59.4156 112.561 59.3729 112.796 59.3303 113.03C59.2876 113.265 59.2449 113.51 59.2023 113.766C59.0956 114.321 58.9889 114.865 58.8823 115.398C58.7756 115.953 58.6689 116.497 58.5623 117.03C58.4983 117.521 58.3489 118.022 58.1143 118.534C58.0076 118.876 57.7943 119.11 57.4743 119.238C57.1543 119.388 56.8023 119.43 56.4183 119.366C56.0983 119.324 55.8209 119.185 55.5863 118.95C55.3516 118.737 55.1809 118.428 55.0743 118.022C54.9036 117.468 54.8076 116.913 54.7863 116.358C54.7436 115.804 54.7116 115.249 54.6903 114.694C54.6476 112.881 54.6689 111.089 54.7543 109.318C54.8396 107.548 54.9356 105.766 55.0423 103.974C55.1703 101.542 55.2983 99.1315 55.4263 96.7422C55.5756 94.3315 55.7036 91.9102 55.8103 89.4782C55.8529 89.0729 55.8743 88.6782 55.8743 88.2942C55.8743 87.9102 55.8743 87.5155 55.8743 87.1102C55.8743 86.8969 55.9063 86.6942 55.9703 86.5022C56.1409 85.8409 56.5569 85.5315 57.2183 85.5742C57.5169 85.5742 57.7836 85.6702 58.0183 85.8622C58.2743 86.0542 58.4556 86.2995 58.5623 86.5982C58.6049 86.7475 58.6369 86.8969 58.6583 87.0462C58.6796 87.1742 58.7009 87.3022 58.7223 87.4302C58.6796 88.6889 58.6476 89.9475 58.6263 91.2062C58.6049 92.4435 58.5729 93.6915 58.5303 94.9502C58.4876 96.0169 58.4236 97.0729 58.3383 98.1182C58.2743 99.1635 58.2103 100.22 58.1463 101.286V101.862C58.1676 101.884 58.1996 101.894 58.2423 101.894Z" fill="#064102"/>
<path d="M44.9594 103.242C43.9141 104.223 43.0287 105.268 42.3034 106.378C41.5994 107.487 41.1727 108.778 41.0234 110.25C41.0234 110.783 41.0874 111.284 41.2154 111.754C41.3007 112.095 41.4181 112.319 41.5674 112.426C41.7167 112.511 41.9621 112.511 42.3034 112.426C42.7087 112.34 43.1141 112.244 43.5194 112.138C43.9247 112.031 44.3087 111.892 44.6714 111.722C45.8874 111.252 46.9861 110.676 47.9674 109.994C48.9701 109.29 49.9087 108.49 50.7834 107.594C50.9541 107.402 51.1354 107.22 51.3274 107.05C51.5194 106.879 51.7114 106.708 51.9034 106.538C52.0527 106.388 52.2127 106.282 52.3834 106.218C52.6394 106.068 52.9061 106.015 53.1834 106.058C53.4607 106.1 53.7167 106.228 53.9514 106.442C54.1647 106.676 54.3034 106.932 54.3674 107.21C54.4314 107.487 54.3994 107.754 54.2714 108.01C54.1647 108.223 54.0367 108.426 53.8874 108.618C53.7594 108.788 53.6207 108.959 53.4714 109.13C52.7034 110.047 51.8501 110.879 50.9114 111.626C49.9727 112.351 48.9701 112.991 47.9034 113.546C47.1781 113.93 46.4314 114.271 45.6634 114.57C44.9167 114.868 44.1381 115.092 43.3274 115.242C43.0927 115.284 42.8687 115.316 42.6554 115.338C42.4421 115.38 42.2181 115.391 41.9834 115.37C41.1301 115.306 40.3834 115.007 39.7434 114.474C39.1247 113.94 38.6767 113.226 38.3994 112.33C38.1647 111.519 38.0687 110.719 38.1114 109.93C38.1754 109.14 38.3247 108.362 38.5594 107.594C38.9221 106.378 39.4341 105.268 40.0954 104.266C40.7567 103.242 41.5354 102.303 42.4314 101.45C42.9221 101.002 43.4234 100.586 43.9354 100.202C44.4474 99.8176 44.9914 99.4762 45.5674 99.1776C45.9087 99.0069 46.2501 98.8682 46.5914 98.7616C46.9327 98.6549 47.2954 98.6016 47.6794 98.6016C48.0421 98.6016 48.3727 98.6762 48.6714 98.8256C48.9914 98.9749 49.2581 99.1669 49.4714 99.4016C49.6847 99.6362 49.8341 99.9136 49.9194 100.234C50.0047 100.554 50.0154 100.884 49.9514 101.226C49.8447 101.844 49.6101 102.367 49.2474 102.794C48.9487 103.178 48.6287 103.54 48.2874 103.882C47.9674 104.223 47.6367 104.575 47.2954 104.938C47.2527 104.98 47.2207 105.012 47.1994 105.034C47.1781 105.034 47.1461 105.055 47.1034 105.098C46.5061 105.482 45.9514 105.482 45.4394 105.098C44.9274 104.714 44.7674 104.191 44.9594 103.53V103.242Z" fill="#064102"/>
<path d="M32.585 116.905C32.521 116.393 32.457 115.881 32.393 115.369C32.329 114.878 32.2757 114.377 32.233 113.865C32.1263 111.86 32.0623 109.876 32.041 107.913C32.041 105.95 32.1477 103.988 32.361 102.025C32.3823 101.94 32.393 101.865 32.393 101.801C32.393 101.716 32.4037 101.62 32.425 101.513C32.5103 101.236 32.6597 101.022 32.873 100.873C33.1077 100.702 33.3743 100.628 33.673 100.649C33.9717 100.692 34.2383 100.798 34.473 100.969C34.729 101.14 34.889 101.374 34.953 101.673C35.017 101.908 35.049 102.164 35.049 102.441C35.0703 102.697 35.0917 102.964 35.113 103.241C35.113 103.433 35.1023 103.636 35.081 103.849C35.0597 104.041 35.049 104.244 35.049 104.457C35.0063 105.972 34.985 107.476 34.985 108.969C34.985 110.462 35.0383 111.977 35.145 113.513C35.209 114.068 35.273 114.622 35.337 115.177C35.4223 115.753 35.497 116.318 35.561 116.873C35.6463 117.257 35.6143 117.588 35.465 117.865C35.3157 118.142 35.0597 118.324 34.697 118.409C34.4197 118.494 34.1423 118.484 33.865 118.377C33.5877 118.292 33.353 118.121 33.161 117.865C33.033 117.716 32.9263 117.556 32.841 117.385C32.777 117.236 32.6917 117.076 32.585 116.905ZM33.001 93.3211C33.1717 93.2784 33.3743 93.2784 33.609 93.3211C33.865 93.3637 34.1103 93.4277 34.345 93.5131C34.5797 93.5984 34.793 93.7051 34.985 93.8331C35.177 93.9611 35.3157 94.0891 35.401 94.2171C35.593 94.4731 35.689 94.7504 35.689 95.0491C35.689 95.3477 35.5717 95.6037 35.337 95.8171C35.1877 95.9237 35.0383 96.0197 34.889 96.1051C34.761 96.1904 34.6117 96.2757 34.441 96.3611C34.3557 96.4464 34.2063 96.4891 33.993 96.4891C33.3317 96.5104 32.8197 96.1477 32.457 95.4011C32.0943 94.5051 32.1477 93.8757 32.617 93.5131C32.7023 93.4704 32.777 93.4384 32.841 93.4171C32.905 93.3744 32.9583 93.3424 33.001 93.3211Z" fill="#064102"/>
<path d="M20.3103 114.056C20.4169 113.907 20.5236 113.768 20.6303 113.64C20.7369 113.491 20.8223 113.331 20.8863 113.16C21.2063 112.477 21.5263 111.795 21.8463 111.112C22.1663 110.429 22.4756 109.747 22.7743 109.064C23.2009 108.04 23.6383 107.027 24.0863 106.024C24.5343 105 25.0143 104.008 25.5263 103.048C25.6116 102.941 25.6756 102.835 25.7183 102.728C25.7823 102.621 25.8569 102.515 25.9423 102.408C26.3049 101.96 26.7849 101.832 27.3823 102.024C27.9583 102.195 28.3316 102.579 28.5023 103.176C28.5876 103.539 28.5769 103.955 28.4703 104.424C28.2996 105.171 28.1289 105.917 27.9583 106.664C27.7876 107.411 27.6169 108.168 27.4463 108.936C26.8916 111.752 26.8063 114.6 27.1903 117.48C27.2329 117.843 27.2969 118.195 27.3823 118.536C27.4676 118.877 27.6169 119.208 27.8303 119.528C27.9369 119.763 28.0223 119.976 28.0863 120.168C28.1289 120.403 28.1076 120.616 28.0223 120.808C27.9583 121.021 27.8409 121.192 27.6703 121.32C27.5209 121.448 27.3396 121.523 27.1263 121.544C26.9129 121.587 26.6783 121.565 26.4223 121.48C25.7183 121.203 25.2489 120.744 25.0143 120.104C24.8649 119.763 24.7263 119.421 24.5983 119.08C24.4916 118.76 24.4169 118.429 24.3743 118.088C24.2676 117.448 24.1929 116.808 24.1503 116.168C24.1289 115.528 24.0969 114.888 24.0543 114.248V113.768C23.9476 113.917 23.8623 114.045 23.7983 114.152C23.7556 114.237 23.7129 114.333 23.6703 114.44C23.4569 114.739 23.2436 115.037 23.0303 115.336C22.8383 115.656 22.6249 115.965 22.3903 116.264C22.2409 116.456 22.0596 116.627 21.8463 116.776C21.6329 116.947 21.4089 117.085 21.1743 117.192C20.5983 117.491 20.0116 117.533 19.4143 117.32C18.8383 117.128 18.3583 116.723 17.9743 116.104C17.7183 115.699 17.5369 115.283 17.4303 114.856C17.3449 114.429 17.2809 113.992 17.2383 113.544C17.1743 112.84 17.1636 112.147 17.2063 111.464C17.2489 110.781 17.3236 110.099 17.4303 109.416C17.4516 109.309 17.4623 109.203 17.4623 109.096C17.4836 108.989 17.4729 108.883 17.4303 108.776C17.3449 108.541 17.3129 108.317 17.3343 108.104C17.3769 107.869 17.4409 107.645 17.5263 107.432C17.6116 107.24 17.6756 107.037 17.7183 106.824C17.7823 106.611 17.8569 106.397 17.9423 106.184C17.9849 106.077 18.0383 105.971 18.1023 105.864C18.1663 105.736 18.2516 105.629 18.3583 105.544C18.5289 105.395 18.7209 105.309 18.9343 105.288C19.1689 105.245 19.3929 105.267 19.6063 105.352C19.8409 105.416 20.0436 105.544 20.2143 105.736C20.3849 105.907 20.5023 106.12 20.5663 106.376C20.6729 106.696 20.6943 107.069 20.6303 107.496C20.5449 108.328 20.4489 109.16 20.3423 109.992C20.2569 110.824 20.1716 111.656 20.0863 112.488C20.0649 112.744 20.0649 113 20.0863 113.256C20.1289 113.512 20.2036 113.779 20.3103 114.056Z" fill="#064102"/>
</svg>
