<svg width="214" height="122" viewBox="0 0 214 122" fill="none" xmlns="http://www.w3.org/2000/svg">
<path fill-rule="evenodd" clip-rule="evenodd" d="M69.6962 35.2866C69.6962 54.5007 54.1237 70.0732 34.9096 70.0732C15.6956 70.0732 0.123047 54.5007 0.123047 35.2866C0.123047 16.0726 15.6956 0.5 34.9096 0.5C54.1237 0.5 69.6962 16.0726 69.6962 35.2866ZM48.965 62.5429C48.907 62.5236 48.8346 62.4946 48.7573 62.4656C48.2839 62.2821 47.9023 61.9971 47.6512 61.6252C47.0667 62.3256 46.2842 62.8327 45.4535 63.1515C46.2795 63.1902 47.0475 63.4365 47.5643 63.9968C47.8492 63.4896 48.3371 62.9873 48.965 62.5429ZM49.646 56.5198C49.6267 56.5101 49.6122 56.5005 49.5929 56.4908C49.1872 56.2396 48.6076 55.7518 48.3178 54.8727C47.9942 55.4813 47.5498 56.0223 46.7094 56.5874C46.3954 56.7951 46.0332 56.9689 45.6419 57.0993C46.5645 57.2346 47.3469 57.6596 47.8783 58.3551C48.3033 57.6403 48.9167 57.0028 49.646 56.5198ZM56.0459 55.1576C55.8721 54.9886 55.7175 54.7954 55.5919 54.578C55.3746 54.8582 55.1669 55.09 54.9447 55.3122C54.7177 55.5392 54.4907 55.7421 54.2105 55.9594C54.4279 56.085 54.6211 56.2396 54.7901 56.4135C54.9833 56.1816 55.1862 55.9449 55.3891 55.7469C55.5774 55.5585 55.8093 55.3508 56.0459 55.1576ZM57.9683 48.2555C57.2776 47.7241 56.8478 46.9417 56.7125 46.0191C56.5821 46.4152 56.4083 46.7774 56.2006 47.0866C55.6403 47.927 55.0993 48.3714 54.4859 48.695C55.365 48.9848 55.8577 49.5693 56.104 49.9701C56.1137 49.9846 56.1233 50.0039 56.133 50.0232C56.6256 49.2987 57.2631 48.6806 57.9683 48.2555ZM63.6195 47.9415C63.0593 47.4247 62.8129 46.6518 62.7743 45.8308C62.4603 46.6664 61.9532 47.4441 61.2479 48.0284C61.615 48.2844 61.9048 48.6612 62.0884 49.1345C62.1174 49.2118 62.1463 49.2794 62.1657 49.3422C62.61 48.7143 63.1123 48.2265 63.6195 47.9415ZM64.3489 26.8146C64.3875 26.0949 64.6145 25.5974 64.9816 25.351C60.8036 12.735 48.912 3.59596 34.9098 3.59596C17.4343 3.59596 3.21944 17.8108 3.21944 35.2864C3.21944 49.2886 12.3579 61.18 24.9745 65.3582C25.2208 64.9911 25.7183 64.7641 26.438 64.7254C27.8677 64.6482 29.7804 65.3244 30.2441 66.416C30.2682 66.4788 30.2682 66.5367 30.2827 66.5995C31.07 66.7155 31.8573 66.8072 32.6592 66.8604C32.6399 66.8121 32.6254 66.7686 32.6157 66.7348L32.6109 66.7058C32.5916 66.5561 32.5674 66.3484 32.6592 66.102C33.0456 65.0829 34.485 64.6433 35.7069 64.5709C37.1512 64.4839 38.8513 64.8703 39.3971 65.9282C39.4889 66.1021 39.5324 66.2856 39.5324 66.4595C39.5324 66.5078 39.5131 66.5513 39.5082 66.5948C39.7691 66.5561 40.0299 66.5223 40.2907 66.474C40.2521 66.3774 40.2328 66.2856 40.2134 66.218L40.2086 66.16C40.2086 66.1021 40.2038 66.0441 40.2086 65.991C40.2907 64.9235 41.6334 64.0058 42.9714 63.5373C42.445 63.5083 41.9523 63.402 41.532 63.2233C40.0105 62.5664 39.9719 61.3975 39.9623 60.9338L39.972 60.8324C39.9816 60.7503 39.9864 60.6633 39.9961 60.5957C40.2762 58.9824 41.875 57.7652 43.4545 57.2822C42.9232 57.2049 42.4015 57.0214 41.933 56.7123C40.513 55.7752 40.4984 54.3406 40.4935 53.8528C40.5467 53.3409 40.6723 52.1382 41.8991 50.9934C43.9373 49.0903 45.9418 49.67 46.7098 50.0081C47.5986 50.3993 48.3135 51.0852 48.5742 51.742C48.8544 51.1286 49.2505 50.5683 49.719 50.0998C50.1923 49.6265 50.7478 49.2353 51.3612 48.9551C50.7043 48.6991 50.0184 47.9843 49.6272 47.0907C49.2891 46.3227 48.7095 44.323 50.6126 42.28C51.7573 41.0531 52.9551 40.9275 53.472 40.8744C53.9598 40.8793 55.3944 40.8937 56.3314 42.3138C56.6405 42.7824 56.8241 43.304 56.9014 43.8354C57.3844 42.2512 58.6016 40.6572 60.2148 40.377C60.2824 40.3625 60.3694 40.3577 60.4515 40.3528L60.5529 40.3432C61.0118 40.3577 62.1855 40.3963 62.8424 41.9129C63.0212 42.3331 63.1274 42.8258 63.1564 43.3523C63.6249 42.0144 64.5427 40.6668 65.6101 40.5895C65.6633 40.5846 65.7212 40.5895 65.7792 40.5895L65.8372 40.5943C65.9049 40.6088 65.9965 40.6329 66.0931 40.6716C66.1366 40.4156 66.1753 40.1499 66.2139 39.8891C66.1656 39.8939 66.1222 39.9133 66.0788 39.9133C65.9 39.9133 65.7212 39.8698 65.5473 39.778C64.4895 39.2274 64.1031 37.5272 64.19 36.0878C64.2625 34.8658 64.702 33.4265 65.7212 33.0401C65.9675 32.9434 66.1753 32.9724 66.3251 32.9917L66.354 32.9966C66.3878 33.0062 66.4312 33.0207 66.4795 33.0401C66.4215 32.2383 66.3347 31.4461 66.2188 30.6636C66.1608 30.6491 66.0979 30.6491 66.0351 30.625C64.9484 30.1613 64.2716 28.2442 64.3489 26.8146ZM27.0991 58.6064C25.8385 58.3069 24.7082 58.5871 24.1576 59.3309C23.8581 59.7366 23.8533 60.123 23.8581 60.3597C23.8968 60.6495 24.0079 61.461 25.0464 62.1855C26.4085 63.137 28.0168 63.0646 28.9056 62.5043C29.4273 62.1759 29.6977 61.6977 29.6977 61.1422C29.6977 61.0456 29.6881 60.9393 29.6736 60.833C29.4756 59.669 28.239 58.8769 27.0991 58.6064ZM28.3598 55.6165C29.1809 55.2108 29.6543 54.4573 29.6543 53.5831C29.6543 53.5154 29.6494 53.4478 29.6446 53.3802C29.5528 52.2403 28.7172 51.2453 27.5145 50.8492C26.3359 50.458 25.1477 50.7333 24.4087 51.5641C23.9354 52.1002 23.8871 52.6267 23.8581 52.9358C23.8629 53.2643 23.8774 54.2109 24.8338 55.0611C25.9834 56.0899 27.4324 56.0802 28.3598 55.6165ZM18.3228 57.336C17.5886 57.0075 16.9173 57.0365 16.526 57.4133C16.2362 57.6886 16.241 58.017 16.241 58.2151C16.2652 58.4228 16.3425 58.9975 17.0042 59.6302C17.7432 60.3403 18.772 60.6591 19.4483 60.3886C19.8154 60.2437 20.0279 59.9394 20.0424 59.5336V59.4757C20.0424 58.5773 19.1873 57.7272 18.3228 57.336ZM53.008 30.0216C53.0756 30.0264 53.1433 30.0312 53.2109 30.0312C54.0851 30.0312 54.8338 29.5579 55.2443 28.7367C55.708 27.8093 55.7177 26.3603 54.6937 25.2107C53.8436 24.2544 52.8969 24.2399 52.5684 24.235C52.2544 24.264 51.7328 24.3172 51.1966 24.7857C50.361 25.5198 50.0857 26.7129 50.4817 27.8914C50.873 29.0941 51.8633 29.9297 53.008 30.0216ZM60.8424 32.3207H60.8134C60.4946 32.34 60.1662 32.3545 59.7073 32.6202C58.2149 33.4751 57.7656 35.4989 57.983 37.0156C58.1955 38.5129 58.978 39.5659 60.0793 39.8315C60.2483 39.875 60.4174 39.8895 60.5864 39.8895C61.3013 39.8895 61.9823 39.5224 62.5185 38.8365C63.4265 37.6628 63.8564 35.5521 62.9194 33.7939C62.1997 32.4464 61.1756 32.3497 60.8424 32.3207ZM36.6341 58.3603C35.1174 58.143 33.0984 58.5922 32.2387 60.0846C31.973 60.5435 31.9585 60.8767 31.9392 61.1907V61.2197C31.9682 61.553 32.0648 62.577 33.4124 63.2966C35.1754 64.2337 37.2861 63.8038 38.455 62.8957C39.1409 62.3644 39.5079 61.6786 39.5079 60.9637C39.5079 60.7946 39.4886 60.6256 39.45 60.4565C39.1843 59.3601 38.1314 58.5729 36.6341 58.3603ZM58.9543 24.5357C58.2056 25.0863 57.9303 26.2166 58.2297 27.4772C58.5002 28.6171 59.2924 29.8537 60.4613 30.0516C60.5675 30.0709 60.669 30.0758 60.7704 30.0758C61.3258 30.0758 61.804 29.8004 62.1325 29.2836C62.6928 28.3949 62.7653 26.7865 61.8137 25.4244C61.0892 24.3907 60.2729 24.2748 59.9879 24.2362C59.7464 24.2265 59.36 24.2314 58.9543 24.5357ZM59.1571 20.4205C59.5628 20.4012 59.8623 20.1935 60.012 19.8264C60.2825 19.1501 59.9637 18.1262 59.2537 17.3823C58.621 16.7206 58.0462 16.6433 57.8385 16.6191C57.6453 16.6191 57.3169 16.6095 57.0367 16.9041C56.66 17.2954 56.631 17.9667 56.9595 18.7009C57.3507 19.5655 58.2008 20.4204 59.0992 20.4204L59.1571 20.4205ZM34.0264 47.8363C35.118 48.754 36.6202 48.9279 37.8519 48.271C38.9048 47.7107 39.5279 46.677 39.5279 45.513C39.5279 45.397 39.5231 45.2811 39.5086 45.1652C39.3686 43.8321 38.4653 42.7502 37.1564 42.3299C35.8619 41.9193 34.5144 42.2719 33.645 43.2573C32.9446 44.0542 32.8818 44.8802 32.8529 45.2811C32.8674 45.6916 32.9058 46.8944 34.0264 47.8363ZM36.8617 50.6522C35.2195 50.3237 33.6062 50.9468 32.7609 52.2462C32.3359 52.8982 32.2827 53.4827 32.2489 53.8304C32.2586 54.2554 32.2924 55.4822 33.5434 56.3951C35.0407 57.4819 36.9149 57.2114 38.0982 56.4579C39.1174 55.8155 39.6874 54.8495 39.6874 53.8062C39.6874 53.6275 39.6681 53.444 39.6343 53.2604C39.3928 51.9466 38.33 50.9468 36.8617 50.6522ZM45.1308 41.6392C44.6478 41.6633 43.6432 41.7164 42.6433 42.5182C42.5467 42.5955 42.4646 42.6776 42.3825 42.7597C42.3004 42.8419 42.2183 42.9288 42.141 43.0206C41.3392 44.0156 41.2861 45.0251 41.2619 45.508C41.2812 45.9911 41.3489 47.4208 42.6337 48.4496C43.7639 49.3528 45.295 49.4832 46.6234 48.7828C47.0147 48.58 47.3431 48.3192 47.6426 48.0197C47.942 47.7202 48.2028 47.3918 48.4057 47.0005C49.1061 45.6675 48.9757 44.1411 48.0724 43.0108C47.0436 41.726 45.6138 41.6584 45.1308 41.6392ZM53.4531 32.6261C53.1053 32.6551 52.5209 32.7131 51.8689 33.1381C50.5744 33.9882 49.9465 35.5967 50.2749 37.2389C50.5647 38.7072 51.5694 39.7699 52.8832 40.0162C53.0668 40.05 53.2503 40.0693 53.429 40.0693C54.4723 40.0693 55.4383 39.4994 56.0807 38.4802C56.8342 37.292 57.1047 35.4227 56.0179 33.9254C55.105 32.6696 53.8781 32.6358 53.4531 32.6261ZM44.7927 39.8858C44.9087 39.9003 45.0246 39.9051 45.1405 39.9051C46.2997 39.9051 47.3382 39.282 47.8985 38.229C48.5506 36.9925 48.3815 35.4904 47.4638 34.4035C46.5171 33.2829 45.3192 33.2443 44.9087 33.2346C44.5127 33.2636 43.6819 33.3216 42.8849 34.0268C41.8996 34.8962 41.547 36.2438 41.9575 37.5382C42.3729 38.8472 43.4595 39.7458 44.7927 39.8858Z" fill="#064102"/>
<path d="M11.2962 109.443C10.8855 110.147 10.5482 110.778 10.2842 111.335C9.96152 111.834 9.62419 112.303 9.27219 112.743C8.94952 113.212 8.53886 113.623 8.04019 113.975C7.48286 114.386 6.89619 114.694 6.28019 114.899C5.66419 115.104 4.98952 115.09 4.25619 114.855C3.66952 114.679 3.18552 114.4 2.80419 114.019C2.42286 113.638 2.08552 113.198 1.79219 112.699C1.38152 111.936 1.10286 111.174 0.95619 110.411C0.809523 109.619 0.706856 108.812 0.64819 107.991C0.589523 106.788 0.633523 105.615 0.78019 104.471C0.95619 103.327 1.17619 102.183 1.44019 101.039C1.76286 99.6309 2.12952 98.2523 2.54019 96.9029C2.98019 95.5243 3.50819 94.1749 4.12419 92.8549C4.32952 92.4443 4.54952 92.0336 4.78419 91.6229C5.04819 91.2123 5.29752 90.8163 5.53219 90.4349C5.64952 90.2589 5.78152 90.0976 5.92819 89.9509C6.07486 89.8043 6.22152 89.6576 6.36819 89.5109C7.01352 88.9536 7.71752 88.7336 8.48019 88.8509C9.24286 88.9389 9.87352 89.3203 10.3722 89.9949C11.1349 91.0216 11.3549 92.1803 11.0322 93.4709C11.5895 93.7349 12.0442 94.0723 12.3962 94.4829C12.7775 94.8643 13.0709 95.2896 13.2762 95.7589C13.4815 96.2283 13.6282 96.7269 13.7162 97.2549C13.8042 97.7829 13.8629 98.3256 13.8922 98.8829C13.9215 99.8216 13.8482 100.746 13.6722 101.655C13.4962 102.564 13.2615 103.488 12.9682 104.427C12.8802 104.75 12.8509 105.028 12.8802 105.263C12.9389 105.468 13.1002 105.688 13.3642 105.923C13.8922 106.422 14.3909 106.92 14.8602 107.419C15.3589 107.888 15.8575 108.372 16.3562 108.871C16.6495 109.135 16.9282 109.414 17.1922 109.707C17.9255 110.587 17.9989 111.423 17.4122 112.215C17.0895 112.596 16.7082 112.816 16.2682 112.875C15.8575 112.963 15.4029 112.846 14.9042 112.523C14.4935 112.288 14.0975 112.024 13.7162 111.731C13.3642 111.438 13.0122 111.13 12.6602 110.807C12.4255 110.602 12.2055 110.396 12.0002 110.191C11.7949 109.956 11.5602 109.707 11.2962 109.443ZM8.04019 93.8669L7.90819 94.1309C7.05752 96.0376 6.35352 97.9736 5.79619 99.9389C5.23886 101.875 4.85752 103.884 4.65219 105.967C4.59352 106.642 4.57886 107.302 4.60819 107.947C4.63752 108.592 4.75486 109.238 4.96019 109.883C5.01886 110.059 5.07752 110.235 5.13619 110.411C5.22419 110.587 5.31219 110.792 5.40019 111.027C5.57619 110.88 5.72286 110.748 5.84019 110.631C5.95752 110.514 6.07486 110.396 6.19219 110.279C6.63219 109.722 6.98419 109.15 7.24819 108.563C7.54152 107.947 7.80552 107.331 8.04019 106.715C8.24552 106.304 8.11352 106.04 7.64419 105.923C7.11619 105.776 6.70552 105.527 6.41219 105.175C6.14819 104.794 5.86952 104.412 5.57619 104.031C5.19486 103.444 5.22419 102.814 5.66419 102.139C6.10419 101.494 6.69086 101.244 7.42419 101.391C7.80552 101.479 8.21619 101.64 8.65619 101.875C8.80286 101.934 8.93486 102.007 9.05219 102.095C9.16952 102.154 9.30152 102.227 9.44819 102.315C9.62419 101.64 9.75619 100.995 9.84419 100.379C9.93219 99.7336 9.94686 99.0736 9.88819 98.3989C9.82952 98.0763 9.74152 97.7976 9.62419 97.5629C9.53619 97.2989 9.36019 97.0496 9.09619 96.8149C8.83219 96.5509 8.67086 96.2576 8.61219 95.9349C8.55352 95.6123 8.56819 95.2603 8.65619 94.8789C8.65619 94.7909 8.67086 94.7029 8.70019 94.6149C8.72952 94.5269 8.75886 94.4389 8.78819 94.3509C8.64152 94.2629 8.50952 94.1896 8.39219 94.1309C8.27486 94.0429 8.15752 93.9549 8.04019 93.8669Z" fill="#064102"/>
<path d="M138.148 108.9C138.404 108.708 138.692 108.676 139.012 108.804C139.332 108.911 139.588 109.103 139.78 109.38C139.994 109.636 140.1 109.956 140.1 110.34C140.1 110.724 139.919 111.098 139.556 111.46C138.831 112.186 138.084 112.9 137.316 113.604C136.548 114.308 135.748 114.97 134.916 115.588C134.554 115.866 134.18 116.111 133.796 116.324C133.412 116.538 132.996 116.698 132.548 116.804C131.972 116.911 131.418 116.847 130.884 116.612C130.372 116.399 129.935 116.026 129.572 115.492C129.274 115.044 129.071 114.575 128.964 114.084C128.858 113.615 128.783 113.135 128.74 112.644C128.676 112.026 128.666 111.418 128.708 110.82C128.772 110.223 128.879 109.636 129.028 109.06C129.434 107.375 130.01 105.796 130.756 104.324C131.503 102.852 132.484 101.498 133.7 100.26C133.85 100.09 134.02 99.9404 134.212 99.8124C134.404 99.6631 134.596 99.5137 134.788 99.3644C135.044 99.1724 135.343 99.0231 135.684 98.9164C136.068 98.7671 136.442 98.7137 136.804 98.7564C137.167 98.7991 137.487 98.9164 137.764 99.1084C138.063 99.2791 138.298 99.5351 138.468 99.8764C138.66 100.196 138.778 100.57 138.82 100.996C138.82 101.252 138.799 101.519 138.756 101.796C138.714 102.074 138.66 102.34 138.596 102.596C138.276 103.684 137.818 104.655 137.22 105.508C136.623 106.34 135.898 107.098 135.044 107.78C134.788 107.972 134.522 108.164 134.244 108.356C133.988 108.548 133.711 108.73 133.412 108.9C133.178 109.071 132.911 109.21 132.612 109.316C132.335 109.423 132.036 109.551 131.716 109.7C131.546 110.895 131.567 111.748 131.78 112.26C131.994 112.751 132.303 113.018 132.708 113.06C133.114 113.103 133.594 112.964 134.148 112.644C134.703 112.324 135.247 111.94 135.78 111.492C136.314 111.044 136.794 110.575 137.22 110.084C137.647 109.594 137.956 109.199 138.148 108.9ZM133.412 105.444C134.5 104.612 135.268 103.567 135.716 102.308C135.226 102.735 134.788 103.215 134.404 103.748C134.042 104.282 133.711 104.847 133.412 105.444Z" fill="#064102"/>
<path d="M111.968 109.189C112.032 109.082 112.086 108.976 112.128 108.869C112.171 108.762 112.214 108.656 112.256 108.549C112.683 107.12 113.11 105.722 113.536 104.357C113.984 102.97 114.432 101.573 114.88 100.165C114.966 99.9091 115.04 99.6531 115.104 99.3971C115.19 99.1198 115.286 98.8531 115.392 98.5971C115.435 98.4905 115.488 98.3838 115.552 98.2771C115.616 98.1705 115.691 98.0638 115.776 97.9571C116.118 97.4238 116.64 97.2531 117.344 97.4451C117.984 97.7011 118.368 98.1491 118.496 98.7891C118.539 99.1518 118.539 99.5145 118.496 99.8771C118.432 100.794 118.358 101.69 118.272 102.565C118.208 103.418 118.144 104.293 118.08 105.189C118.059 105.552 118.048 105.925 118.048 106.309C118.048 106.693 118.038 107.088 118.016 107.493C118.08 107.493 118.123 107.504 118.144 107.525C118.187 107.418 118.23 107.333 118.272 107.269C118.336 107.184 118.39 107.098 118.432 107.013C118.795 106.096 119.136 105.189 119.456 104.293C119.798 103.397 120.139 102.501 120.48 101.605C120.843 100.666 121.195 99.7491 121.536 98.8531C121.899 97.9358 122.262 97.0185 122.624 96.1011C122.731 95.8665 122.848 95.6211 122.976 95.3651C123.126 95.1091 123.264 94.8531 123.392 94.5971C123.52 94.3198 123.691 94.0958 123.904 93.9251C124.118 93.7118 124.363 93.5838 124.64 93.5411C124.918 93.4771 125.184 93.4878 125.44 93.5731C125.696 93.6371 125.931 93.7758 126.144 93.9891C126.358 94.1811 126.518 94.4265 126.624 94.7251C126.688 94.9171 126.731 95.1198 126.752 95.3331C126.774 95.5465 126.795 95.7598 126.816 95.9731C126.774 96.6985 126.71 97.4131 126.624 98.1171C126.539 98.8211 126.475 99.5358 126.432 100.261C126.262 102.096 126.134 103.93 126.048 105.765C125.963 107.578 125.974 109.424 126.08 111.301C126.123 112.261 126.219 113.21 126.368 114.149C126.518 115.088 126.763 116.016 127.104 116.933C127.147 117.061 127.179 117.189 127.2 117.317C127.222 117.445 127.243 117.584 127.264 117.733C127.371 118.074 127.35 118.362 127.2 118.597C127.072 118.853 126.859 119.034 126.56 119.141C126.24 119.248 125.92 119.237 125.6 119.109C125.302 119.002 125.056 118.778 124.864 118.437C124.694 118.117 124.523 117.786 124.352 117.445C124.203 117.104 124.054 116.752 123.904 116.389C123.734 115.77 123.595 115.162 123.488 114.565C123.403 113.989 123.328 113.392 123.264 112.773C123.115 111.28 123.04 109.797 123.04 108.325C123.062 106.853 123.104 105.381 123.168 103.909C123.19 103.738 123.158 103.514 123.072 103.237C123.051 103.344 123.019 103.429 122.976 103.493C122.955 103.557 122.944 103.621 122.944 103.685C122.603 104.517 122.272 105.36 121.952 106.213C121.654 107.066 121.323 107.898 120.96 108.709C120.832 109.072 120.672 109.413 120.48 109.733C120.288 110.032 120.086 110.33 119.872 110.629C119.766 110.8 119.616 110.97 119.424 111.141C119.254 111.29 119.083 111.44 118.912 111.589C118.358 111.952 117.771 112.037 117.152 111.845C116.534 111.632 116.075 111.194 115.776 110.533C115.67 110.32 115.574 110.096 115.488 109.861C115.424 109.626 115.339 109.37 115.232 109.093C115.168 109.349 115.094 109.552 115.008 109.701C114.816 110.128 114.635 110.576 114.464 111.045C114.294 111.514 114.08 111.973 113.824 112.421C113.718 112.656 113.568 112.88 113.376 113.093C113.206 113.306 113.035 113.53 112.864 113.765C112.566 114.106 112.182 114.309 111.712 114.373C111.222 114.437 110.774 114.352 110.368 114.117C109.963 113.882 109.643 113.52 109.408 113.029C109.238 112.645 109.12 112.261 109.056 111.877C109.014 111.472 108.971 111.077 108.928 110.693C108.886 109.626 108.886 108.581 108.928 107.557C108.992 106.512 109.088 105.466 109.216 104.421C109.387 103.333 109.547 102.256 109.696 101.189C109.846 100.101 110.006 99.0131 110.176 97.9251C110.219 97.7545 110.251 97.6051 110.272 97.4771C110.315 97.3278 110.368 97.1891 110.432 97.0611C110.56 96.7411 110.784 96.5171 111.104 96.3891C111.424 96.2611 111.755 96.2505 112.096 96.3571C112.48 96.4851 112.768 96.7091 112.96 97.0291C113.174 97.3491 113.259 97.6905 113.216 98.0531C113.216 98.2238 113.195 98.3518 113.152 98.4371C112.768 100.144 112.48 101.861 112.288 103.589C112.118 105.296 111.979 107.024 111.872 108.773C111.851 108.837 111.84 108.901 111.84 108.965C111.862 109.008 111.872 109.072 111.872 109.157L111.968 109.189Z" fill="#064102"/>
<path d="M104.296 97.1571C104.403 96.9651 104.499 96.7837 104.584 96.6131C104.691 96.4424 104.787 96.2717 104.872 96.1011C105.085 95.7171 105.373 95.4824 105.736 95.3971C106.141 95.2904 106.525 95.3438 106.888 95.5571C107.251 95.7704 107.485 96.0904 107.592 96.5171C107.763 96.9224 107.763 97.3704 107.592 97.8611C107.059 99.6957 106.611 101.552 106.248 103.429C105.907 105.306 105.608 107.205 105.352 109.125C105.203 110.149 105.096 111.173 105.032 112.197C104.989 113.221 105.032 114.266 105.16 115.333V115.845C105.117 116.57 104.776 116.965 104.136 117.029C103.816 117.072 103.517 117.018 103.24 116.869C102.963 116.72 102.76 116.485 102.632 116.165C102.44 115.568 102.291 114.97 102.184 114.373C102.099 113.605 102.077 112.837 102.12 112.069C102.163 111.301 102.227 110.544 102.312 109.797C102.355 109.434 102.397 109.061 102.44 108.677C102.483 108.293 102.504 107.898 102.504 107.493C102.44 107.6 102.365 107.717 102.28 107.845C101.917 108.464 101.555 109.082 101.192 109.701C100.851 110.32 100.488 110.938 100.104 111.557C99.8908 111.877 99.6561 112.186 99.4001 112.485C99.1441 112.784 98.8881 113.072 98.6321 113.349C98.2054 113.797 97.7041 114.117 97.1281 114.309C96.5734 114.522 96.0188 114.501 95.4641 114.245C94.9308 114.01 94.5148 113.605 94.2161 113.029C93.8748 112.368 93.7041 111.653 93.7041 110.885C93.7254 110.458 93.7468 110.042 93.7681 109.637C93.7894 109.21 93.8428 108.784 93.9281 108.357C94.3121 106.458 94.8881 104.656 95.6561 102.949C96.4241 101.242 97.3841 99.6317 98.5361 98.1171C98.7708 97.8184 99.0268 97.5518 99.3041 97.3171C99.5814 97.0611 99.8588 96.8051 100.136 96.5491C100.179 96.5064 100.232 96.4637 100.296 96.4211C100.36 96.3784 100.424 96.3357 100.488 96.2931C101.853 95.5037 103.123 95.7917 104.296 97.1571ZM96.6481 111.045C96.7974 110.874 96.9254 110.725 97.0321 110.597C97.1388 110.469 97.2454 110.341 97.3521 110.213C97.9921 109.36 98.5574 108.464 99.0481 107.525C99.5388 106.586 100.029 105.637 100.52 104.677C100.584 104.592 100.595 104.442 100.552 104.229C100.445 103.888 100.477 103.504 100.648 103.077C100.776 102.821 100.893 102.565 101 102.309C101.128 102.032 101.235 101.744 101.32 101.445C101.427 101.146 101.512 100.837 101.576 100.517C101.661 100.176 101.747 99.8451 101.832 99.5251C101.832 99.4824 101.821 99.4291 101.8 99.3651C101.8 99.3011 101.8 99.2371 101.8 99.1731C101.437 99.3864 101.053 99.7597 100.648 100.293C100.264 100.805 99.8694 101.424 99.4641 102.149C99.0801 102.853 98.7068 103.621 98.3441 104.453C97.9814 105.264 97.6614 106.074 97.3841 106.885C97.1281 107.674 96.9254 108.442 96.7761 109.189C96.6481 109.914 96.6054 110.533 96.6481 111.045Z" fill="#064102"/>
<path d="M85.856 106.841C85.7974 106.694 85.7534 106.606 85.724 106.577C85.108 105.961 84.7707 105.316 84.712 104.641C84.6827 103.937 84.8147 103.292 85.108 102.705C85.4307 102.118 85.8707 101.62 86.428 101.209C86.9854 100.798 87.572 100.534 88.188 100.417C88.6574 100.329 89.0974 100.344 89.508 100.461C89.9187 100.578 90.2854 100.828 90.608 101.209C91.3414 102.06 91.7227 103.028 91.752 104.113C91.7814 105.697 91.796 107.296 91.796 108.909C91.8254 110.522 91.84 112.121 91.84 113.705V115.773C91.84 116.33 91.6934 116.8 91.4 117.181C91.1067 117.562 90.7107 117.812 90.212 117.929C89.0974 118.105 88.3054 117.621 87.836 116.477C87.6307 115.978 87.5134 115.48 87.484 114.981C87.4547 114.482 87.4254 113.984 87.396 113.485C87.396 113.338 87.3814 113.192 87.352 113.045C87.352 112.898 87.352 112.722 87.352 112.517C87.2054 112.605 87.088 112.678 87 112.737C86.912 112.796 86.8094 112.869 86.692 112.957C85.9587 113.602 85.1227 114.028 84.184 114.233C82.248 114.585 80.6347 113.969 79.344 112.385C78.7574 111.652 78.3174 110.86 78.024 110.009C77.7307 109.129 77.54 108.22 77.452 107.281C77.3054 105.99 77.3347 104.744 77.54 103.541C77.7454 102.338 78.0827 101.136 78.552 99.9329C79.1974 98.2316 79.96 96.6182 80.84 95.0929C81.7494 93.5676 82.82 92.1449 84.052 90.8249C84.7267 90.0622 85.4894 89.3875 86.34 88.8009C87.0147 88.3902 87.748 88.0969 88.54 87.9209C89.5667 87.6862 90.4614 87.8622 91.224 88.4489C92.016 89.0062 92.456 89.7982 92.544 90.8249C92.6027 91.4115 92.6027 91.9982 92.544 92.5849C92.4854 93.1422 92.4267 93.7142 92.368 94.3009C92.3094 94.5649 92.2507 94.8142 92.192 95.0489C92.1334 95.2836 92.0747 95.5182 92.016 95.7529C91.84 96.2516 91.5467 96.6329 91.136 96.8969C90.7254 97.1316 90.2707 97.1902 89.772 97.0729C89.2734 96.9849 88.8774 96.7502 88.584 96.3689C88.2907 95.9876 88.1587 95.5329 88.188 95.0049C88.2174 94.6822 88.2467 94.3596 88.276 94.0369C88.3347 93.6849 88.3934 93.3329 88.452 92.9809C88.188 92.9809 87.9827 93.0542 87.836 93.2009C87.7187 93.3182 87.6014 93.4502 87.484 93.5969C86.9854 94.2715 86.4867 94.9316 85.988 95.5769C85.4894 96.2222 85.0054 96.8969 84.536 97.6009C83.92 98.6276 83.3774 99.6836 82.908 100.769C82.468 101.825 82.16 102.954 81.984 104.157C81.8374 104.92 81.7787 105.682 81.808 106.445C81.8374 107.208 81.9987 107.97 82.292 108.733C82.7907 110.053 83.4654 110.17 84.316 109.085C84.6094 108.733 84.8734 108.366 85.108 107.985C85.372 107.574 85.6214 107.193 85.856 106.841Z" fill="#064102"/>
<path d="M58.8653 100.261C58.972 100.091 59.0573 99.9094 59.1213 99.7174C59.1853 99.5254 59.26 99.344 59.3453 99.1734C59.6227 98.5547 59.9 97.9254 60.1773 97.2854C60.476 96.6454 60.7747 96.016 61.0733 95.3974C61.2013 95.0987 61.4253 94.8 61.7453 94.5014C62.1933 94.1174 62.7267 94.1067 63.3453 94.4694C63.6227 94.64 63.8253 94.8427 63.9533 95.0774C64.1027 95.312 64.156 95.5894 64.1133 95.9094C64.1133 96.144 64.0813 96.368 64.0173 96.5814C63.9747 96.7734 63.9107 96.9867 63.8253 97.2214C63.4627 98.4374 63.0787 99.6534 62.6733 100.869C62.2893 102.085 61.9053 103.312 61.5213 104.549C61.4147 104.912 61.308 105.275 61.2013 105.637C61.116 106 61.02 106.363 60.9133 106.725C60.9133 106.832 60.8813 107.045 60.8173 107.365C60.9667 107.301 61.084 107.248 61.1693 107.205C61.276 107.141 61.3827 107.088 61.4893 107.045C62.2573 106.619 63.0253 106.203 63.7933 105.797C64.5827 105.371 65.3613 104.944 66.1293 104.517C66.4493 104.347 66.7267 104.219 66.9613 104.133C67.2173 104.048 67.484 104.048 67.7613 104.133C68.0387 104.219 68.2627 104.379 68.4333 104.613C68.6467 104.848 68.7747 105.115 68.8173 105.413C68.8813 105.691 68.828 105.947 68.6573 106.181C68.5507 106.331 68.4333 106.48 68.3053 106.629C68.1987 106.757 68.06 106.864 67.8893 106.949C65.9053 108.037 63.8787 109.115 61.8093 110.181C61.5533 110.288 61.276 110.384 60.9773 110.469C60.6787 110.533 60.38 110.608 60.0813 110.693C60.0387 110.928 59.996 111.163 59.9533 111.397C59.9107 111.632 59.868 111.877 59.8253 112.133C59.7187 112.688 59.612 113.232 59.5053 113.765C59.3987 114.32 59.292 114.864 59.1853 115.397C59.1213 115.888 58.972 116.389 58.7373 116.901C58.6307 117.243 58.4173 117.477 58.0973 117.605C57.7773 117.755 57.4253 117.797 57.0413 117.733C56.7213 117.691 56.444 117.552 56.2093 117.317C55.9747 117.104 55.804 116.795 55.6973 116.389C55.5267 115.835 55.4307 115.28 55.4093 114.725C55.3667 114.171 55.3347 113.616 55.3133 113.061C55.2707 111.248 55.292 109.456 55.3773 107.685C55.4627 105.915 55.5587 104.133 55.6653 102.341C55.7933 99.9094 55.9213 97.4987 56.0493 95.1094C56.1987 92.6987 56.3267 90.2774 56.4333 87.8454C56.476 87.44 56.4973 87.0454 56.4973 86.6614C56.4973 86.2774 56.4973 85.8827 56.4973 85.4774C56.4973 85.264 56.5293 85.0614 56.5933 84.8694C56.764 84.208 57.18 83.8987 57.8413 83.9414C58.14 83.9414 58.4067 84.0374 58.6413 84.2294C58.8973 84.4214 59.0787 84.6667 59.1853 84.9654C59.228 85.1147 59.26 85.264 59.2813 85.4134C59.3027 85.5414 59.324 85.6694 59.3453 85.7974C59.3027 87.056 59.2707 88.3147 59.2493 89.5734C59.228 90.8107 59.196 92.0587 59.1533 93.3174C59.1107 94.384 59.0467 95.44 58.9613 96.4854C58.8973 97.5307 58.8333 98.5867 58.7693 99.6534V100.229C58.7907 100.251 58.8227 100.261 58.8653 100.261Z" fill="#064102"/>
<path d="M45.5825 101.609C44.5371 102.59 43.6518 103.635 42.9265 104.745C42.2225 105.854 41.7958 107.145 41.6465 108.617C41.6465 109.15 41.7105 109.651 41.8385 110.121C41.9238 110.462 42.0411 110.686 42.1905 110.793C42.3398 110.878 42.5851 110.878 42.9265 110.793C43.3318 110.707 43.7371 110.611 44.1425 110.505C44.5478 110.398 44.9318 110.259 45.2945 110.089C46.5105 109.619 47.6091 109.043 48.5905 108.361C49.5931 107.657 50.5318 106.857 51.4065 105.961C51.5771 105.769 51.7585 105.587 51.9505 105.417C52.1425 105.246 52.3345 105.075 52.5265 104.905C52.6758 104.755 52.8358 104.649 53.0065 104.585C53.2625 104.435 53.5291 104.382 53.8065 104.425C54.0838 104.467 54.3398 104.595 54.5745 104.809C54.7878 105.043 54.9265 105.299 54.9905 105.577C55.0545 105.854 55.0225 106.121 54.8945 106.377C54.7878 106.59 54.6598 106.793 54.5105 106.985C54.3825 107.155 54.2438 107.326 54.0945 107.497C53.3265 108.414 52.4731 109.246 51.5345 109.993C50.5958 110.718 49.5931 111.358 48.5265 111.913C47.8011 112.297 47.0545 112.638 46.2865 112.937C45.5398 113.235 44.7611 113.459 43.9505 113.609C43.7158 113.651 43.4918 113.683 43.2785 113.705C43.0651 113.747 42.8411 113.758 42.6065 113.737C41.7531 113.673 41.0065 113.374 40.3665 112.841C39.7478 112.307 39.2998 111.593 39.0225 110.697C38.7878 109.886 38.6918 109.086 38.7345 108.297C38.7985 107.507 38.9478 106.729 39.1825 105.961C39.5451 104.745 40.0571 103.635 40.7185 102.633C41.3798 101.609 42.1585 100.67 43.0545 99.8167C43.5451 99.3687 44.0465 98.9527 44.5585 98.5687C45.0705 98.1847 45.6145 97.8434 46.1905 97.5447C46.5318 97.3741 46.8731 97.2354 47.2145 97.1287C47.5558 97.0221 47.9185 96.9688 48.3025 96.9688C48.6651 96.9688 48.9958 97.0434 49.2945 97.1927C49.6145 97.3421 49.8811 97.5341 50.0945 97.7687C50.3078 98.0034 50.4571 98.2807 50.5425 98.6007C50.6278 98.9207 50.6385 99.2514 50.5745 99.5927C50.4678 100.211 50.2331 100.734 49.8705 101.161C49.5718 101.545 49.2518 101.907 48.9105 102.249C48.5905 102.59 48.2598 102.942 47.9185 103.305C47.8758 103.347 47.8438 103.379 47.8225 103.401C47.8011 103.401 47.7691 103.422 47.7265 103.465C47.1291 103.849 46.5745 103.849 46.0625 103.465C45.5505 103.081 45.3905 102.558 45.5825 101.897V101.609Z" fill="#064102"/>
<path d="M33.2081 115.272C33.1441 114.76 33.0801 114.248 33.0161 113.736C32.9521 113.246 32.8987 112.744 32.8561 112.232C32.7494 110.227 32.6854 108.243 32.6641 106.28C32.6641 104.318 32.7707 102.355 32.9841 100.392C33.0054 100.307 33.0161 100.232 33.0161 100.168C33.0161 100.083 33.0267 99.9869 33.0481 99.8802C33.1334 99.6029 33.2827 99.3896 33.4961 99.2403C33.7307 99.0696 33.9974 98.9949 34.2961 99.0163C34.5947 99.0589 34.8614 99.1656 35.0961 99.3363C35.3521 99.5069 35.5121 99.7416 35.5761 100.04C35.6401 100.275 35.6721 100.531 35.6721 100.808C35.6934 101.064 35.7147 101.331 35.7361 101.608C35.7361 101.8 35.7254 102.003 35.7041 102.216C35.6827 102.408 35.6721 102.611 35.6721 102.824C35.6294 104.339 35.6081 105.843 35.6081 107.336C35.6081 108.83 35.6614 110.344 35.7681 111.88C35.8321 112.435 35.8961 112.99 35.9601 113.544C36.0454 114.12 36.1201 114.686 36.1841 115.24C36.2694 115.624 36.2374 115.955 36.0881 116.232C35.9387 116.51 35.6827 116.691 35.3201 116.776C35.0427 116.862 34.7654 116.851 34.4881 116.744C34.2107 116.659 33.9761 116.488 33.7841 116.232C33.6561 116.083 33.5494 115.923 33.4641 115.752C33.4001 115.603 33.3147 115.443 33.2081 115.272ZM33.6241 91.6883C33.7947 91.6456 33.9974 91.6456 34.2321 91.6883C34.4881 91.7309 34.7334 91.7949 34.9681 91.8802C35.2027 91.9656 35.4161 92.0723 35.6081 92.2002C35.8001 92.3283 35.9387 92.4563 36.0241 92.5843C36.2161 92.8402 36.3121 93.1176 36.3121 93.4162C36.3121 93.7149 36.1947 93.9709 35.9601 94.1843C35.8107 94.2909 35.6614 94.3869 35.5121 94.4723C35.3841 94.5576 35.2347 94.6429 35.0641 94.7282C34.9787 94.8136 34.8294 94.8562 34.6161 94.8562C33.9547 94.8776 33.4427 94.5149 33.0801 93.7683C32.7174 92.8723 32.7707 92.2429 33.2401 91.8802C33.3254 91.8376 33.4001 91.8056 33.4641 91.7842C33.5281 91.7416 33.5814 91.7096 33.6241 91.6883Z" fill="#064102"/>
<path d="M20.9333 112.423C21.04 112.274 21.1466 112.135 21.2533 112.007C21.36 111.858 21.4453 111.698 21.5093 111.527C21.8293 110.844 22.1493 110.162 22.4693 109.479C22.7893 108.796 23.0986 108.114 23.3973 107.431C23.824 106.407 24.2613 105.394 24.7093 104.391C25.1573 103.367 25.6373 102.375 26.1493 101.415C26.2346 101.308 26.2986 101.202 26.3413 101.095C26.4053 100.988 26.48 100.882 26.5653 100.775C26.928 100.327 27.408 100.199 28.0053 100.391C28.5813 100.562 28.9546 100.946 29.1253 101.543C29.2106 101.906 29.2 102.322 29.0933 102.791C28.9226 103.538 28.752 104.284 28.5813 105.031C28.4106 105.778 28.24 106.535 28.0693 107.303C27.5146 110.119 27.4293 112.967 27.8133 115.847C27.856 116.21 27.92 116.562 28.0053 116.903C28.0906 117.244 28.24 117.575 28.4533 117.895C28.56 118.13 28.6453 118.343 28.7093 118.535C28.752 118.77 28.7306 118.983 28.6453 119.175C28.5813 119.388 28.464 119.559 28.2933 119.687C28.144 119.815 27.9626 119.89 27.7493 119.911C27.536 119.954 27.3013 119.932 27.0453 119.847C26.3413 119.57 25.872 119.111 25.6373 118.471C25.488 118.13 25.3493 117.788 25.2213 117.447C25.1146 117.127 25.04 116.796 24.9973 116.455C24.8906 115.815 24.816 115.175 24.7733 114.535C24.752 113.895 24.72 113.255 24.6773 112.615V112.135C24.5706 112.284 24.4853 112.412 24.4213 112.519C24.3786 112.604 24.336 112.7 24.2933 112.807C24.08 113.106 23.8666 113.404 23.6533 113.703C23.4613 114.023 23.248 114.332 23.0133 114.631C22.864 114.823 22.6826 114.994 22.4693 115.143C22.256 115.314 22.032 115.452 21.7973 115.559C21.2213 115.858 20.6346 115.9 20.0373 115.687C19.4613 115.495 18.9813 115.09 18.5973 114.471C18.3413 114.066 18.16 113.65 18.0533 113.223C17.968 112.796 17.904 112.359 17.8613 111.911C17.7973 111.207 17.7866 110.514 17.8293 109.831C17.872 109.148 17.9466 108.466 18.0533 107.783C18.0746 107.676 18.0853 107.57 18.0853 107.463C18.1066 107.356 18.096 107.25 18.0533 107.143C17.968 106.908 17.936 106.684 17.9573 106.471C18 106.236 18.064 106.012 18.1493 105.799C18.2346 105.607 18.2986 105.404 18.3413 105.191C18.4053 104.978 18.48 104.764 18.5653 104.551C18.608 104.444 18.6613 104.338 18.7253 104.231C18.7893 104.103 18.8746 103.996 18.9813 103.911C19.152 103.762 19.344 103.676 19.5573 103.655C19.792 103.612 20.016 103.634 20.2293 103.719C20.464 103.783 20.6666 103.911 20.8373 104.103C21.008 104.274 21.1253 104.487 21.1893 104.743C21.296 105.063 21.3173 105.436 21.2533 105.863C21.168 106.695 21.072 107.527 20.9653 108.359C20.88 109.191 20.7946 110.023 20.7093 110.855C20.688 111.111 20.688 111.367 20.7093 111.623C20.752 111.879 20.8266 112.146 20.9333 112.423Z" fill="#064102"/>
</svg>
