<svg width="70" height="70" viewBox="0 0 70 70" fill="none" xmlns="http://www.w3.org/2000/svg">
<path fill-rule="evenodd" clip-rule="evenodd" d="M69.5732 34.7866C69.5732 54.0007 54.0007 69.5732 34.7866 69.5732C15.5726 69.5732 0 54.0007 0 34.7866C0 15.5726 15.5726 0 34.7866 0C54.0007 0 69.5732 15.5726 69.5732 34.7866ZM48.842 62.0429C48.784 62.0236 48.7116 61.9946 48.6343 61.9656C48.1609 61.7821 47.7793 61.4971 47.5282 61.1252C46.9437 61.8256 46.1612 62.3327 45.3305 62.6515C46.1565 62.6902 46.9245 62.9365 47.4413 63.4968C47.7262 62.9896 48.2141 62.4873 48.842 62.0429ZM49.523 56.0198C49.5037 56.0101 49.4892 56.0005 49.4699 55.9908C49.0642 55.7396 48.4846 55.2518 48.1948 54.3727C47.8712 54.9813 47.4268 55.5223 46.5864 56.0874C46.2724 56.2951 45.9102 56.4689 45.5189 56.5993C46.4415 56.7346 47.2239 57.1596 47.7553 57.8551C48.1803 57.1403 48.7937 56.5028 49.523 56.0198ZM55.9229 54.6576C55.7491 54.4886 55.5945 54.2954 55.4689 54.078C55.2516 54.3582 55.0439 54.59 54.8217 54.8122C54.5947 55.0392 54.3677 55.2421 54.0875 55.4594C54.3049 55.585 54.4981 55.7396 54.6671 55.9135C54.8603 55.6816 55.0632 55.4449 55.2661 55.2469C55.4544 55.0585 55.6863 54.8508 55.9229 54.6576ZM57.8453 47.7555C57.1546 47.2241 56.7248 46.4417 56.5895 45.5191C56.4591 45.9152 56.2853 46.2774 56.0776 46.5866C55.5173 47.427 54.9763 47.8714 54.3629 48.195C55.242 48.4848 55.7347 49.0693 55.981 49.4701C55.9907 49.4846 56.0003 49.5039 56.01 49.5232C56.5026 48.7987 57.1401 48.1806 57.8453 47.7555ZM63.4965 47.4415C62.9363 46.9247 62.6899 46.1518 62.6513 45.3308C62.3373 46.1664 61.8302 46.9441 61.1249 47.5284C61.492 47.7844 61.7818 48.1612 61.9654 48.6345C61.9944 48.7118 62.0233 48.7794 62.0427 48.8422C62.487 48.2143 62.9893 47.7265 63.4965 47.4415ZM64.2259 26.3146C64.2645 25.5949 64.4915 25.0974 64.8586 24.851C60.6806 12.235 48.789 3.09596 34.7868 3.09596C17.3113 3.09596 3.09639 17.3108 3.09639 34.7864C3.09639 48.7886 12.2349 60.68 24.8515 64.8582C25.0978 64.4911 25.5953 64.2641 26.315 64.2254C27.7447 64.1482 29.6574 64.8244 30.1211 65.916C30.1452 65.9788 30.1452 66.0367 30.1597 66.0995C30.947 66.2155 31.7343 66.3072 32.5362 66.3604C32.5169 66.3121 32.5024 66.2686 32.4927 66.2348L32.4879 66.2058C32.4686 66.0561 32.4444 65.8484 32.5362 65.602C32.9226 64.5829 34.362 64.1433 35.5839 64.0709C37.0282 63.9839 38.7283 64.3703 39.2741 65.4282C39.3659 65.6021 39.4094 65.7856 39.4094 65.9595C39.4094 66.0078 39.3901 66.0513 39.3852 66.0948C39.6461 66.0561 39.9069 66.0223 40.1677 65.974C40.1291 65.8774 40.1098 65.7856 40.0904 65.718L40.0856 65.66C40.0856 65.6021 40.0808 65.5441 40.0856 65.491C40.1677 64.4235 41.5104 63.5058 42.8484 63.0373C42.322 63.0083 41.8293 62.902 41.409 62.7233C39.8875 62.0664 39.8489 60.8975 39.8393 60.4338L39.849 60.3324C39.8586 60.2503 39.8634 60.1633 39.8731 60.0957C40.1532 58.4824 41.752 57.2652 43.3315 56.7822C42.8002 56.7049 42.2785 56.5214 41.81 56.2123C40.39 55.2752 40.3754 53.8406 40.3705 53.3528C40.4237 52.8409 40.5493 51.6382 41.7761 50.4934C43.8143 48.5903 45.8188 49.17 46.5868 49.5081C47.4756 49.8993 48.1905 50.5852 48.4512 51.242C48.7314 50.6286 49.1275 50.0683 49.596 49.5998C50.0693 49.1265 50.6248 48.7353 51.2382 48.4551C50.5813 48.1991 49.8954 47.4843 49.5042 46.5907C49.1661 45.8227 48.5865 43.823 50.4896 41.78C51.6343 40.5531 52.8321 40.4275 53.349 40.3744C53.8368 40.3793 55.2714 40.3937 56.2084 41.8138C56.5175 42.2824 56.7011 42.804 56.7784 43.3354C57.2614 41.7512 58.4786 40.1572 60.0918 39.877C60.1594 39.8625 60.2464 39.8577 60.3285 39.8528L60.4299 39.8432C60.8888 39.8577 62.0625 39.8963 62.7194 41.4129C62.8982 41.8331 63.0044 42.3258 63.0334 42.8523C63.5019 41.5144 64.4197 40.1668 65.4871 40.0895C65.5403 40.0846 65.5982 40.0895 65.6562 40.0895L65.7141 40.0943C65.7818 40.1088 65.8735 40.1329 65.9701 40.1716C66.0136 39.9156 66.0523 39.6499 66.0909 39.3891C66.0426 39.3939 65.9991 39.4133 65.9557 39.4133C65.7769 39.4133 65.5982 39.3698 65.4243 39.278C64.3665 38.7274 63.9801 37.0272 64.067 35.5878C64.1395 34.3658 64.579 32.9265 65.5982 32.5401C65.8445 32.4434 66.0522 32.4724 66.202 32.4917L66.2309 32.4966C66.2647 32.5062 66.3082 32.5207 66.3565 32.5401C66.2985 31.7383 66.2116 30.9461 66.0957 30.1636C66.0377 30.1491 65.9749 30.1491 65.9121 30.125C64.8254 29.6613 64.1486 27.7442 64.2259 26.3146ZM26.9761 58.1064C25.7155 57.8069 24.5852 58.0871 24.0346 58.8309C23.7351 59.2366 23.7303 59.623 23.7351 59.8597C23.7738 60.1495 23.8849 60.961 24.9234 61.6855C26.2855 62.637 27.8938 62.5646 28.7826 62.0043C29.3043 61.6759 29.5747 61.1977 29.5747 60.6422C29.5747 60.5456 29.5651 60.4393 29.5506 60.333C29.3526 59.169 28.116 58.3769 26.9761 58.1064ZM28.2368 55.1165C29.0579 54.7108 29.5313 53.9573 29.5313 53.0831C29.5313 53.0154 29.5264 52.9478 29.5216 52.8802C29.4298 51.7403 28.5942 50.7453 27.3915 50.3492C26.2129 49.958 25.0247 50.2333 24.2857 51.0641C23.8124 51.6002 23.7641 52.1267 23.7351 52.4358C23.7399 52.7643 23.7544 53.7109 24.7108 54.5611C25.8604 55.5899 27.3094 55.5802 28.2368 55.1165ZM18.1998 56.836C17.4656 56.5075 16.7943 56.5365 16.403 56.9133C16.1132 57.1886 16.118 57.517 16.118 57.7151C16.1422 57.9228 16.2195 58.4975 16.8812 59.1302C17.6202 59.8403 18.649 60.1591 19.3253 59.8886C19.6924 59.7437 19.9049 59.4394 19.9194 59.0336V58.9757C19.9194 58.0773 19.0643 57.2272 18.1998 56.836ZM52.885 29.5216C52.9526 29.5264 53.0203 29.5312 53.0879 29.5312C53.9621 29.5312 54.7108 29.0579 55.1213 28.2367C55.585 27.3093 55.5947 25.8603 54.5707 24.7107C53.7206 23.7544 52.7739 23.7399 52.4454 23.735C52.1314 23.764 51.6098 23.8172 51.0736 24.2857C50.238 25.0198 49.9627 26.2129 50.3587 27.3914C50.75 28.5941 51.7403 29.4297 52.885 29.5216ZM60.7194 31.8207H60.6904C60.3716 31.84 60.0432 31.8545 59.5843 32.1202C58.0919 32.9751 57.6426 34.9989 57.86 36.5156C58.0725 38.0129 58.855 39.0659 59.9563 39.3315C60.1253 39.375 60.2944 39.3895 60.4634 39.3895C61.1783 39.3895 61.8593 39.0224 62.3955 38.3365C63.3035 37.1628 63.7334 35.0521 62.7964 33.2939C62.0767 31.9464 61.0526 31.8497 60.7194 31.8207ZM36.5111 57.8603C34.9944 57.643 32.9754 58.0922 32.1157 59.5846C31.85 60.0435 31.8355 60.3767 31.8162 60.6907V60.7197C31.8452 61.053 31.9418 62.077 33.2894 62.7966C35.0524 63.7337 37.1631 63.3038 38.332 62.3957C39.0179 61.8644 39.3849 61.1786 39.3849 60.4637C39.3849 60.2946 39.3656 60.1256 39.327 59.9565C39.0613 58.8601 38.0084 58.0729 36.5111 57.8603ZM58.8313 24.0357C58.0826 24.5863 57.8073 25.7166 58.1067 26.9772C58.3772 28.1171 59.1694 29.3537 60.3383 29.5516C60.4445 29.5709 60.546 29.5758 60.6474 29.5758C61.2028 29.5758 61.681 29.3004 62.0095 28.7836C62.5698 27.8949 62.6423 26.2865 61.6907 24.9244C60.9662 23.8907 60.1499 23.7748 59.8649 23.7362C59.6234 23.7265 59.237 23.7314 58.8313 24.0357ZM59.0341 19.9205C59.4398 19.9012 59.7393 19.6935 59.889 19.3264C60.1595 18.6501 59.8407 17.6262 59.1307 16.8823C58.498 16.2206 57.9232 16.1433 57.7155 16.1191C57.5223 16.1191 57.1939 16.1095 56.9137 16.4041C56.537 16.7954 56.508 17.4667 56.8365 18.2009C57.2277 19.0655 58.0778 19.9204 58.9762 19.9204L59.0341 19.9205ZM33.9034 47.3363C34.995 48.254 36.4972 48.4279 37.7289 47.771C38.7818 47.2107 39.4049 46.177 39.4049 45.013C39.4049 44.897 39.4001 44.7811 39.3856 44.6652C39.2456 43.3321 38.3423 42.2502 37.0334 41.8299C35.7389 41.4193 34.3914 41.7719 33.522 42.7573C32.8216 43.5542 32.7588 44.3802 32.7299 44.7811C32.7444 45.1916 32.7828 46.3944 33.9034 47.3363ZM36.7387 50.1522C35.0965 49.8237 33.4832 50.4468 32.6379 51.7462C32.2129 52.3982 32.1597 52.9827 32.1259 53.3304C32.1356 53.7554 32.1694 54.9822 33.4204 55.8951C34.9177 56.9819 36.7919 56.7114 37.9752 55.9579C38.9944 55.3155 39.5644 54.3495 39.5644 53.3062C39.5644 53.1275 39.5451 52.944 39.5113 52.7604C39.2698 51.4466 38.207 50.4468 36.7387 50.1522ZM45.0078 41.1392C44.5248 41.1633 43.5202 41.2164 42.5203 42.0182C42.4237 42.0955 42.3416 42.1776 42.2595 42.2597C42.1774 42.3419 42.0953 42.4288 42.018 42.5206C41.2162 43.5156 41.1631 44.5251 41.1389 45.008C41.1582 45.4911 41.2259 46.9208 42.5107 47.9496C43.6409 48.8528 45.172 48.9832 46.5004 48.2828C46.8917 48.08 47.2201 47.8192 47.5196 47.5197C47.819 47.2202 48.0798 46.8918 48.2827 46.5005C48.9831 45.1675 48.8527 43.6411 47.9494 42.5108C46.9206 41.226 45.4908 41.1584 45.0078 41.1392ZM53.3301 32.1261C52.9823 32.1551 52.3979 32.2131 51.7459 32.6381C50.4514 33.4882 49.8235 35.0967 50.1519 36.7389C50.4417 38.2072 51.4464 39.2699 52.7602 39.5162C52.9438 39.55 53.1273 39.5693 53.306 39.5693C54.3493 39.5693 55.3153 38.9994 55.9577 37.9802C56.7112 36.792 56.9817 34.9227 55.8949 33.4254C54.982 32.1696 53.7551 32.1358 53.3301 32.1261ZM44.6697 39.3858C44.7857 39.4003 44.9016 39.4051 45.0175 39.4051C46.1767 39.4051 47.2152 38.782 47.7755 37.729C48.4276 36.4925 48.2585 34.9904 47.3408 33.9035C46.3941 32.7829 45.1962 32.7443 44.7857 32.7346C44.3897 32.7636 43.5589 32.8216 42.7619 33.5268C41.7766 34.3962 41.424 35.7438 41.8345 37.0382C42.2499 38.3472 43.3365 39.2458 44.6697 39.3858Z" fill="#064102"/>
</svg>
