<svg width="105" height="96" viewBox="0 0 105 96" fill="none" xmlns="http://www.w3.org/2000/svg">
<path d="M23.7647 0C27.1556 6.57954e-05 33.7276 1.40439 40.5186 3.13965C47.328 4.8796 54.4123 6.96648 58.8575 8.3584L58.8614 8.36035C60.5601 8.91171 63.3387 9.75264 66.1475 10.4824C68.9653 11.2145 71.7824 11.8263 73.5733 11.9316C75.8489 12.0655 81.4859 12.2219 87.5684 11.8193C93.6674 11.4157 100.148 10.4532 104.157 8.38281L104.252 8.3418C104.356 8.30513 104.487 8.28606 104.624 8.33789C104.812 8.40864 104.901 8.56806 104.942 8.68652C105.02 8.90911 105.011 9.22225 104.974 9.55176C104.896 10.2439 104.652 11.2958 104.281 12.6162C103.536 15.2671 102.257 19.0839 100.681 23.4697C97.5438 32.1975 93.2178 43.2095 89.5498 51.8516L104.3 87.5176C104.961 89.1172 104.155 90.9478 102.521 91.5264C100.601 92.2055 98.3911 92.9738 96.5469 93.5869C95.6253 93.8933 94.7926 94.1621 94.1319 94.3613C93.4843 94.5566 92.9698 94.6953 92.7051 94.7285C91.9823 94.8189 88.2962 95.2459 84.0596 95.5156C79.8363 95.7845 75.017 95.9009 72.0518 95.3535C67.3626 94.4878 52.2387 90.0785 45.2813 87.9883L45.2578 87.9814L45.2364 87.9717C41.8322 86.4324 32.8699 83.6163 24.3467 84.6816C17.6669 85.5167 9.7153 87.8705 4.51175 89.6533C2.51238 90.3383 0.369349 88.8812 0.359405 86.749L3.02454e-05 8.19434C-0.00552722 6.94388 0.755293 5.83575 1.86429 5.30859C4.06047 4.26464 6.41027 2.92682 9.7598 1.8623C13.1184 0.794965 17.4829 3.5941e-05 23.7647 0ZM96.293 17C92.9884 17.7626 85.0346 19.2871 79.6524 19.2871V88.9004C83.0239 89.2592 91.7633 88.4974 96.6748 86.793C97.1898 86.6143 96.1592 84.3477 96.1592 84.3477L83.0166 51.8066L96.293 17ZM37.2188 17.9238V23.3721C27.629 23.8288 20.7461 28.7868 20.7461 36.9414V37.0068C20.7463 44.3458 25.5743 48.2923 34.2832 50.2168L37.2188 50.8369V60.4922C33.4025 60.1333 31.185 58.5345 30.6631 55.6641L30.6299 55.5996L20.3555 55.6318L20.2901 55.6641C20.551 64.0144 27.2702 68.6144 37.2188 69.0059V74.3223H40.9053V68.9727C50.9844 68.3528 57.7364 63.3623 57.7364 55.0771V55.0117C57.7362 47.7053 53.0715 44.0516 43.8731 42.0293L40.9053 41.4102V31.9502C44.1344 32.4721 46.2543 34.2664 46.711 37.2998L46.7442 37.3652L56.9864 37.333L57.0186 37.2998C56.6597 29.3736 50.756 24.0894 40.9053 23.4043V17.9238H37.2188ZM40.9053 51.6523C45.1456 52.7287 46.8086 53.8382 46.8086 56.252V56.3164C46.8086 58.828 44.6889 60.166 40.9053 60.4922V51.6523ZM37.2188 40.5615C33.4354 39.5504 31.674 38.2786 31.6739 36.126V36.0605C31.6739 33.712 33.5656 32.211 37.2188 31.8848V40.5615Z" fill="#0C4501"/>
</svg>
