<svg width="269" height="171" viewBox="0 0 269 171" fill="none" xmlns="http://www.w3.org/2000/svg">
<path fill-rule="evenodd" clip-rule="evenodd" d="M116.84 0C118.884 4.683e-06 122.848 0.847243 126.942 1.89355C131.048 2.94269 135.32 4.20178 138 5.04102H138.002C139.026 5.37346 140.702 5.88128 142.396 6.32129C144.094 6.76267 145.793 7.13083 146.873 7.19434C148.245 7.27504 151.644 7.36962 155.311 7.12695C158.988 6.88358 162.896 6.30313 165.313 5.05469L165.37 5.03027C165.433 5.00811 165.512 4.99701 165.595 5.02832C165.708 5.07106 165.761 5.16692 165.786 5.23828C165.833 5.37246 165.828 5.5613 165.806 5.75977C165.759 6.17711 165.611 6.81155 165.388 7.60742C164.939 9.2058 164.167 11.508 163.217 14.1523C161.326 19.4144 158.717 26.0533 156.506 31.2637L165.399 52.7695C165.798 53.734 165.312 54.8378 164.326 55.1865C163.169 55.596 161.837 56.06 160.725 56.4297C160.169 56.6144 159.667 56.7764 159.269 56.8965C158.878 57.0142 158.568 57.0972 158.408 57.1172C157.972 57.1717 155.75 57.4292 153.195 57.5918C150.649 57.7539 147.743 57.8242 145.955 57.4941C143.128 56.9721 134.008 54.314 129.813 53.0537L129.8 53.0488L129.786 53.043C127.733 52.1148 122.33 50.4172 117.191 51.0596C113.164 51.563 108.369 52.9826 105.231 54.0576C104.026 54.4704 102.735 53.591 102.729 52.3057L102.512 4.94141C102.508 4.18744 102.967 3.51907 103.636 3.20117C104.96 2.57172 106.377 1.76485 108.397 1.12305C110.422 0.479551 113.053 4.22789e-05 116.84 0ZM160.571 10.25C158.579 10.7098 153.783 11.6289 150.538 11.6289V53.6025C152.571 53.8189 157.84 53.3597 160.802 52.332C161.112 52.224 160.49 50.8574 160.49 50.8574L152.566 31.2373L160.571 10.25ZM124.953 10.8076V14.0918C119.171 14.3671 115.021 17.3567 115.021 22.2734V22.3135C115.021 26.7385 117.932 29.118 123.183 30.2783L124.953 30.6523V36.4736C122.652 36.2573 121.314 35.294 120.999 33.5635L120.98 33.5234L114.784 33.543L114.745 33.5635C114.903 38.5981 118.955 41.3714 124.953 41.6074V44.8125H127.175V41.5879C133.252 41.2142 137.323 38.2046 137.323 33.209V33.1699C137.323 28.7644 134.511 26.5612 128.965 25.3418L127.175 24.9678V19.2646C129.122 19.5793 130.4 20.6611 130.676 22.4902L130.695 22.5293L136.871 22.5098L136.891 22.4902C136.674 17.711 133.114 14.5244 127.175 14.1113V10.8076H124.953ZM127.175 31.1436C129.732 31.7926 130.735 32.4616 130.735 33.917V33.9561C130.735 35.4705 129.456 36.277 127.175 36.4736V31.1436ZM124.953 24.457C122.672 23.8474 121.609 23.0802 121.609 21.7822V21.7432C121.609 20.3271 122.75 19.4223 124.953 19.2256V24.457Z" fill="#BCF0B5"/>
<path d="M39.0264 65.7275C40.7461 65.7275 42.4545 66.005 44.0859 66.5488L45.1553 66.9053C46.3359 67.2988 47.4512 67.8665 48.4639 68.5898C49.5056 69.334 50.4272 70.2337 51.1953 71.2578L51.4688 71.623C52.2812 72.7064 52.9472 73.8921 53.4502 75.1494L53.5967 75.5146C54.1718 76.9524 54.5356 78.4666 54.6758 80.0088L54.7207 80.5049C54.8444 81.8653 54.7929 83.2365 54.5684 84.584L54.2109 86.7275C54.085 87.4832 53.8465 88.2161 53.5039 88.9014L53.1035 89.7031C52.8336 90.243 52.4418 90.713 51.959 91.0752C51.2861 91.5799 50.4671 91.8524 49.626 91.8525H48.1953C47.3718 91.8525 46.5636 91.6287 45.8574 91.2051L45.6602 91.0869C45.0477 90.7194 44.5528 90.1847 44.2334 89.5459C43.9727 89.0244 43.8369 88.4492 43.8369 87.8662V85.2109L44.0947 82.8896C44.2159 81.7989 44.0524 80.6953 43.6201 79.6865L43.4482 79.2852C43.1228 78.5257 42.6034 77.8649 41.9424 77.3691C41.4393 76.9919 40.8659 76.7189 40.2559 76.5664L40.0801 76.5225C39.6347 76.4111 39.1769 76.3545 38.7178 76.3545H37.7695C36.2176 76.3545 34.6773 76.6259 33.2188 77.1562L32.7803 77.3154C31.3036 77.8524 29.9143 78.6051 28.6572 79.5479L26.4883 81.1748C25.6578 81.7976 24.8897 82.4999 24.1953 83.2715L22.2871 85.3916C21.6002 86.1549 20.9883 86.9828 20.46 87.8633L17.2695 93.1807L14.2061 100.072C13.887 100.79 13.6214 101.531 13.4111 102.288L11.5127 109.122L10.7881 114.195C10.681 114.945 10.627 115.701 10.627 116.458V120.821C10.627 121.875 10.7309 122.926 10.9375 123.959L11.0928 124.732C11.3717 126.127 11.8347 127.478 12.4707 128.75L13.3857 130.58C13.902 131.613 14.6367 132.52 15.5381 133.241C16.0993 133.69 16.7183 134.062 17.3789 134.345L17.6172 134.447C18.8481 134.975 20.1735 135.247 21.5127 135.247H22.3232C23.6698 135.247 25.0091 135.05 26.2988 134.663L27.123 134.416C28.2257 134.085 29.2896 133.636 30.2959 133.077L31.6885 132.304C32.4065 131.905 33.0928 131.451 33.7412 130.946L36.752 128.604L40.2949 125.505L43.3945 121.963L47.8223 116.649L52.25 110.893L56.2354 105.137L59.4258 99.8184C59.9541 98.9378 60.566 98.11 61.2529 97.3467L62.8604 95.5605C63.7534 94.5683 64.7672 93.6917 65.8779 92.9512L66.6104 92.4629C67.659 91.7638 68.7965 91.2082 69.9922 90.8096C71.4383 90.3275 72.9532 90.0811 74.4775 90.0811H76.5039C78.6162 90.0811 80.7075 90.5001 82.6572 91.3125L84.1299 91.9258C84.7203 92.1718 85.2924 92.461 85.8408 92.79L87.0049 93.4883C87.1551 93.5785 87.2941 93.6866 87.418 93.8105C88.4305 94.8229 90.1314 94.578 90.8174 93.3213L91.7705 91.5752C91.9896 91.1735 92.2823 90.8164 92.6338 90.5234L93.3311 89.9434C94.2537 89.1745 95.4162 88.7529 96.6172 88.7529C97.9787 88.7529 99.2843 89.2941 100.247 90.2568L100.461 90.4707C100.79 90.7995 101.064 91.1789 101.271 91.5947C101.645 92.3408 101.794 93.1797 101.702 94.0088L101.518 95.6709C101.44 96.3704 101.288 97.0599 101.065 97.7275L90.4463 129.586C90.3697 129.816 90.3301 130.057 90.3301 130.299V130.746C90.3301 131.56 90.9056 132.262 91.7041 132.422C92.2329 132.528 92.7807 132.377 93.1816 132.017L96.2188 129.283C96.7199 128.832 97.1735 128.331 97.5723 127.787L101.844 121.963L107.157 113.55L111.452 106.391C112.128 105.263 112.664 104.057 113.045 102.799L116.651 90.8955C116.815 90.3545 117.04 89.8336 117.32 89.3428L117.688 88.6982C118.322 87.5889 119.324 86.7358 120.521 86.2871L120.678 86.2285C121.674 85.8549 122.764 85.8112 123.787 86.1035L123.865 86.126C124.806 86.3948 125.64 86.9498 126.251 87.7139C126.795 88.3935 127.14 89.2106 127.248 90.0742L127.423 91.4756C127.49 92.0146 127.432 92.562 127.251 93.0742L125.28 98.6572C125.113 99.1316 125.564 99.5905 126.041 99.4316C126.143 99.3977 126.235 99.3377 126.306 99.2568L129.297 95.8379L132.114 93.3018C133.183 92.34 134.376 91.5267 135.662 90.8838L137.294 90.0684C138.447 89.492 139.697 89.1362 140.98 89.0195L142.239 88.9043C143.33 88.8051 144.428 89.0129 145.408 89.5029C146.171 89.8842 146.841 90.4261 147.374 91.0918L147.543 91.3027C148.068 91.959 148.473 92.7037 148.738 93.501L148.801 93.6865C149.08 94.5247 149.223 95.4026 149.223 96.2861V99.9727C149.223 100.757 149.165 101.541 149.05 102.317L147.47 112.982C147.457 113.065 147.451 113.149 147.451 113.232V113.543C147.451 114.463 148.293 115.152 149.195 114.972C149.501 114.911 149.779 114.754 149.988 114.523L154.094 110.007L155.51 108.186C156.623 106.754 157.486 105.143 158.06 103.422L162.548 89.958C162.814 89.1609 163.218 88.4169 163.743 87.7607L164.422 86.9121C164.618 86.6666 164.866 86.4658 165.147 86.3252C165.449 86.1745 165.782 86.0967 166.119 86.0967H167.784C169.225 86.0967 170.606 86.668 171.625 87.6865L171.963 88.0254C172.152 88.2142 172.309 88.4321 172.429 88.6709C172.601 89.0159 172.69 89.3965 172.69 89.7822V92.8799C172.69 93.0793 172.659 93.2776 172.596 93.4668L171.738 96.0381C171.384 97.1012 172.655 97.9558 173.506 97.2266C173.553 97.1864 173.596 97.1421 173.636 97.0947L174.421 96.1523C175.33 95.062 176.382 94.0999 177.549 93.292L180.45 91.2832C181.179 90.7785 181.957 90.3484 182.772 89.999L183.118 89.8506C184.131 89.4166 185.204 89.1399 186.301 89.0303L187.56 88.9043C188.553 88.805 189.556 88.9593 190.474 89.3525C191.581 89.8271 192.516 90.629 193.154 91.6504L193.844 92.7529C194.204 93.3295 194.472 93.9595 194.637 94.6191C194.765 95.1341 194.831 95.6635 194.831 96.1943V99.6475C194.831 100.059 194.801 100.47 194.743 100.877L192.918 113.653C192.784 114.592 193.715 115.324 194.596 114.972C194.751 114.91 194.892 114.817 195.01 114.699L198.373 111.336L201.587 107.408C202.101 106.78 202.566 106.114 202.979 105.416L208.114 96.7236L212.412 90.8633C212.793 90.3438 213.233 89.8694 213.722 89.4502L214.602 88.6963C215.559 87.8758 216.778 87.4248 218.039 87.4248C219.607 87.4249 221.093 88.121 222.097 89.3252L222.518 89.8311C222.656 89.9976 222.776 90.1792 222.873 90.373C223.068 90.7635 223.17 91.1943 223.17 91.6309V92.3252C223.17 93.4607 222.833 94.5708 222.203 95.5156L220.513 98.0518L216.527 103.808L212.985 110.007L209.921 117.286C209.603 118.041 209.343 118.819 209.145 119.614L208.592 121.823C208.275 123.092 208.114 124.396 208.114 125.704V129.699C208.114 129.853 208.15 130.005 208.219 130.143C208.419 130.542 208.861 130.757 209.299 130.67L210.198 130.49C210.574 130.415 210.923 130.243 211.211 129.991L213.358 128.111C213.993 127.556 214.572 126.939 215.087 126.271L218.741 121.52L223.612 114.436L228.926 106.907L233.354 101.151L236.654 97.5508C237.695 96.415 238.896 95.4354 240.217 94.6426L242.168 93.4717C242.49 93.2785 242.832 93.1207 243.188 93.002C243.713 92.827 244.263 92.7383 244.816 92.7383H247.198C248.269 92.7383 249.308 93.1028 250.144 93.7715C250.749 94.256 251.226 94.8829 251.531 95.5957L251.981 96.6455C252.256 97.2855 252.457 97.9546 252.582 98.6396L253.221 102.154C253.26 102.37 253.28 102.59 253.28 102.81C253.28 105.622 256.318 107.385 258.76 105.99L259.479 105.579L259.945 105.346C260.803 104.917 261.75 104.693 262.709 104.693H263.511C264.88 104.693 266.177 105.316 267.032 106.386C267.309 106.732 267.533 107.117 267.697 107.528L268.05 108.408C268.238 108.88 268.335 109.383 268.335 109.891C268.335 110.824 268.007 111.729 267.409 112.446L266.814 113.16C266.355 113.711 265.809 114.183 265.196 114.558L258.15 118.863L256.871 119.686C253.694 121.728 251.342 124.829 250.231 128.438L250.181 128.604L247.523 137.461L243.096 148.53L239.11 156.058L235.125 161.814L232.184 165.082C231.489 165.854 230.722 166.556 229.892 167.179L228.934 167.897C228.047 168.562 227.07 169.096 226.033 169.485L225.806 169.571C224.648 170.005 223.422 170.228 222.186 170.228C221.078 170.228 219.977 170.049 218.926 169.698L218.02 169.396C217.029 169.066 216.087 168.605 215.219 168.026C214.324 167.43 213.516 166.714 212.816 165.897L212.43 165.446C211.626 164.508 210.992 163.437 210.559 162.28C210.114 161.094 209.886 159.837 209.886 158.57V157.136C209.886 155.541 210.124 153.955 210.593 152.431L211.136 150.667C211.482 149.541 211.952 148.457 212.536 147.435L215.199 142.774L218.42 138.588C218.714 138.205 218.288 137.688 217.856 137.903L214.925 139.857C214.226 140.324 213.467 140.695 212.67 140.961C211.706 141.282 210.696 141.445 209.68 141.445H209.121C207.866 141.445 206.618 141.263 205.416 140.902L204.31 140.57C203.313 140.271 202.384 139.784 201.571 139.134C200.919 138.612 200.351 137.993 199.888 137.298L199.636 136.92C199.091 136.103 198.659 135.217 198.349 134.286L197.701 132.346C197.56 131.921 197.487 131.476 197.487 131.028V128.036C197.487 126.956 196.499 126.146 195.439 126.357C195.329 126.38 195.216 126.391 195.104 126.391H192.569C191.429 126.391 190.299 126.185 189.231 125.785C187.961 125.309 186.806 124.566 185.847 123.606L185.089 122.849L184.234 121.779C183.628 121.022 183.161 120.163 182.854 119.243C182.575 118.405 182.433 117.527 182.433 116.644V111.674C182.433 110.859 182.494 110.045 182.618 109.24L183.308 104.761C183.314 104.716 183.318 104.671 183.318 104.626C183.318 103.834 182.361 103.437 181.801 103.997L181.104 104.693L176.233 110.45L172.69 115.764L168.263 122.849L162.507 133.476L159.275 139.533C159.069 139.92 158.806 140.276 158.496 140.586C157.662 141.42 156.529 141.889 155.35 141.889H154.83C153.496 141.889 152.204 141.421 151.179 140.566L150.466 139.973C150.23 139.776 150.038 139.533 149.9 139.259C149.746 138.95 149.665 138.609 149.665 138.264V135.011C149.665 134.579 149.721 134.15 149.831 133.732L151.338 128.004C151.587 127.055 150.756 126.173 149.794 126.365C149.708 126.382 149.621 126.391 149.534 126.391H147.905C146.151 126.391 144.42 125.982 142.851 125.197L142.592 125.068C141.415 124.48 140.369 123.662 139.513 122.663C138.616 121.617 137.949 120.396 137.553 119.076L137.368 118.462C137.008 117.26 136.824 116.011 136.824 114.756V111.778L137.71 104.693C137.71 103.877 136.722 103.468 136.145 104.045L135.496 104.693L131.953 109.122L125.754 117.978L120.884 126.391L115.57 136.575L113.264 140.42C113.033 140.804 112.719 141.132 112.347 141.381C111.85 141.712 111.266 141.889 110.669 141.889H107.636C107.319 141.889 107.004 141.837 106.703 141.737C106.134 141.548 105.635 141.189 105.275 140.709L104.747 140.004C104.585 139.788 104.477 139.536 104.433 139.27L104.348 138.762C104.203 137.895 103.261 137.416 102.476 137.809C102.35 137.871 102.235 137.954 102.136 138.054L101.027 139.162C100.393 139.796 99.6833 140.351 98.9141 140.812L96.501 142.26C95.9329 142.601 95.3175 142.856 94.6748 143.017C94.1422 143.15 93.5949 143.217 93.0459 143.217H91.0039C89.6784 143.217 88.361 143.003 87.1035 142.584L86.3926 142.348C85.4826 142.044 84.6338 141.582 83.8848 140.982C83.1689 140.41 82.5552 139.72 82.0693 138.942L80.7998 136.911C80.6601 136.688 80.5472 136.448 80.4639 136.198L79.875 134.434C79.7723 134.126 79.4845 133.918 79.1602 133.918C78.9428 133.918 78.7359 134.012 78.5928 134.176L75.7178 137.461L73.7207 139.209C72.6951 140.106 71.5587 140.869 70.3398 141.479L69.6055 141.846C68.959 142.169 68.2838 142.431 67.5889 142.63C66.2304 143.018 64.8122 143.156 63.4043 143.039L62.6611 142.978C61.0487 142.843 59.4765 142.402 58.0293 141.679L57.9785 141.653C56.5349 140.931 55.2455 139.935 54.1826 138.721C53.1975 137.595 52.4237 136.3 51.8984 134.899L51.4561 133.72C51.3952 133.558 51.3517 133.389 51.3271 133.218L51.083 131.506C50.9989 130.918 50.4027 130.549 49.8389 130.737C49.6782 130.791 49.5344 130.886 49.4229 131.014L46.4941 134.361L43.1045 137.411C42.4134 138.033 41.6693 138.594 40.8809 139.087L34.9805 142.774L31.7871 144.226C30.6729 144.732 29.5039 145.11 28.3037 145.35L27.2354 145.563C26.2023 145.77 25.1511 145.874 24.0977 145.874H21.0029C19.4081 145.874 17.8221 145.635 16.2979 145.166L14.7002 144.675C13.4656 144.295 12.2815 143.766 11.1738 143.102L10.5127 142.706C9.12094 141.871 7.86442 140.828 6.78613 139.615L6.27637 139.042C5.34328 137.992 4.55293 136.824 3.9248 135.567L2.55664 132.832C2.03464 131.788 1.62784 130.69 1.34473 129.558L0.442383 125.948L0 122.405V115.69C7.34767e-06 114.855 0.0650143 114.021 0.195312 113.195L1.32812 106.022L3.54199 97.6094L6.19922 90.9668L10.627 82.9971L14.6123 77.6826L16.2441 75.7793C16.9256 74.9842 17.6834 74.2573 18.5068 73.6104L22.1914 70.7158C23.0405 70.0487 23.9551 69.4692 24.9209 68.9863L27.2109 67.8418C28.255 67.3198 29.3529 66.913 30.4854 66.6299L32.1846 66.2051C33.4537 65.8878 34.7573 65.7275 36.0654 65.7275H39.0264ZM231.141 140.117L227.155 144.545L223.612 148.974L220.513 154.287L220.07 158.272L220.956 159.601L223.17 160.043L225.826 156.943L228.926 152.516L232.469 145.874L236.454 137.018L236.896 135.247H235.568L231.141 140.117ZM70.8477 102.037L68.1904 105.137L65.0908 110.893L62.4346 118.863L61.1064 125.948V129.933L62.4346 132.59L64.6484 133.032L67.748 130.818L69.9619 128.604L73.5039 124.177L77.0469 118.863L83.2461 108.236L83.6885 105.579L81.0322 102.479L77.4893 100.266H73.9473L70.8477 102.037ZM242.21 106.465L241.767 106.907L234.683 117.535L229.369 124.619L224.498 130.818H225.826L229.369 127.719L234.683 122.849L241.767 117.092L242.652 114.878L243.096 106.465H242.21Z" fill="#BCF0B5"/>
</svg>
