<svg width="151" height="42" viewBox="0 0 151 42" fill="none" xmlns="http://www.w3.org/2000/svg">
<path d="M8.06349 2.86719C9.21405 2.86725 11.444 3.34389 13.7481 3.93262C16.0585 4.52299 18.4625 5.23184 19.9707 5.7041H19.9717C20.5481 5.89118 21.4915 6.17625 22.4443 6.42383C23.4003 6.67219 24.3563 6.88028 24.9639 6.91602C25.7363 6.96143 27.6486 7.01447 29.7119 6.87793C31.7814 6.74097 33.9806 6.41444 35.3408 5.71191L35.4111 5.68848C35.438 5.68432 35.4682 5.68468 35.499 5.69629C35.5625 5.72038 35.5935 5.77528 35.6074 5.81543C35.6333 5.89088 35.6307 5.99702 35.6182 6.1084C35.5918 6.34328 35.5087 6.70051 35.3828 7.14844C35.1301 8.04789 34.696 9.34302 34.1611 10.8311C33.0969 13.7922 31.6283 17.5279 30.3838 20.46L35.3887 32.5625C35.6129 33.1052 35.3398 33.7266 34.7852 33.9229C34.1339 34.1533 33.3844 34.4141 32.7588 34.6221C32.4462 34.726 32.1636 34.8172 31.9395 34.8848C31.72 34.9509 31.545 34.9975 31.4551 35.0088C31.2099 35.0394 29.9589 35.1849 28.5215 35.2764C27.0887 35.3676 25.4534 35.4064 24.4473 35.2207C22.8562 34.9269 17.725 33.4309 15.3643 32.7217L15.3565 32.7197L15.3486 32.7158C14.1934 32.1935 11.1524 31.2382 8.26075 31.5996C5.99441 31.883 3.29677 32.6822 1.53126 33.2871C0.853032 33.5195 0.125798 33.0249 0.122081 32.3018L1.08782e-05 5.64844C-0.00193179 5.2241 0.256501 4.84783 0.632823 4.66895C1.37798 4.31473 2.17505 3.86021 3.31153 3.49902C4.45111 3.13689 5.93211 2.8672 8.06349 2.86719ZM32.6719 8.63477C31.5507 8.89349 28.8517 9.41016 27.0254 9.41016V33.0303C28.1693 33.152 31.1342 32.8936 32.8008 32.3154C32.9755 32.2548 32.626 31.4854 32.626 31.4854L28.167 20.4443L32.6719 8.63477ZM12.6289 8.94824V10.7969C9.37504 10.9518 7.04005 12.6345 7.04005 15.4014V15.4229C7.04005 17.9131 8.67777 19.2523 11.6328 19.9053L12.6289 20.1162V23.3916C11.334 23.2699 10.5814 22.7278 10.4043 21.7539L10.3936 21.7314L6.90724 21.7432L6.88478 21.7539C6.97335 24.5872 9.25332 26.1475 12.6289 26.2803V28.085H13.8789V26.2695C17.2988 26.0592 19.5898 24.3658 19.5899 21.5547V21.5322C19.5897 19.0533 18.0075 17.8141 14.8867 17.1279L13.8789 16.917V13.708C14.9745 13.8851 15.6946 14.4934 15.8496 15.5225L15.8604 15.5449L19.3359 15.5342L19.3467 15.5225C19.2248 12.8332 17.2212 11.04 13.8789 10.8076V8.94824H12.6289ZM13.8789 20.3926C15.3177 20.7578 15.8828 21.1341 15.8828 21.9531V21.9756C15.8826 22.8275 15.1626 23.2809 13.8789 23.3916V20.3926ZM12.6289 16.6299C11.3451 16.2868 10.7471 15.8545 10.7471 15.124V15.1025C10.7471 14.3057 11.3893 13.7962 12.6289 13.6855V16.6299Z" fill="#D3F7C6"/>
<path d="M62.916 3.30469C63.545 3.30469 64.1699 3.40658 64.7666 3.60547L65.1582 3.73535C65.5899 3.87929 65.9978 4.08705 66.3682 4.35156C66.7491 4.6237 67.0863 4.95261 67.3672 5.32715L67.4668 5.46094C67.764 5.85723 68.0074 6.29104 68.1914 6.75098L68.2451 6.88477C68.4554 7.41054 68.5884 7.96438 68.6396 8.52832L68.6562 8.70898C68.7015 9.2066 68.6827 9.7083 68.6006 10.2012L68.4697 10.9854C68.4237 11.2616 68.3372 11.5297 68.2119 11.7803L68.0645 12.0732C67.9658 12.2706 67.823 12.4428 67.6465 12.5752C67.4004 12.7598 67.1006 12.8593 66.793 12.8594H66.2695C65.9685 12.8594 65.6732 12.7778 65.415 12.623L65.3428 12.5801C65.1188 12.4457 64.9371 12.2502 64.8203 12.0166C64.7249 11.8259 64.6758 11.6146 64.6758 11.4014V10.4307L64.7695 9.58203C64.8139 9.18314 64.7547 8.77906 64.5967 8.41016L64.5332 8.26367C64.4142 7.98589 64.2242 7.74383 63.9824 7.5625C63.7985 7.42463 63.5892 7.32433 63.3662 7.26855L63.3018 7.25293C63.139 7.21223 62.9715 7.19144 62.8037 7.19141H62.457C61.8894 7.19141 61.3254 7.29039 60.792 7.48438L60.6318 7.54297C60.0918 7.73935 59.5837 8.01461 59.124 8.35938L58.3301 8.9541C58.0265 9.18177 57.746 9.43869 57.4922 9.7207L56.7939 10.4971C56.5429 10.7761 56.3191 11.0785 56.126 11.4004L54.959 13.3457L53.8379 15.8662C53.7212 16.1288 53.6248 16.3999 53.5479 16.6768L52.8535 19.1758L52.5879 21.0312C52.5487 21.3054 52.5293 21.5825 52.5293 21.8594V23.4551C52.5293 23.8403 52.567 24.2248 52.6426 24.6025L52.6992 24.8857C52.8012 25.3956 52.9716 25.8894 53.2041 26.3545L53.5381 27.0244C53.7269 27.402 53.9956 27.7343 54.3252 27.998C54.5304 28.1622 54.7574 28.2978 54.999 28.4014L55.0859 28.4385C55.5361 28.6314 56.0209 28.7305 56.5107 28.7305H56.8066C57.2992 28.7305 57.79 28.6591 58.2617 28.5176L58.5625 28.4268C58.9657 28.3058 59.3547 28.1419 59.7227 27.9375L60.2324 27.6543C60.495 27.5084 60.7463 27.3426 60.9834 27.1582L62.084 26.3018L63.3799 25.168L64.5137 23.8721L66.1328 21.9287L67.7529 19.8232L69.21 17.7178L70.377 15.7734C70.5702 15.4514 70.7946 15.1483 71.0459 14.8691L71.6338 14.2158C71.9604 13.853 72.3311 13.5325 72.7373 13.2617L73.0049 13.083C73.3885 12.8273 73.8048 12.6243 74.2422 12.4785C74.7709 12.3023 75.3245 12.212 75.8818 12.2119H76.623C77.3956 12.2119 78.1609 12.365 78.874 12.6621L79.4131 12.8867C79.6288 12.9766 79.8377 13.0819 80.0381 13.2021L80.4639 13.458C80.4914 13.4745 80.5177 13.493 80.543 13.5127L80.6875 13.6396C81.062 13.9333 81.6233 13.8276 81.8584 13.3965L82.207 12.7578C82.2871 12.6112 82.3942 12.481 82.5225 12.374L82.7773 12.1611C83.1147 11.88 83.5403 11.7266 83.9795 11.7266C84.4775 11.7266 84.9555 11.9242 85.3076 12.2764L85.3857 12.3545C85.5059 12.4747 85.6056 12.6136 85.6816 12.7656C85.8181 13.0385 85.8735 13.3452 85.8398 13.6484L85.7715 14.2568C85.743 14.5125 85.6878 14.7647 85.6064 15.0088L81.7227 26.6602C81.6947 26.7441 81.6807 26.8324 81.6807 26.9209V27.085C81.6807 27.3827 81.8906 27.6388 82.1826 27.6973C82.3761 27.736 82.577 27.6818 82.7236 27.5498L83.834 26.5498C84.0172 26.3849 84.1833 26.2017 84.3291 26.0029L85.8916 23.8721L87.835 20.7949L89.4053 18.1768C89.6526 17.7645 89.8489 17.3234 89.9883 16.8633L91.3076 12.5098C91.3676 12.3119 91.4492 12.1209 91.5518 11.9414L91.6865 11.7061C91.9184 11.3003 92.2851 10.9883 92.7227 10.8242L92.7793 10.8027C93.1437 10.6661 93.5428 10.6499 93.917 10.7568L93.9453 10.7656C94.2894 10.8639 94.5948 11.0663 94.8184 11.3457C95.0172 11.5942 95.1431 11.8932 95.1826 12.209L95.2471 12.7217C95.2717 12.9189 95.2497 13.1192 95.1836 13.3066L94.4629 15.3486C94.4018 15.522 94.5668 15.6898 94.7412 15.6318C94.7785 15.6194 94.812 15.597 94.8379 15.5674L95.9316 14.3174L96.9629 13.3896C97.3535 13.0381 97.7898 12.7409 98.2598 12.5059L98.8564 12.207C99.278 11.9963 99.7357 11.8659 100.205 11.8232L100.666 11.7812C101.065 11.745 101.467 11.8208 101.825 12C102.104 12.1395 102.349 12.3386 102.544 12.582L102.605 12.6592C102.797 12.8992 102.946 13.1714 103.043 13.4629L103.065 13.5303C103.168 13.8369 103.22 14.1582 103.22 14.4814V15.8291C103.22 16.1161 103.198 16.4036 103.156 16.6875L102.579 20.5879C102.575 20.6182 102.572 20.649 102.572 20.6797V20.793C102.572 21.1293 102.88 21.3814 103.21 21.3154C103.322 21.2931 103.423 21.2356 103.5 21.1514L105.001 19.5L105.52 18.833C105.927 18.3094 106.242 17.7201 106.452 17.0908L108.094 12.167C108.191 11.8755 108.338 11.6032 108.53 11.3633L108.779 11.0527C108.851 10.963 108.941 10.8893 109.044 10.8379C109.154 10.7827 109.276 10.7549 109.399 10.7549H110.009C110.535 10.7549 111.041 10.9636 111.413 11.3359L111.537 11.46C111.606 11.529 111.663 11.609 111.707 11.6963C111.77 11.8225 111.803 11.9615 111.803 12.1025V13.2354C111.803 13.3083 111.792 13.381 111.769 13.4502L111.455 14.3906C111.325 14.7795 111.79 15.092 112.102 14.8252C112.119 14.8106 112.134 14.7945 112.148 14.7773L112.436 14.4326C112.768 14.0337 113.153 13.6813 113.58 13.3857L114.641 12.6514C114.907 12.4667 115.192 12.3094 115.49 12.1816L115.617 12.1279C115.988 11.9692 116.38 11.8673 116.781 11.8271L117.241 11.7812C117.604 11.7449 117.971 11.8016 118.307 11.9453C118.712 12.1189 119.055 12.4125 119.288 12.7861L119.54 13.1895C119.672 13.4003 119.77 13.6309 119.83 13.8721C119.877 14.0602 119.9 14.2534 119.9 14.4473V15.7109C119.9 15.8612 119.89 16.0114 119.869 16.1602L119.201 20.833C119.152 21.1762 119.493 21.444 119.814 21.3154C119.871 21.2928 119.923 21.2589 119.966 21.2158L121.196 19.9854L122.372 18.5488C122.56 18.3193 122.73 18.0756 122.881 17.8203L124.759 14.6416L126.331 12.498C126.47 12.3081 126.631 12.1347 126.81 11.9814L127.132 11.7051C127.482 11.4051 127.928 11.2403 128.389 11.2402C128.962 11.2402 129.506 11.4951 129.873 11.9355L130.027 12.1201C130.078 12.181 130.122 12.2475 130.157 12.3184C130.229 12.4611 130.266 12.6188 130.266 12.7783V13.0322C130.266 13.4475 130.142 13.8537 129.912 14.1992L129.294 15.127L127.836 17.2324L126.541 19.5L125.42 22.1621C125.304 22.4382 125.208 22.723 125.136 23.0137L124.934 23.8213C124.818 24.2853 124.759 24.7619 124.759 25.2402V26.7021C124.759 26.7583 124.773 26.814 124.798 26.8643C124.871 27.0101 125.032 27.0886 125.192 27.0566L125.521 26.9912C125.659 26.9637 125.786 26.9007 125.892 26.8086L126.677 26.1211C126.909 25.9179 127.121 25.6928 127.31 25.4482L128.646 23.71L130.428 21.1191L132.371 18.3662L133.99 16.2607L135.197 14.9434C135.578 14.5279 136.018 14.1698 136.501 13.8799L137.214 13.4521C137.332 13.3816 137.457 13.3237 137.587 13.2803C137.779 13.2163 137.98 13.1836 138.183 13.1836H139.054C139.445 13.1836 139.825 13.3169 140.131 13.5615C140.352 13.7387 140.527 13.9678 140.639 14.2285L140.803 14.6133C140.903 14.8472 140.977 15.0914 141.022 15.3418L141.257 16.6279C141.271 16.7069 141.278 16.787 141.278 16.8672C141.278 17.8958 142.389 18.5406 143.282 18.0303L143.545 17.8799L143.716 17.7949C144.03 17.638 144.376 17.5567 144.727 17.5566H145.021C145.521 17.5568 145.995 17.7839 146.308 18.1748C146.409 18.3012 146.491 18.4424 146.551 18.5928L146.68 18.915C146.749 19.0874 146.784 19.2713 146.784 19.457C146.784 19.7985 146.665 20.1293 146.446 20.3916L146.229 20.6523C146.061 20.8539 145.861 21.0272 145.637 21.1641L143.06 22.7383L142.592 23.0391C141.43 23.7861 140.569 24.9208 140.163 26.2412L140.145 26.3018L139.173 29.541L137.554 33.5898L136.096 36.3428L134.638 38.4482L133.562 39.6436C133.309 39.9257 133.027 40.1824 132.724 40.4102L132.374 40.6729C132.05 40.9159 131.693 41.1116 131.313 41.2539L131.229 41.2852C130.806 41.4439 130.357 41.5254 129.905 41.5254C129.5 41.5254 129.097 41.4592 128.713 41.3311L128.382 41.2207C128.02 41.1 127.675 40.9315 127.357 40.7197C127.03 40.5017 126.734 40.2399 126.479 39.9414L126.337 39.7764C126.043 39.4334 125.812 39.0411 125.653 38.6182C125.491 38.1844 125.407 37.725 125.407 37.2617V36.7363C125.407 36.1531 125.494 35.5731 125.666 35.0156L125.864 34.3711C125.991 33.9594 126.162 33.5625 126.376 33.1885L127.351 31.4844L128.528 29.9531C128.636 29.8132 128.48 29.6236 128.322 29.7021L127.25 30.417C126.994 30.5875 126.716 30.7231 126.425 30.8203C126.072 30.9378 125.704 30.998 125.332 30.998H125.128C124.669 30.998 124.212 30.9307 123.772 30.7988L123.367 30.6777C123.003 30.5684 122.663 30.3899 122.366 30.1523C122.128 29.9616 121.919 29.7355 121.75 29.4814L121.658 29.3428C121.459 29.0442 121.301 28.7203 121.188 28.3799L120.95 27.6699C120.898 27.5147 120.872 27.3521 120.872 27.1885V26.0938C120.872 25.6986 120.511 25.402 120.123 25.4795C120.083 25.4875 120.042 25.4922 120.001 25.4922H119.073C118.656 25.4921 118.243 25.4169 117.853 25.2705C117.388 25.0963 116.966 24.8245 116.615 24.4736L116.338 24.1963L116.025 23.8057C115.804 23.5287 115.633 23.2144 115.521 22.8779C115.418 22.5713 115.366 22.25 115.366 21.9268V20.1094C115.366 19.8116 115.389 19.5141 115.435 19.2197L115.687 17.5811C115.689 17.5647 115.69 17.5478 115.69 17.5312C115.69 17.2417 115.34 17.097 115.135 17.3018L114.88 17.5566L113.099 19.6621L111.803 21.6055L110.184 24.1963L108.078 28.083L106.896 30.2988C106.821 30.4404 106.725 30.5701 106.611 30.6836C106.306 30.9887 105.892 31.1601 105.461 31.1602H105.271C104.783 31.1601 104.31 30.989 103.936 30.6768L103.675 30.459C103.589 30.3872 103.518 30.2986 103.468 30.1982C103.411 30.0853 103.382 29.9602 103.382 29.834V28.6445C103.382 28.4867 103.402 28.3293 103.442 28.1768L103.993 26.082C104.085 25.7349 103.781 25.412 103.429 25.4824C103.398 25.4886 103.366 25.4922 103.334 25.4922H102.738C102.097 25.4922 101.464 25.3426 100.89 25.0557L100.795 25.0078C100.365 24.7926 99.9811 24.4942 99.668 24.1289C99.3401 23.7464 99.0959 23.299 98.9512 22.8164L98.8838 22.5918C98.7519 22.1522 98.6855 21.6953 98.6855 21.2363V20.1475L99.0088 17.5566C99.0088 17.2578 98.6478 17.108 98.4365 17.3193L98.1992 17.5566L96.9033 19.1758L94.6367 22.415L92.8555 25.4922L90.9111 29.2168L90.0684 30.623C89.9841 30.7636 89.8688 30.8837 89.7324 30.9746C89.5508 31.0956 89.3374 31.1601 89.1191 31.1602H88.0098C87.8938 31.1602 87.778 31.1412 87.668 31.1045C87.46 31.0351 87.2781 30.9039 87.1465 30.7285L86.9531 30.4707C86.8939 30.3917 86.8541 30.2996 86.8379 30.2021L86.8076 30.0166C86.7548 29.6996 86.4095 29.5242 86.1221 29.668C86.0763 29.6909 86.0343 29.7216 85.998 29.7578L85.5928 30.1631C85.3608 30.3951 85.1007 30.5978 84.8193 30.7666L83.9375 31.2959C83.7298 31.4205 83.5045 31.5135 83.2695 31.5723C83.0748 31.621 82.8746 31.6455 82.6738 31.6455H81.9268C81.442 31.6455 80.9599 31.5674 80.5 31.4141L80.2402 31.3281C79.9076 31.2172 79.5971 31.0481 79.3232 30.8291C79.0615 30.6197 78.8369 30.3672 78.6592 30.083L78.1943 29.3398C78.1432 29.2581 78.1018 29.1706 78.0713 29.0791L77.8564 28.4336C77.8189 28.321 77.7134 28.2451 77.5947 28.2451C77.5154 28.2452 77.44 28.2793 77.3877 28.3389L76.3359 29.541L75.6055 30.1797C75.2304 30.5079 74.8149 30.7869 74.3691 31.0098L74.1006 31.1445C73.8641 31.2628 73.6166 31.359 73.3623 31.4316C72.8656 31.5735 72.3468 31.624 71.832 31.5811L71.5605 31.5586C70.9708 31.5094 70.3955 31.3477 69.8662 31.083L69.8477 31.0742C69.3197 30.8102 68.8487 30.4452 68.46 30.001C68.0997 29.5892 67.8161 29.1158 67.624 28.6035L67.4619 28.1729C67.4397 28.1135 67.424 28.051 67.415 27.9883L67.3262 27.3623C67.2952 27.1475 67.0771 27.0127 66.8711 27.0811C66.8123 27.1006 66.7595 27.136 66.7188 27.1826L65.6475 28.4072L64.4072 29.5225C64.1545 29.7499 63.883 29.9556 63.5947 30.1357L61.4365 31.4844L60.2686 32.0146C59.861 32.1999 59.4331 32.338 58.9941 32.4258L58.6035 32.5039C58.2257 32.5794 57.8413 32.6172 57.4561 32.6172H56.3242C55.741 32.6172 55.1609 32.5309 54.6035 32.3594L54.0186 32.1787C53.5672 32.0398 53.1345 31.8465 52.7295 31.6035L52.4873 31.459C51.9785 31.1537 51.5192 30.7726 51.125 30.3291L50.9385 30.1191C50.5972 29.7353 50.3079 29.308 50.0781 28.8486L49.5781 27.8477C49.3872 27.4659 49.2383 27.0645 49.1348 26.6504L48.8047 25.3301L48.6426 24.0342V21.5781C48.6426 21.2727 48.6663 20.9677 48.7139 20.666L49.1289 18.042L49.9385 14.9648L50.9102 12.5361L52.5293 9.62109L53.9873 7.67773L54.584 6.98145C54.8332 6.69065 55.11 6.42413 55.4111 6.1875L56.7588 5.12891C57.0692 4.88503 57.4038 4.67364 57.7568 4.49707L58.5947 4.07812C58.9766 3.88718 59.3787 3.73832 59.793 3.63477L60.4141 3.47949C60.8781 3.36349 61.3547 3.3047 61.833 3.30469H62.916ZM133.181 30.5127L131.723 32.1318L130.428 33.751L129.294 35.6943L129.132 37.1523L129.456 37.6377L130.266 37.7998L131.237 36.666L132.371 35.0469L133.666 32.6172L135.124 29.3789L135.286 28.7305H134.8L133.181 30.5127ZM74.5547 16.584L73.583 17.7178L72.4492 19.8232L71.4775 22.7383L70.9912 25.3301V26.7871L71.4775 27.7588L72.2871 27.9209L73.4209 27.1113L74.2305 26.3018L75.5264 24.6816L76.8213 22.7383L79.0889 18.8516L79.251 17.8799L78.2793 16.7461L76.9834 15.9365H75.6885L74.5547 16.584ZM137.229 18.2041L137.067 18.3662L134.477 22.2529L132.533 24.8438L130.751 27.1113H131.237L132.533 25.9775L134.477 24.1963L137.067 22.0908L137.392 21.2812L137.554 18.2041H137.229Z" fill="#D3F7C6"/>
</svg>
