<svg width="51" height="51" viewBox="0 0 51 51" fill="none" xmlns="http://www.w3.org/2000/svg">
<rect width="51" height="51" rx="20" fill="#BCF0B5"/>
<path d="M23 26.75C26.1184 26.7501 28.853 28.453 30.5644 31.0225C30.7283 31.2686 30.8932 31.5126 31.0048 31.7402C31.1293 31.9942 31.2131 32.2736 31.1933 32.6045C31.1775 32.8677 31.0891 33.1183 30.9804 33.3213C30.8718 33.5242 30.7122 33.7364 30.5019 33.8955C30.2215 34.1076 29.9155 34.186 29.6259 34.2197C29.3552 34.2512 29.0279 34.25 28.6777 34.25H17.3222C16.972 34.25 16.6448 34.2512 16.374 34.2197C16.0843 34.186 15.7785 34.1076 15.498 33.8955C15.2876 33.7364 15.1282 33.5243 15.0195 33.3213C14.9108 33.1183 14.8224 32.8678 14.8066 32.6045C14.7868 32.2736 14.8706 31.9942 14.9951 31.7402C15.1067 31.5126 15.2706 31.2686 15.4345 31.0225C17.146 28.4528 19.8813 26.75 23 26.75ZM30.83 28C31.0161 27.6301 31.4669 27.4811 31.8369 27.667C33.4265 28.4656 34.7743 29.7396 35.7519 31.3145C35.9106 31.5701 36.099 31.851 36.1582 32.2324C36.2209 32.638 36.1111 33.0339 35.9404 33.3408C35.7696 33.6478 35.491 33.9498 35.1132 34.1104C34.7524 34.2637 34.358 34.25 34 34.25C33.5858 34.25 33.25 33.9142 33.25 33.5C33.25 33.0858 33.5858 32.75 34 32.75C34.2216 32.75 34.3461 32.7494 34.4394 32.7422C34.4807 32.739 34.5038 32.7349 34.5156 32.7324C34.521 32.7313 34.5254 32.7305 34.5254 32.7305C34.5254 32.7305 34.539 32.7239 34.5605 32.7031C34.5832 32.6812 34.6086 32.6496 34.6298 32.6113C34.651 32.5732 34.6642 32.5356 34.6709 32.5049C34.6765 32.4786 34.6759 32.4644 34.6757 32.4619C34.6744 32.4534 34.6731 32.4409 34.6513 32.3975C34.6211 32.3371 34.574 32.261 34.4775 32.1055C33.633 30.7451 32.4851 29.6709 31.163 29.0068C30.793 28.8208 30.6441 28.3701 30.83 28ZM31.25 20C31.25 18.5287 30.4025 17.2542 29.166 16.6396C28.795 16.4553 28.6438 16.0047 28.8281 15.6338C29.0125 15.2629 29.4631 15.1116 29.8339 15.2959C31.5607 16.1541 32.75 17.9376 32.75 20C32.75 22.0624 31.5607 23.8459 29.8339 24.7041C29.4631 24.8884 29.0125 24.7371 28.8281 24.3662C28.6438 23.9953 28.795 23.5447 29.166 23.3604C30.4025 22.7458 31.25 21.4713 31.25 20ZM28.25 20C28.25 22.8994 25.8994 25.2499 23 25.25C20.1005 25.25 17.75 22.8995 17.75 20C17.75 17.1005 20.1005 14.75 23 14.75C25.8994 14.7501 28.25 17.1006 28.25 20Z" fill="#064102"/>
</svg>
