<svg width="51" height="51" viewBox="0 0 51 51" fill="none" xmlns="http://www.w3.org/2000/svg">
<rect width="51" height="51" rx="20" fill="#BCF0B5"/>
<path d="M20 15h11c.552 0 1 .448 1 1v2h4.5c.828 0 1.5.672 1.5 1.5v3c0 2.485-2.015 4.5-4.5 4.5H32.7c-.78 2.18-2.65 3.86-4.95 4.38V34h3.5c.828 0 1.5.672 1.5 1.5S32.078 37 31.25 37h-11.5c-.828 0-1.5-.672-1.5-1.5S18.922 34 19.75 34h3.5v-2.62c-2.3-.52-4.17-2.2-4.95-4.38H16.5c-2.485 0-4.5-2.015-4.5-4.5v-3c0-.828.672-1.5 1.5-1.5H18v-2c0-.552.448-1 1-1zM18 21h-3v1.5c0 1.105.895 2 2 2h.5C17.18 23.82 17.06 23.065 17.06 22.3L18 21zm15 0v1.3c0 .765-.12 1.52-.44 2.2h.44c1.105 0 2-.895 2-2V21h-2z" fill="#064102" fill-opacity="0.85"/>
</svg>
