<svg width="51" height="51" viewBox="0 0 51 51" fill="none" xmlns="http://www.w3.org/2000/svg">
<rect width="51" height="51" rx="20" fill="#BCF0B5"/>
<path d="M25.5 12.5c.35 0 .686.14.934.388l5 5a1.322 1.322 0 01-1.868 1.868L26.82 16.81V28.5a1.322 1.322 0 01-2.644 0V16.81l-2.746 2.946a1.322 1.322 0 01-1.868-1.868l5-5c.248-.247.584-.388.934-.388zM16.5 24.5c0-1.105.895-2 2-2h3a1.322 1.322 0 010 2.644h-2.678V35.5h13.356V25.144h-2.678a1.322 1.322 0 010-2.644h3c1.105 0 2 .895 2 2V36c0 1.105-.895 2-2 2H18.5c-1.105 0-2-.895-2-2V24.5z" fill="#064102" fill-opacity="0.85"/>
</svg>
