<svg width="51" height="51" viewBox="0 0 51 51" fill="none" xmlns="http://www.w3.org/2000/svg">
<rect width="51" height="51" rx="20" fill="#BCF0B5"/>
<path d="M18 14 H15 A1 1 0 0 0 14 15 V18" stroke="#064102" stroke-width="2.5" stroke-linecap="round" fill="none"/>
<path d="M33 14 H36 A1 1 0 0 1 37 15 V18" stroke="#064102" stroke-width="2.5" stroke-linecap="round" fill="none"/>
<path d="M37 33 V36 A1 1 0 0 1 36 37 H33" stroke="#064102" stroke-width="2.5" stroke-linecap="round" fill="none"/>
<path d="M14 33 V36 A1 1 0 0 0 15 37 H18" stroke="#064102" stroke-width="2.5" stroke-linecap="round" fill="none"/>
<rect x="19" y="19" width="4.5" height="4.5" rx="0.5" fill="#064102"/>
<rect x="27.5" y="19" width="4.5" height="4.5" rx="0.5" fill="#064102"/>
<rect x="19" y="27.5" width="4.5" height="4.5" rx="0.5" fill="#064102"/>
<rect x="27.5" y="27.5" width="4.5" height="4.5" rx="0.5" fill="#064102"/>
</svg>
