<svg width="51" height="51" viewBox="0 0 51 51" fill="none" xmlns="http://www.w3.org/2000/svg">
<rect width="51" height="51" rx="20" fill="#BCF0B5"/>
<g clip-path="url(#clip0_371_288)">
<path d="M33.0898 33.5576H36C37.3477 33.5576 38.041 32.9131 38.041 31.6338V17.2295C38.041 15.9502 37.3477 15.2959 36 15.2959H33.0898C31.7617 15.2959 31.0684 15.9502 31.0684 17.2295V31.6338C31.0684 32.9131 31.7617 33.5576 33.0898 33.5576Z" fill="#064102" fill-opacity="0.85"/>
<path d="M24.3105 33.5576H27.2207C28.5684 33.5576 29.252 32.9131 29.252 31.6338V20.0811C29.252 18.8018 28.5684 18.1475 27.2207 18.1475H24.3105C22.9727 18.1475 22.2793 18.8018 22.2793 20.0811V31.6338C22.2793 32.9131 22.9727 33.5576 24.3105 33.5576Z" fill="#064102" fill-opacity="0.85"/>
<path d="M15.5312 33.5576H18.4316C19.7793 33.5576 20.4727 32.9131 20.4727 31.6338V22.9228C20.4727 21.6436 19.7793 20.9893 18.4316 20.9893H15.5312C14.1934 20.9893 13.5 21.6436 13.5 22.9228V31.6338C13.5 32.9131 14.1934 33.5576 15.5312 33.5576Z" fill="#064102" fill-opacity="0.85"/>
</g>
<defs>
<clipPath id="clip0_371_288">
<rect width="24.9023" height="18.4082" fill="white" transform="translate(13.5 15.2959)"/>
</clipPath>
</defs>
</svg>
