<svg width="51" height="51" viewBox="0 0 51 51" fill="none" xmlns="http://www.w3.org/2000/svg">
<rect width="51" height="51" rx="20" fill="#BCF0B5"/>
<path d="M24.3369 40.4909V10.5818H26.253V40.4909H24.3369ZM29.8631 20.1504C29.7541 19.13 29.2945 18.3356 28.4845 17.767C27.6822 17.1984 26.6385 16.9141 25.3534 16.9141C24.4499 16.9141 23.6749 17.0504 23.0284 17.323C22.382 17.5956 21.8874 17.9656 21.5447 18.4329C21.2019 18.9003 21.0267 19.4338 21.0189 20.0335C21.0189 20.532 21.1318 20.9643 21.3577 21.3304C21.5914 21.6964 21.9068 22.008 22.3041 22.265C22.7013 22.5143 23.1414 22.7246 23.6243 22.8959C24.1072 23.0673 24.594 23.2114 25.0847 23.3282L27.3279 23.889C28.2314 24.0993 29.0998 24.3836 29.9332 24.7419C30.7744 25.1002 31.526 25.5519 32.1881 26.0971C32.8579 26.6423 33.3876 27.3005 33.777 28.0716C34.1664 28.8427 34.3612 29.7462 34.3612 30.7821C34.3612 32.1841 34.0029 33.4186 33.2863 34.4857C32.5697 35.545 31.5338 36.3745 30.1786 36.9742C28.8311 37.5662 27.1993 37.8622 25.2833 37.8622C23.4218 37.8622 21.8056 37.574 20.4347 36.9976C19.0717 36.4212 18.0046 35.58 17.2335 34.474C16.4702 33.368 16.0574 32.0205 15.9951 30.4316H20.2595C20.3218 31.265 20.5788 31.9582 21.0306 32.5112C21.4823 33.0642 22.0704 33.477 22.7948 33.7496C23.5269 34.0223 24.3447 34.1586 25.2482 34.1586C26.1907 34.1586 27.0163 34.0184 27.7251 33.738C28.4417 33.4498 29.0025 33.0525 29.4075 32.5463C29.8125 32.0322 30.0189 31.4325 30.0267 30.7471C30.0189 30.124 29.8359 29.6099 29.4776 29.2049C29.1193 28.7921 28.6169 28.4494 27.9704 28.1767C27.3318 27.8963 26.584 27.6471 25.7273 27.429L23.0051 26.728C21.0345 26.2218 19.4767 25.4546 18.3318 24.4264C17.1946 23.3905 16.626 22.0158 16.626 20.3022C16.626 18.8925 17.0077 17.6579 17.771 16.5987C18.5421 15.5394 19.5897 14.7177 20.9138 14.1335C22.2379 13.5415 23.7372 13.2456 25.4118 13.2456C27.1098 13.2456 28.5974 13.5415 29.8748 14.1335C31.16 14.7177 32.1686 15.5316 32.9008 16.5753C33.6329 17.6112 34.0107 18.8029 34.034 20.1504H29.8631Z" fill="#064102"/>
</svg>
