<svg width="67" height="67" viewBox="0 0 67 67" fill="none" xmlns="http://www.w3.org/2000/svg">
<path d="M33.4978 43.3836C34.867 43.3836 35.9773 44.4933 35.9773 45.8625C35.9773 47.2316 34.8669 48.3413 33.4978 48.3413H33.4669C32.0979 48.3412 30.9882 47.2315 30.9881 45.8625C30.9881 44.4934 32.0978 43.3837 33.4669 43.3836H33.4978ZM30.9881 33.4669V21.0721C30.9881 19.703 32.0978 18.5927 33.4669 18.5926C34.8361 18.5926 35.9465 19.703 35.9465 21.0721V33.4669C35.9465 34.8361 34.8361 35.9465 33.4669 35.9465C32.0978 35.9464 30.9881 34.836 30.9881 33.4669ZM66.9346 33.4669C66.9346 51.9504 51.9504 66.9346 33.4669 66.9346C14.9835 66.9345 0 51.9504 0 33.4669C6.37558e-05 14.9836 14.9836 6.37475e-05 33.4669 0C51.9504 0 66.9345 14.9835 66.9346 33.4669Z" fill="#BCF0B5"/>
<path d="M33.498 44.3848C34.8671 44.3848 35.9775 45.4945 35.9775 46.8636C35.9774 48.2327 34.8671 49.3424 33.498 49.3424H33.4671C32.0981 49.3424 30.9883 48.2327 30.9883 46.8636C30.9883 45.4945 32.098 44.3849 33.4671 44.3848H33.498ZM30.9883 34.4681V22.0733C30.9883 20.7042 32.098 19.5938 33.4671 19.5938C34.8363 19.5938 35.9466 20.7041 35.9466 22.0733V34.4681C35.9466 35.8372 34.8363 36.9476 33.4671 36.9476C32.098 36.9476 30.9883 35.8372 30.9883 34.4681Z" fill="white"/>
</svg>
