<svg width="22" height="22" viewBox="0 0 22 22" fill="none" xmlns="http://www.w3.org/2000/svg">
<path d="M20.53 6.4175L13.29 0.7875C11.94 -0.2625 10.06 -0.2625 8.71 0.7875L1.47 6.4175C0.54 7.1375 0 8.2475 0 9.4275V18.2075C0 20.3075 1.68 22.0075 3.76 22.0075H18.24C20.32 22.0075 22 20.3075 22 18.2075V9.4275C22 8.2475 21.46 7.1375 20.53 6.4175ZM14.66 18.3375H7.33C6.82 18.3375 6.41 17.9275 6.41 17.4175C6.41 16.9075 6.82 16.4975 7.33 16.4975H14.66C15.17 16.4975 15.58 16.9075 15.58 17.4175C15.58 17.9275 15.17 18.3375 14.66 18.3375Z" fill="black"/>
</svg>
