<svg width="100" height="28" viewBox="0 0 100 28" fill="none" xmlns="http://www.w3.org/2000/svg">
<path d="M5.32032 1.89062C6.07949 1.89071 7.55123 2.20535 9.07129 2.59375C10.5955 2.98323 12.1817 3.45013 13.1768 3.76172H13.1777C13.558 3.88513 14.18 4.07397 14.8086 4.2373C15.439 4.40111 16.0697 4.5378 16.4707 4.56152C16.9801 4.59149 18.2429 4.62622 19.6045 4.53613C20.9698 4.44577 22.4208 4.23101 23.3184 3.76758L23.3643 3.75195C23.3821 3.74912 23.4024 3.74919 23.4229 3.75684C23.4646 3.77259 23.4849 3.80849 23.4941 3.83496C23.5114 3.88478 23.5093 3.95554 23.501 4.0293C23.4835 4.18424 23.4287 4.41948 23.3457 4.71484C23.179 5.30824 22.8929 6.1628 22.54 7.14453C21.8377 9.09853 20.869 11.5642 20.0479 13.499L23.3506 21.4834C23.4986 21.8414 23.3179 22.2512 22.9522 22.3809C22.5224 22.5329 22.0271 22.7055 21.6143 22.8428C21.4081 22.9113 21.2211 22.9711 21.0732 23.0156C20.9284 23.0593 20.8131 23.0912 20.7539 23.0986C20.5904 23.119 19.7655 23.2141 18.8184 23.2744C17.8732 23.3346 16.7946 23.3607 16.1309 23.2383C15.0806 23.0443 11.6941 22.0568 10.1367 21.5889L10.127 21.5859V21.585C9.36438 21.2403 7.35786 20.6102 5.4502 20.8486C3.95481 21.0356 2.17463 21.5628 1.00977 21.9619C0.562195 22.1151 0.0822678 21.7888 0.0800826 21.3115L4.48939e-06 3.72461C-0.00100704 3.44498 0.16901 3.19708 0.416997 3.0791C0.908612 2.84542 1.43485 2.54593 2.18457 2.30762C2.93644 2.06868 3.91412 1.89066 5.32032 1.89062ZM21.5576 5.69629C20.8178 5.86701 19.037 6.20801 17.832 6.20801V21.793C18.5868 21.8733 20.544 21.7029 21.6436 21.3213C21.758 21.2803 21.5273 20.7734 21.5273 20.7734L18.585 13.4883L21.5576 5.69629ZM8.33301 5.90332V7.12305C6.18602 7.22528 4.64454 8.33546 4.64454 10.1611V10.1758C4.6447 11.8186 5.72612 12.702 7.67579 13.1328L8.33301 13.2715V15.4336C7.47862 15.3533 6.9821 14.9951 6.86524 14.3525L6.85743 14.3379L4.55762 14.3457L4.54297 14.3525C4.6014 16.222 6.10569 17.2512 8.33301 17.3389V18.5293H9.15821V17.332C11.4146 17.1932 12.9258 16.0755 12.9258 14.2207V14.2061C12.9256 12.5705 11.8814 11.7525 9.82227 11.2998L9.15821 11.1611V9.04395C9.88101 9.16085 10.3558 9.56215 10.458 10.2412L10.4648 10.2559L12.7578 10.248L12.7656 10.2412C12.6853 8.46671 11.3635 7.2833 9.15821 7.12988V5.90332H8.33301ZM9.15821 13.4541C10.1074 13.6951 10.4795 13.944 10.4795 14.4844V14.499C10.4793 15.061 10.005 15.3606 9.15821 15.4336V13.4541ZM8.33301 10.9717C7.48607 10.7453 7.09196 10.4603 7.0918 9.97852V9.96387C7.0918 9.43807 7.51511 9.10232 8.33301 9.0293V10.9717Z" fill="#D3F7C6"/>
<path d="M41.5137 2.17969C41.9287 2.17969 42.3416 2.24669 42.7354 2.37793L42.9932 2.46387C43.2779 2.55879 43.5468 2.69573 43.791 2.87012C44.0424 3.0497 44.2648 3.26748 44.4502 3.51465L44.5166 3.60254C44.7126 3.86392 44.8738 4.14979 44.9951 4.45312L45.0303 4.54199C45.169 4.88882 45.2562 5.25398 45.29 5.62598L45.3008 5.74609C45.3306 6.07435 45.3188 6.40534 45.2646 6.73047L45.1787 7.24707C45.1483 7.42947 45.0905 7.60707 45.0078 7.77246L44.9111 7.96582C44.846 8.09609 44.7513 8.20949 44.6348 8.29688C44.4724 8.41867 44.2743 8.48438 44.0713 8.48438H43.7266C43.5278 8.48438 43.3325 8.43039 43.1621 8.32812L43.1152 8.2998C42.9674 8.21113 42.8476 8.08189 42.7705 7.92773C42.7076 7.8019 42.6748 7.66314 42.6748 7.52246V6.88184L42.7373 6.32129C42.7665 6.05808 42.7264 5.79127 42.6221 5.54785L42.5811 5.45117C42.5025 5.26806 42.3771 5.10884 42.2178 4.98926C42.0964 4.8982 41.9578 4.83173 41.8105 4.79492L41.7676 4.78516C41.6602 4.75835 41.5501 4.74415 41.4395 4.74414H41.2109C40.8364 4.74414 40.4643 4.80951 40.1123 4.9375L40.0068 4.97656C39.6506 5.10611 39.315 5.28723 39.0117 5.51465L38.4883 5.90723C38.2879 6.0575 38.1021 6.22694 37.9346 6.41309L37.4746 6.9248C37.3088 7.109 37.1607 7.30899 37.0332 7.52148L36.2637 8.80469L35.5244 10.4678C35.4474 10.6411 35.3828 10.8202 35.332 11.0029L34.874 12.6523L34.6992 13.876C34.6734 14.0567 34.6602 14.2393 34.6602 14.4219V15.4756C34.6602 15.7297 34.6855 15.9832 34.7354 16.2324L34.7725 16.4189C34.8398 16.7555 34.952 17.0817 35.1055 17.3887L35.3262 17.8301C35.4508 18.0793 35.6282 18.2986 35.8457 18.4727C35.9811 18.5809 36.1307 18.671 36.29 18.7393L36.3477 18.7637C36.6445 18.8909 36.9641 18.957 37.2871 18.957H37.4824C37.8074 18.957 38.1311 18.9088 38.4424 18.8154L38.6416 18.7559C38.9076 18.676 39.1645 18.5675 39.4072 18.4326L39.7432 18.2461C39.9163 18.1499 40.0819 18.0406 40.2383 17.9189L40.9648 17.3535L41.8203 16.6055L42.5684 15.751L43.6367 14.4688L44.7051 13.0791L45.667 11.6904L46.4365 10.4072C46.564 10.1947 46.7122 9.99473 46.8779 9.81055L47.2656 9.37891C47.4811 9.13952 47.7262 8.92866 47.9941 8.75L48.1709 8.63184C48.4239 8.46322 48.6979 8.32859 48.9863 8.23242C49.3353 8.11609 49.7015 8.05664 50.0693 8.05664H50.5576C51.0673 8.05664 51.5725 8.15753 52.043 8.35352L52.3984 8.50195C52.5409 8.56132 52.6792 8.63153 52.8115 8.71094L53.0918 8.87891C53.1281 8.90068 53.1625 8.9271 53.1924 8.95703C53.4368 9.20107 53.8472 9.14211 54.0127 8.83887L54.2422 8.41699C54.2951 8.32014 54.3664 8.2347 54.4512 8.16406L54.6191 8.02344C54.8418 7.83798 55.1223 7.73633 55.4121 7.73633C55.7407 7.73634 56.0558 7.86728 56.2881 8.09961L56.3398 8.15039C56.4191 8.22967 56.485 8.32162 56.5352 8.42188C56.6252 8.60193 56.6619 8.8048 56.6396 9.00488L56.5947 9.40625C56.576 9.57494 56.539 9.74132 56.4854 9.90234L53.9229 17.5908C53.9044 17.6462 53.8945 17.7043 53.8945 17.7627V17.8701C53.8945 18.0666 54.0339 18.2359 54.2266 18.2744C54.3542 18.2999 54.4863 18.2638 54.583 18.1768L55.3154 17.5176C55.4364 17.4087 55.5463 17.2875 55.6426 17.1562L56.6729 15.751L57.9561 13.7207L58.9922 11.9932C59.1554 11.7211 59.284 11.4296 59.376 11.126L60.2471 8.25293C60.2866 8.12261 60.3407 7.99715 60.4082 7.87891L60.4971 7.72363C60.65 7.45593 60.892 7.24988 61.1807 7.1416L61.2188 7.12695C61.459 7.0369 61.722 7.02624 61.9688 7.09668L61.9873 7.10254C62.2143 7.1674 62.416 7.30103 62.5635 7.48535C62.6946 7.64925 62.7776 7.84643 62.8037 8.05469L62.8467 8.39355C62.8629 8.5236 62.8483 8.65571 62.8047 8.7793L62.3291 10.127C62.2891 10.2412 62.3977 10.3516 62.5127 10.3135C62.5371 10.3053 62.5591 10.2908 62.5762 10.2715L63.2988 9.44629L63.9785 8.83398C64.2364 8.60191 64.5247 8.40613 64.835 8.25098L65.2285 8.05371C65.5067 7.91463 65.8084 7.82894 66.1182 7.80078L66.4219 7.77344C66.6851 7.7495 66.9501 7.79882 67.1865 7.91699C67.3706 8.00901 67.5326 8.14012 67.6611 8.30078L67.7021 8.35156C67.8288 8.50985 67.9261 8.68954 67.9902 8.88184L68.0049 8.92676C68.0723 9.12907 68.1074 9.34143 68.1074 9.55469V10.4443C68.1074 10.6336 68.0932 10.8226 68.0654 11.0098L67.6846 13.583C67.6816 13.6029 67.6797 13.6235 67.6797 13.6436V13.7188C67.6797 13.9408 67.8829 14.107 68.1006 14.0635C68.1743 14.0487 68.2414 14.0107 68.292 13.9551L69.2822 12.8652L69.625 12.4258C69.8936 12.0803 70.1018 11.6915 70.2402 11.2764L71.3232 8.02734C71.3874 7.83499 71.4847 7.65541 71.6113 7.49707L71.7754 7.29199C71.8228 7.23277 71.8823 7.18431 71.9502 7.15039C72.0229 7.11402 72.1032 7.09475 72.1846 7.09473H72.5869C72.9344 7.0948 73.2679 7.23375 73.5137 7.47949L73.5947 7.56055C73.6403 7.60614 73.6782 7.65913 73.707 7.7168C73.7486 7.79994 73.7704 7.89142 73.7705 7.98438V8.73242C73.7705 8.78051 73.7633 8.82841 73.748 8.87402L73.541 9.49414C73.4555 9.75074 73.7624 9.95727 73.9678 9.78125C73.979 9.7716 73.9895 9.7604 73.999 9.74902L74.1885 9.52246C74.4078 9.25929 74.6617 9.02703 74.9434 8.83203L75.6436 8.34668C75.8194 8.22495 76.0075 8.12137 76.2041 8.03711L76.2871 8.00098C76.5315 7.89625 76.7911 7.83017 77.0557 7.80371L77.3594 7.77246C77.599 7.74857 77.8412 7.78601 78.0625 7.88086C78.3295 7.99537 78.555 8.18916 78.709 8.43555L78.876 8.70215C78.9628 8.84119 79.0266 8.99331 79.0664 9.15234C79.0975 9.27659 79.1133 9.40416 79.1133 9.53223V10.3652C79.1133 10.4644 79.1068 10.5639 79.0928 10.6621L78.6523 13.7451C78.62 13.9715 78.8443 14.1483 79.0566 14.0635C79.094 14.0485 79.1287 14.0265 79.1572 13.998L79.9688 13.1865L80.7441 12.2383C80.8681 12.0868 80.9805 11.9263 81.0801 11.7578L82.3193 9.66016L83.3564 8.24609C83.4484 8.12072 83.5548 8.00547 83.6729 7.9043L83.8848 7.72266C84.1158 7.52463 84.4106 7.41602 84.7148 7.41602C85.0928 7.41614 85.4513 7.58375 85.6934 7.87402L85.7949 7.99609C85.8283 8.03618 85.8575 8.08029 85.8809 8.12695C85.9279 8.22112 85.9521 8.32538 85.9521 8.43066V8.59863C85.9521 8.87249 85.8716 9.14027 85.7197 9.36816L85.3115 9.98047L84.3496 11.3691L83.4951 12.8652L82.7549 14.6221C82.6782 14.8041 82.6163 14.992 82.5684 15.1836L82.4346 15.7168C82.358 16.023 82.3194 16.3377 82.3193 16.6533V17.6182C82.3194 17.6551 82.3282 17.6915 82.3447 17.7246C82.3929 17.821 82.4998 17.8737 82.6055 17.8525L82.8223 17.8086C82.9127 17.7905 82.9969 17.7492 83.0664 17.6885L83.585 17.2344C83.7382 17.1003 83.8778 16.9514 84.002 16.79L84.8838 15.6436L86.0596 13.9346L87.3418 12.1172L88.4102 10.7285L89.207 9.85938C89.4583 9.58529 89.7476 9.34853 90.0664 9.15723L90.5371 8.875C90.6148 8.82837 90.6982 8.79038 90.7842 8.76172C90.9107 8.71959 91.0434 8.69824 91.1768 8.69824H91.751C92.0092 8.69824 92.2602 8.78596 92.4619 8.94727C92.6081 9.06421 92.7231 9.21563 92.7969 9.3877L92.9053 9.64062C92.9714 9.79502 93.0207 9.9568 93.0508 10.1221L93.2051 10.9707C93.2145 11.0228 93.2188 11.0759 93.2188 11.1289C93.2189 11.8075 93.9528 12.2332 94.542 11.8965L94.7148 11.7969L94.8281 11.7402C95.0349 11.6369 95.263 11.5831 95.4941 11.583H95.6885C96.0188 11.5831 96.3317 11.7333 96.5381 11.9912C96.6049 12.0747 96.6585 12.1683 96.6982 12.2676L96.7832 12.4795C96.8287 12.5931 96.8525 12.7145 96.8525 12.8369C96.8525 13.0623 96.7732 13.281 96.6289 13.4541L96.4854 13.626C96.3745 13.759 96.2425 13.8736 96.0947 13.9639L94.3945 15.0029L94.0859 15.2012C93.3192 15.6941 92.7515 16.4423 92.4834 17.3135L92.4707 17.3535L91.8301 19.4912L90.7617 22.1621L89.7998 23.9785L88.8379 25.3682L88.1279 26.1562C87.9604 26.3424 87.7756 26.5128 87.5752 26.6631L87.3438 26.8359C87.1299 26.9963 86.8939 27.1259 86.6436 27.2197L86.5889 27.2402C86.3095 27.345 86.0132 27.3984 85.7148 27.3984C85.4476 27.3984 85.1822 27.355 84.9287 27.2705L84.71 27.1982C84.471 27.1186 84.2438 27.0069 84.0342 26.8672C83.8183 26.7233 83.6229 26.5505 83.4541 26.3535L83.3604 26.2441C83.1665 26.0179 83.0138 25.7594 82.9092 25.4805C82.8018 25.1942 82.7471 24.8907 82.7471 24.585V24.2393C82.7471 23.8544 82.8048 23.4714 82.918 23.1035L83.0488 22.6777C83.1324 22.4061 83.2457 22.1442 83.3867 21.8975L84.0293 20.7734L84.8066 19.7627C84.8774 19.6703 84.7741 19.5456 84.6699 19.5977L83.9629 20.0693C83.7942 20.1818 83.6113 20.2718 83.4189 20.3359C83.1863 20.4135 82.9425 20.4521 82.6973 20.4521H82.5625C82.2596 20.4521 81.9581 20.4083 81.668 20.3213L81.4014 20.2412C81.1609 20.1691 80.9363 20.0514 80.7402 19.8945C80.5829 19.7686 80.4458 19.6189 80.334 19.4512L80.2734 19.3604C80.1421 19.1633 80.0378 18.9493 79.9629 18.7246L79.8066 18.2568C79.7725 18.1543 79.7549 18.0465 79.7549 17.9385V17.2168C79.7549 16.9561 79.5164 16.7604 79.2607 16.8115C79.2341 16.8169 79.2069 16.8193 79.1797 16.8193H78.5684C78.2933 16.8193 78.0203 16.7694 77.7627 16.6729C77.456 16.5579 77.1769 16.379 76.9453 16.1475L76.7627 15.9648L76.5566 15.7061C76.4105 15.5234 76.2976 15.3166 76.2236 15.0947C76.1562 14.8924 76.1221 14.68 76.1221 14.4668V13.2676C76.1221 13.0711 76.1361 12.8749 76.166 12.6807L76.333 11.5996C76.3347 11.5888 76.335 11.5773 76.335 11.5664C76.3346 11.3756 76.1038 11.28 75.9688 11.415L75.8008 11.583L74.626 12.9727L73.7705 14.2549L72.7021 15.9648L71.3125 18.5293L70.5332 19.9912C70.4834 20.0846 70.4196 20.1703 70.3447 20.2451C70.1434 20.4463 69.8706 20.5596 69.5859 20.5596H69.46C69.1381 20.5595 68.8264 20.4463 68.5791 20.2402L68.4072 20.0967C68.3504 20.0493 68.3036 19.991 68.2705 19.9248C68.2333 19.8503 68.2139 19.7679 68.2139 19.6846V18.8994C68.2139 18.7954 68.2274 18.6914 68.2539 18.5908L68.6182 17.209C68.6784 16.9799 68.4774 16.767 68.2451 16.8135C68.2246 16.8176 68.2036 16.8193 68.1826 16.8193H67.7891C67.3657 16.8193 66.948 16.7206 66.5693 16.5312L66.5068 16.5C66.223 16.358 65.9702 16.1609 65.7637 15.9199C65.5473 15.6675 65.3865 15.3721 65.291 15.0537L65.2461 14.9062C65.1591 14.6161 65.1152 14.3146 65.1152 14.0117V13.293L65.3291 11.583C65.3289 11.3861 65.0905 11.2875 64.9512 11.4268L64.7949 11.583L63.9395 12.6523L62.4434 14.7891L61.2686 16.8193L59.9863 19.2773L59.4297 20.2051C59.3741 20.2978 59.2979 20.3766 59.208 20.4365C59.0881 20.5165 58.9469 20.5596 58.8027 20.5596H58.0713C57.9948 20.5596 57.9183 20.5467 57.8457 20.5225C57.7085 20.4766 57.5888 20.3901 57.502 20.2744L57.374 20.1045C57.335 20.0525 57.3086 19.9919 57.2979 19.9277L57.2773 19.8047C57.2423 19.5957 57.0157 19.4805 56.8262 19.5752C56.7959 19.5903 56.7681 19.6099 56.7441 19.6338L56.4766 19.9014C56.3236 20.0544 56.1523 20.1885 55.9668 20.2998L55.3838 20.6494C55.2468 20.7316 55.0983 20.7933 54.9434 20.832C54.815 20.8641 54.6831 20.8798 54.5508 20.8799H54.0576C53.7378 20.8799 53.4196 20.8287 53.1162 20.7275L52.9443 20.6699C52.7249 20.5967 52.5195 20.4854 52.3389 20.3408C52.1663 20.2027 52.0185 20.0361 51.9014 19.8486L51.5947 19.3584C51.561 19.3045 51.5338 19.2468 51.5137 19.1865L51.3721 18.7607C51.3473 18.6865 51.2775 18.6358 51.1992 18.6357C51.1468 18.6357 51.0971 18.6588 51.0625 18.6982L50.3682 19.4912L49.8867 19.9131C49.6392 20.1296 49.3644 20.3129 49.0703 20.46L48.8936 20.5488C48.7375 20.6269 48.574 20.6903 48.4062 20.7383C48.0785 20.8319 47.7361 20.8652 47.3965 20.8369L47.2178 20.8223C46.8286 20.7898 46.4489 20.6834 46.0996 20.5088L46.0879 20.5029C45.7396 20.3288 45.4284 20.088 45.1719 19.7949C44.9342 19.5233 44.7469 19.211 44.6201 18.873L44.5137 18.5879C44.499 18.5487 44.4883 18.5082 44.4824 18.4668L44.4238 18.0537C44.4035 17.9117 44.2591 17.8228 44.123 17.8682C44.0843 17.8811 44.0494 17.9038 44.0225 17.9346L43.3154 18.7432L42.498 19.4785C42.3313 19.6286 42.1512 19.7639 41.9609 19.8828L40.5371 20.7734L39.7666 21.123C39.4977 21.2453 39.2154 21.3366 38.9258 21.3945L38.668 21.4463C38.4188 21.4961 38.1652 21.5215 37.9111 21.5215H37.1641C36.7794 21.5215 36.3969 21.4637 36.0293 21.3506L35.6436 21.2314C35.3456 21.1398 35.0593 21.0129 34.792 20.8525L34.6328 20.7568C34.2969 20.5553 33.9936 20.3035 33.7334 20.0107L33.6104 19.8721C33.3853 19.6188 33.1945 19.3372 33.043 19.0342L32.7129 18.374C32.5869 18.1221 32.4882 17.8572 32.4199 17.584L32.2021 16.7129L32.0957 15.8574V14.2373C32.0957 14.0356 32.1111 13.834 32.1426 13.6348L32.416 11.9043L32.9502 9.87305L33.5918 8.27051L34.6602 6.34766L35.6221 5.06445L36.0156 4.60547C36.18 4.41367 36.3629 4.23812 36.5615 4.08203L37.4512 3.38379C37.656 3.22282 37.8763 3.08236 38.1094 2.96582L38.6621 2.68945C38.9141 2.56346 39.1798 2.46579 39.4531 2.39746L39.8623 2.29492C40.1685 2.21838 40.4832 2.17972 40.7988 2.17969H41.5137ZM87.876 20.1318L86.9141 21.2002L86.0596 22.2695L85.3115 23.5518L85.2051 24.5127L85.418 24.834L85.9531 24.9404L86.5938 24.1924L87.3418 23.124L88.1963 21.5215L89.1582 19.3838L89.2656 18.9561H88.9443L87.876 20.1318ZM49.1934 10.9424L48.5518 11.6904L47.8037 13.0791L47.1631 15.0029L46.8418 16.7119V17.6738L47.1631 18.3154L47.6973 18.4219L48.4453 17.8877L48.9795 17.3535L49.834 16.2852L50.6895 15.0029L52.1846 12.4385L52.292 11.7969L51.6504 11.0488L50.7959 10.5146H49.9414L49.1934 10.9424ZM90.5479 12.0107L90.4404 12.1172L88.7314 14.6816L87.4482 16.3916L86.2734 17.8877H86.5938L87.4482 17.1396L88.7314 15.9648L90.4404 14.5752L90.6543 14.041L90.7617 12.0107H90.5479Z" fill="#D3F7C6"/>
</svg>
