<svg width="39" height="38" viewBox="0 0 39 38" fill="none" xmlns="http://www.w3.org/2000/svg">
<path d="M29.1279 31.4004C31.2683 30.96 32.961 30.6732 33.6709 31.3018C33.8156 31.4298 33.9287 31.596 34.0254 31.8252C34.049 31.8808 34.0707 31.9365 34.0898 31.9902C34.657 33.5464 34.6792 34.6805 34.1562 35.457C33.3477 36.6573 31.4744 36.7235 29.4893 36.7939L28.8936 36.8164C27.8265 36.8606 26.7352 36.9927 25.6797 37.1201C24.8507 37.22 23.9931 37.3233 23.1455 37.3848C22.649 37.4212 22.1518 37.4365 21.6572 37.4365C20.6394 37.4365 19.63 37.3746 18.6436 37.3145C17.4829 37.244 16.281 37.1698 15.0967 37.2012C14.6897 37.2114 14.283 37.2308 13.876 37.25C12.83 37.3006 11.7492 37.3516 10.6758 37.2422C10.418 37.2153 10.143 37.2016 9.8623 37.1875C8.55702 37.1209 6.93264 37.0365 6.32129 35.582C5.96985 34.746 5.94394 34.0333 6.24609 33.4648C6.59118 32.8145 7.32858 32.3847 8.49805 32.1504C9.98182 31.8541 11.4626 31.8717 12.8926 31.8896C13.3227 31.8954 13.7548 31.901 14.1875 31.8984C14.77 31.8952 15.3701 31.8753 15.9775 31.8555C16.9691 31.8228 17.9953 31.7887 18.999 31.8232C21.5257 31.9065 24.1056 31.8073 26.5996 31.7119L27.5088 31.6777C27.8436 31.6656 28.4679 31.5367 29.1279 31.4004ZM18.8125 0.0390625C19.3899 -0.103693 19.7081 0.173709 19.9629 0.396484C20.0121 0.439962 20.0635 0.485183 20.1191 0.529297L20.1982 0.591797L20.2275 0.69043C21.0751 3.61637 22.7007 6.33691 24.2734 8.96777C24.4885 9.32818 24.7041 9.68741 24.916 10.0459C25.444 9.55949 25.9956 9.09908 26.5312 8.65234C27.3084 8.00451 28.1112 7.33532 28.834 6.59082C29.2308 6.18183 29.6747 5.8053 30.1035 5.44238C30.5738 5.04314 31.0192 4.66642 31.4121 4.24609C31.5465 4.1027 31.6684 3.9559 31.7881 3.8125C32.1209 3.41499 32.4648 3.00394 33.0166 2.70117C33.5146 2.42848 33.7511 2.08899 34.0244 1.69531C34.2241 1.40788 34.4502 1.0822 34.7979 0.766602C35.3476 0.267578 36.0612 0.0647282 36.6621 0.237305C37.6748 0.529218 38.0932 1.71237 38.0586 2.75391C38.0483 3.07638 38.0221 3.39449 37.9844 3.70801C37.8941 4.47033 37.7363 5.21415 37.584 5.93359C37.3952 6.81945 37.2005 7.73613 37.1377 8.67383C37.0398 10.136 36.7008 11.5105 36.3711 12.8389C36.0959 13.9487 35.8107 15.0961 35.666 16.2969C35.6283 16.6143 35.5898 16.9762 35.5488 17.3691C35.223 20.486 34.6783 25.7021 32.0615 27.2393C31.5129 27.5613 30.8973 27.7424 30.3154 27.8896C27.2939 28.654 24.5848 28.5623 21.1934 28.168C19.4394 27.965 17.5986 28.1935 15.8203 28.415C14.7373 28.5495 13.617 28.6888 12.5225 28.7305L12.3301 28.7383C12.1015 28.7479 11.8688 28.7578 11.6357 28.7578C11.2467 28.7578 10.8531 28.7307 10.459 28.6328C10.1664 28.5592 9.84016 28.5261 9.49512 28.4902C9.05156 28.4442 8.59241 28.3967 8.19238 28.2559C7.4179 27.9838 7.09397 27.5369 6.91602 26.9512C6.74586 26.7491 6.63023 26.0022 6.2041 23.2324C6.08887 22.4854 5.97021 21.7124 5.94141 21.6055C5.27695 19.2146 4.22415 16.8417 3.20508 14.5469L3.09863 14.3066C3.03462 14.1626 2.92266 13.9298 2.77734 13.6289C0.962719 9.8729 -0.7455 5.83595 0.338867 4.37988C0.625593 3.99524 1.07198 3.82107 1.65625 3.85938L1.66309 3.82031C2.6662 3.77232 3.39443 4.60805 4.03906 5.33398C4.25856 5.581 4.46527 5.81415 4.65918 5.98438C5.25318 6.50474 5.9537 6.97887 6.63281 7.43652C7.03867 7.71051 7.44571 7.98402 7.83301 8.26953C9.33475 9.37439 10.6143 10.1772 11.8594 10.7969C11.9496 10.841 12.0528 10.8973 12.1641 10.958C12.4617 11.12 13.1639 11.4987 13.3457 11.3867C13.4444 11.2813 13.6824 10.5929 13.7842 10.2998C13.8538 10.1005 13.9124 9.93588 13.9502 9.85449C14.4233 8.82962 14.8488 7.76801 15.2598 6.74121C15.7757 5.45267 16.3094 4.11983 16.9443 2.84473C17.121 2.49136 17.3564 2.17001 17.5645 1.8877C17.6944 1.71108 17.8191 1.54276 17.917 1.38086C17.9695 1.2938 17.979 1.17575 17.9912 1.04004C18.0187 0.715533 18.0609 0.225369 18.8125 0.0390625ZM6.85254 26.583C6.843 26.6059 6.8387 26.6336 6.8418 26.6572L6.95996 26.6279L6.85254 26.583Z" fill="#C5A44E"/>
</svg>
