<svg width="41" height="24" viewBox="0 0 41 24" fill="none" xmlns="http://www.w3.org/2000/svg">
<g clip-path="url(#clip0_1138_6867)">
<path d="M39.4079 11.0746C38.8852 11.0746 38.4624 10.6528 38.4624 10.1289C38.4624 9.60612 38.8852 9.18421 39.4079 9.18421C39.9332 9.18421 40.356 9.59916 40.356 10.1289C40.356 10.6528 39.9332 11.0746 39.4079 11.0746ZM39.4079 9.03564C38.8068 9.03564 38.3162 9.5226 38.3162 10.1289C38.3162 10.7285 38.8068 11.2194 39.4079 11.2194C40.0095 11.2194 40.4974 10.7285 40.4974 10.1289C40.4974 9.5226 40.0124 9.03564 39.4079 9.03564ZM39.3001 10.1522L39.6776 10.6927H39.9483V10.647L39.8141 10.5847L39.4832 10.1241C39.6432 10.095 39.7504 9.99096 39.7504 9.83353C39.7504 9.6556 39.631 9.55943 39.4026 9.55943H38.9492V9.60612L39.0862 9.66826V10.5846L38.9492 10.6469V10.6925H39.3924V10.6469L39.248 10.5846V10.1522H39.3001ZM39.2481 9.63434H39.3638C39.4974 9.63434 39.5708 9.71394 39.5708 9.85011C39.5708 9.99096 39.4863 10.0842 39.3595 10.0842H39.2481V9.63434ZM33.5005 0.135239C34.502 2.98081 36.6746 8.52338 37.7767 11.0726H34.0968L33.4131 8.85481H29.7181L29.034 11.0726H27.8434C25.6484 11.0726 25.03 11.2835 22.4865 11.2835C19.3391 11.2835 16.5586 9.32519 16.5586 6.05783C16.5586 2.37742 19.4298 0.0390625 23.1886 0.0390625C24.6783 0.0390625 25.9544 0.31266 26.8803 0.675601L26.145 2.76998C25.3398 2.41425 24.3091 2.14711 23.3086 2.14711C21.1491 2.14711 19.8434 3.43575 19.8434 5.66224C19.8434 7.97137 21.0898 9.21737 22.7906 9.21737C23.2154 9.21737 23.621 9.2018 23.9102 9.14346V7.59919C23.9102 7.15893 23.8737 6.30081 23.7698 5.78082H26.9799C26.8034 6.71386 26.8296 8.33001 26.8296 9.28532C27.5098 7.6488 30.0499 1.1003 30.3876 0.135239H33.5005ZM32.7687 6.77511L31.5767 2.84388L30.359 6.77511H32.7687Z" fill="#003764"/>
<path d="M0.0951644 7.23319C0.0951644 9.93588 1.8247 11.244 4.93653 11.244C7.9785 11.244 9.74195 9.92133 9.74195 7.21458C9.74195 6.42644 9.70892 5.52947 9.70892 4.67716C9.70892 4.47304 9.70892 4.26892 9.71095 4.0629C9.88634 5.15526 10.5141 5.81509 12.1945 6.47896C14.0007 7.1913 14.4199 7.55677 14.3948 8.13788C14.3662 8.6995 13.9288 9.13395 12.7932 9.05042C11.9147 8.98437 11.037 8.69672 10.2741 8.28354L9.54466 10.3866C10.5097 10.9241 11.8475 11.236 13.3655 11.236C15.8186 11.236 17.5047 9.77921 17.5392 7.72571C17.5659 6.23295 17.0432 5.22803 14.9681 4.45444C13.1323 3.77323 12.793 3.45635 12.8072 2.92282C12.8213 2.365 13.3447 2.03357 14.2718 2.05103C15.199 2.06659 15.9526 2.2735 16.6096 2.63999L17.355 0.680763C16.4347 0.231263 15.1134 -0.0423347 13.6838 0.00537403C11.6337 0.0743429 10.1141 0.991819 9.74195 2.46029C9.76486 1.77224 9.79826 1.03168 9.84597 0.182289H7.02027C7.14328 2.35639 7.1243 3.59846 7.1243 5.82015C7.1243 8.31682 6.53243 8.99525 5.16748 8.99525C3.69559 8.99525 3.17459 8.18179 3.17459 5.82015C3.17459 3.59846 3.19016 2.35639 3.32721 0.182289H0C0.0932662 1.96181 0.124903 3.39624 0.124903 4.67716C0.124903 5.57616 0.0951644 6.36823 0.0951644 7.23319Z" fill="#CF0A2C"/>
</g>
<path d="M35.1083 13.3203H37.2279V23.5638H34.768L30.231 16.2409V23.5638H28.1113V13.3203H30.5429L35.1083 20.6006V13.3203Z" fill="#093B60"/>
<path d="M23.627 23.5638V13.3203H25.7537V23.5638H23.627Z" fill="#093B60"/>
<path d="M19.1301 13.3203H21.2568V23.5638H19.1301V19.353H14.7986V23.5638H12.6719V13.3203H14.7986V17.5028H19.1301V13.3203Z" fill="#093B60"/>
<path d="M5.75167 23.7067C5.01913 23.7067 4.33621 23.5839 3.70291 23.3381C3.07434 23.0876 2.53084 22.7379 2.07241 22.289C1.61871 21.84 1.26189 21.2871 1.00195 20.6301C0.746745 19.9732 0.619141 19.2525 0.619141 18.468C0.619141 17.6741 0.751471 16.9463 1.01613 16.2846C1.28079 15.6183 1.6447 15.0606 2.10786 14.6116C2.57101 14.158 3.12397 13.8059 3.76671 13.5554C4.41419 13.3049 5.11128 13.1797 5.85801 13.1797C6.84576 13.1797 7.7319 13.39 8.51643 13.8106C9.30568 14.2265 9.92244 14.8196 10.3667 15.5899L8.50225 16.5824C8.23759 16.0672 7.87604 15.6797 7.41761 15.4198C6.96391 15.1599 6.44404 15.0299 5.85801 15.0299C4.94587 15.0299 4.19915 15.33 3.61784 15.9302C3.04126 16.5304 2.75297 17.3598 2.75297 18.4184C2.75297 19.4628 3.04126 20.297 3.61784 20.9208C4.19442 21.5446 4.96714 21.8565 5.93599 21.8565C6.38969 21.8565 6.80559 21.7833 7.18367 21.6368C7.56176 21.4903 7.89258 21.254 8.17615 20.9279C8.45971 20.5971 8.64876 20.1906 8.74328 19.7086H5.94307V18.0002H10.7566V23.565H9.08356V22.1472C8.37937 23.1869 7.26874 23.7067 5.75167 23.7067Z" fill="#093B60"/>
<defs>
<clipPath id="clip0_1138_6867">
<rect width="40.496" height="11.2878" fill="white"/>
</clipPath>
</defs>
</svg>
