<svg width="209" height="119" viewBox="0 0 209 119" fill="none" xmlns="http://www.w3.org/2000/svg">
<path d="M16.0088 0C18.2931 0.000104227 22.7205 0.946353 27.2949 2.11523C31.8819 3.28733 36.6542 4.69423 39.6485 5.63184H39.6504C40.7947 6.00323 42.6665 6.56992 44.5586 7.06152C46.4566 7.55466 48.3542 7.96705 49.5606 8.03809C51.0935 8.12826 54.891 8.23404 58.9883 7.96289C63.0969 7.69098 67.4625 7.04223 70.1631 5.64746L70.2266 5.62012C70.2964 5.59539 70.3849 5.58226 70.4776 5.61719C70.6038 5.66487 70.6637 5.77276 70.6914 5.85254C70.7434 6.00252 70.7378 6.21355 70.7129 6.43555C70.6605 6.90174 70.496 7.60984 70.2461 8.49902C69.7444 10.2847 68.8831 12.8562 67.8213 15.8105C65.7083 21.6896 62.794 29.1073 60.3233 34.9287L70.2588 58.9551C70.7043 60.0325 70.1617 61.2655 69.0606 61.6553C67.7673 62.1128 66.2785 62.63 65.0362 63.043C64.4153 63.2494 63.8543 63.4303 63.4092 63.5645C62.9728 63.696 62.6265 63.7902 62.4483 63.8125C61.9613 63.8734 59.4787 64.1601 56.625 64.3418C53.7802 64.5229 50.5336 64.6021 48.5362 64.2334C45.3774 63.6502 35.1886 60.6795 30.502 59.2715L30.4873 59.2666L30.4727 59.2607C28.1796 58.2239 22.1427 56.3264 16.4014 57.0439C11.9016 57.6064 6.5444 59.1925 3.03908 60.3936C1.6923 60.8547 0.248782 59.8728 0.242207 58.4365L1.9371e-05 5.52051C-0.00363113 4.67834 0.50901 3.93226 1.25588 3.57715C2.73534 2.87388 4.31874 1.97198 6.57521 1.25488C8.83761 0.535966 11.7775 2.42125e-05 16.0088 0ZM64.8662 11.457C62.6404 11.9707 57.282 12.998 53.6563 12.998V59.8916C55.9274 60.1333 61.8146 59.6198 65.1231 58.4717C65.4668 58.3523 64.7877 56.8524 64.7754 56.8252L55.9229 34.9043L64.8662 11.457ZM25.0723 12.085V15.7549C18.6123 16.0625 13.9756 19.4023 13.9756 24.8955V24.9395C13.9756 29.8833 17.228 32.5425 23.0947 33.8389L25.0723 34.2559V40.7598C22.5015 40.518 21.0078 39.4414 20.6563 37.5078L20.6338 37.4639L13.7119 37.4863L13.668 37.5078C13.8438 43.1328 18.3706 46.2314 25.0723 46.4951V50.0762H27.5557V46.4727C34.3451 46.0551 38.8936 42.6933 38.8936 37.1123V37.0684C38.8936 32.1465 35.751 29.6856 29.5547 28.3232L27.5557 27.9053V21.5332C29.7307 21.8848 31.1591 23.0935 31.4668 25.1367L31.4883 25.1807L38.3877 25.1592L38.4102 25.1367C38.1683 19.7976 34.1911 16.2379 27.5557 15.7764V12.085H25.0723ZM27.5557 34.8057C30.4118 35.5307 31.5322 36.2775 31.5322 37.9033V37.9473C31.5322 39.6391 30.1043 40.54 27.5557 40.7598V34.8057ZM25.0723 27.334C22.5236 26.6528 21.3369 25.7959 21.3369 24.3457V24.3018C21.3371 22.72 22.6116 21.709 25.0723 21.4893V27.334Z" fill="#064102"/>
<path d="M9.29657 89.447C8.62191 89.7697 8.19657 90.151 8.02057 90.591C7.87391 91.0017 7.93257 91.5297 8.19657 92.175C8.40191 92.5857 8.62191 92.9817 8.85657 93.363C9.09124 93.715 9.32591 94.0963 9.56057 94.507C10.0592 95.299 10.5726 96.091 11.1006 96.883C11.6286 97.675 12.1419 98.4817 12.6406 99.303C12.9632 99.8897 13.2419 100.476 13.4766 101.063C13.7406 101.65 13.9312 102.28 14.0486 102.955C14.5179 106.006 13.5499 108.558 11.1446 110.611C10.3232 111.344 9.41391 111.916 8.41657 112.327C7.44857 112.738 6.45124 113.09 5.42457 113.383C5.13124 113.442 4.8379 113.5 4.54457 113.559C4.28057 113.618 3.98724 113.662 3.66457 113.691C3.34191 113.72 3.01924 113.72 2.69657 113.691C2.3739 113.691 2.05124 113.662 1.72857 113.603C1.3179 113.515 0.951238 113.339 0.628571 113.075C0.335238 112.811 0.144571 112.444 0.0565714 111.975C-0.0314286 111.506 -0.0167619 111.066 0.100571 110.655C0.217905 110.274 0.481905 109.922 0.892572 109.599C1.30324 109.335 1.7139 109.174 2.12457 109.115C2.53524 109.056 2.97524 109.159 3.44457 109.423C3.5619 109.482 3.67924 109.526 3.79657 109.555C3.94324 109.584 4.07524 109.584 4.19257 109.555C4.95524 109.379 5.68857 109.159 6.39257 108.895C7.09657 108.602 7.75657 108.235 8.37257 107.795C8.92991 107.384 9.36991 106.915 9.69257 106.387C10.0152 105.83 10.1766 105.199 10.1766 104.495C10.2352 103.586 10.0446 102.794 9.60457 102.119C9.28191 101.503 8.94457 100.902 8.59257 100.315C8.24057 99.7283 7.87391 99.127 7.49257 98.511C7.11124 97.895 6.71524 97.2937 6.30457 96.707C5.92324 96.091 5.54191 95.475 5.16057 94.859C4.6619 94.067 4.29524 93.1577 4.06057 92.131C3.7379 90.5763 4.04591 89.183 4.98457 87.951C5.95257 86.7483 7.05257 85.8537 8.28457 85.267C8.48991 85.2083 8.68057 85.1497 8.85657 85.091C9.03257 85.0323 9.22324 84.9737 9.42857 84.915C10.3966 84.7683 11.2179 84.959 11.8926 85.487C12.5672 86.015 12.9779 86.763 13.1246 87.731C13.1246 87.9657 13.1246 88.215 13.1246 88.479C13.1539 88.743 13.1392 88.9923 13.0806 89.227C12.9926 89.8137 12.8899 90.3857 12.7726 90.943C12.6846 91.471 12.5966 92.0283 12.5086 92.615C12.4792 92.703 12.4499 92.791 12.4206 92.879C12.3912 92.967 12.3619 93.0403 12.3326 93.099C12.1566 93.5097 11.8632 93.8177 11.4526 94.023C11.0712 94.199 10.6752 94.2283 10.2646 94.111C9.88324 93.9937 9.56057 93.7737 9.29657 93.451C9.03257 93.1283 8.92991 92.747 8.98857 92.307L9.25257 90.195C9.28191 90.0777 9.29657 89.9603 9.29657 89.843C9.29657 89.7257 9.29657 89.5937 9.29657 89.447Z" fill="#064102"/>
<path d="M199.679 97.26C199.828 97.1106 199.945 96.9826 200.031 96.876C200.137 96.7693 200.244 96.6626 200.351 96.556C200.692 96.1933 201.055 95.8626 201.439 95.564C201.823 95.244 202.26 94.9986 202.751 94.828C203.305 94.636 203.86 94.5826 204.415 94.668C204.799 94.732 205.183 94.924 205.567 95.244C205.972 95.5426 206.228 95.9373 206.335 96.428C206.42 96.7906 206.463 97.1533 206.463 97.516C206.484 97.8786 206.441 98.2413 206.335 98.604C206.143 99.3506 205.887 100.076 205.567 100.78C205.268 101.463 204.905 102.135 204.479 102.796C203.86 103.756 203.188 104.652 202.463 105.484C201.759 106.295 200.937 107.031 199.999 107.692C199.828 107.841 199.743 108.044 199.743 108.3C199.7 109.452 199.647 110.583 199.583 111.692C199.54 112.801 199.487 113.921 199.423 115.052C199.359 115.735 199.231 116.428 199.039 117.132C198.847 117.708 198.399 118.028 197.695 118.092C197.268 118.113 196.895 118.028 196.575 117.836C196.276 117.665 196.073 117.377 195.967 116.972C195.86 116.673 195.775 116.364 195.711 116.044C195.647 115.724 195.593 115.404 195.551 115.084C195.444 113.548 195.444 112.033 195.551 110.54C195.679 109.068 195.881 107.596 196.159 106.124C196.201 105.932 196.233 105.74 196.255 105.548C196.297 105.356 196.351 105.175 196.415 105.004C196.607 104.385 196.724 103.756 196.767 103.116C196.809 102.476 196.82 101.815 196.799 101.132C196.756 99.7453 196.724 98.3693 196.703 97.004C196.703 95.6386 196.681 94.252 196.639 92.844C196.639 92.716 196.628 92.588 196.607 92.46C196.607 92.332 196.617 92.204 196.639 92.076C196.681 91.372 197.065 90.9986 197.791 90.956C198.089 90.9133 198.377 90.9986 198.655 91.212C198.932 91.404 199.124 91.6706 199.231 92.012C199.337 92.4386 199.391 92.8546 199.391 93.26C199.455 93.836 199.497 94.412 199.519 94.988C199.561 95.564 199.604 96.1293 199.647 96.684C199.647 96.7693 199.647 96.8546 199.647 96.94C199.668 97.0253 199.679 97.132 199.679 97.26ZM199.903 103.628C200.244 103.372 200.617 102.988 201.023 102.476C201.428 101.943 201.791 101.388 202.111 100.812C202.452 100.236 202.729 99.6813 202.943 99.148C203.177 98.6146 203.295 98.2093 203.295 97.932C202.399 98.7213 201.695 99.596 201.183 100.556C200.671 101.516 200.244 102.54 199.903 103.628Z" fill="#064102"/>
<path d="M184.492 108.978C184.599 108.828 184.705 108.69 184.812 108.562C184.919 108.412 185.004 108.252 185.068 108.082C185.388 107.399 185.708 106.716 186.028 106.034C186.348 105.351 186.657 104.668 186.956 103.986C187.383 102.962 187.82 101.948 188.268 100.946C188.716 99.9218 189.196 98.9298 189.708 97.9698C189.793 97.8631 189.857 97.7564 189.9 97.6498C189.964 97.5431 190.039 97.4364 190.124 97.3298C190.487 96.8818 190.967 96.7538 191.564 96.9458C192.14 97.1164 192.513 97.5004 192.684 98.0978C192.769 98.4604 192.759 98.8764 192.652 99.3458C192.481 100.092 192.311 100.839 192.14 101.586C191.969 102.332 191.799 103.09 191.628 103.858C191.073 106.674 190.988 109.522 191.372 112.402C191.415 112.764 191.479 113.116 191.564 113.458C191.649 113.799 191.799 114.13 192.012 114.45C192.119 114.684 192.204 114.898 192.268 115.09C192.311 115.324 192.289 115.538 192.204 115.73C192.14 115.943 192.023 116.114 191.852 116.242C191.703 116.37 191.521 116.444 191.308 116.466C191.095 116.508 190.86 116.487 190.604 116.402C189.9 116.124 189.431 115.666 189.196 115.026C189.047 114.684 188.908 114.343 188.78 114.002C188.673 113.682 188.599 113.351 188.556 113.01C188.449 112.37 188.375 111.73 188.332 111.09C188.311 110.45 188.279 109.81 188.236 109.17V108.69C188.129 108.839 188.044 108.967 187.98 109.074C187.937 109.159 187.895 109.255 187.852 109.362C187.639 109.66 187.425 109.959 187.212 110.258C187.02 110.578 186.807 110.887 186.572 111.186C186.423 111.378 186.241 111.548 186.028 111.698C185.815 111.868 185.591 112.007 185.356 112.114C184.78 112.412 184.193 112.455 183.596 112.242C183.02 112.05 182.54 111.644 182.156 111.026C181.9 110.62 181.719 110.204 181.612 109.778C181.527 109.351 181.463 108.914 181.42 108.466C181.356 107.762 181.345 107.068 181.388 106.386C181.431 105.703 181.505 105.02 181.612 104.338C181.633 104.231 181.644 104.124 181.644 104.018C181.665 103.911 181.655 103.804 181.612 103.698C181.527 103.463 181.495 103.239 181.516 103.026C181.559 102.791 181.623 102.567 181.708 102.354C181.793 102.162 181.857 101.959 181.9 101.746C181.964 101.532 182.039 101.319 182.124 101.106C182.167 100.999 182.22 100.892 182.284 100.786C182.348 100.658 182.433 100.551 182.54 100.466C182.711 100.316 182.903 100.231 183.116 100.21C183.351 100.167 183.575 100.188 183.788 100.274C184.023 100.338 184.225 100.466 184.396 100.658C184.567 100.828 184.684 101.042 184.748 101.298C184.855 101.618 184.876 101.991 184.812 102.418C184.727 103.25 184.631 104.082 184.524 104.914C184.439 105.746 184.353 106.578 184.268 107.41C184.247 107.666 184.247 107.922 184.268 108.178C184.311 108.434 184.385 108.7 184.492 108.978Z" fill="#064102"/>
<path d="M171.417 106.895C171.14 106.106 170.959 105.295 170.873 104.463C170.809 103.631 170.809 102.788 170.873 101.935C170.98 100.74 171.14 99.5775 171.353 98.4469C171.588 97.2949 171.908 96.1535 172.313 95.0229C172.441 94.6815 172.591 94.3402 172.761 93.9989C172.953 93.6575 173.135 93.3375 173.305 93.0389C173.433 92.8682 173.583 92.7189 173.753 92.5909C173.945 92.4629 174.127 92.3349 174.297 92.2069C174.404 92.1002 174.564 92.0469 174.777 92.0469C175.225 92.0895 175.663 92.1109 176.089 92.1109C176.537 92.0895 176.964 92.2069 177.369 92.4629C177.796 92.6975 178.137 92.9962 178.393 93.3589C178.671 93.7002 178.873 94.0842 179.001 94.5109C179.129 94.8949 179.225 95.2789 179.289 95.6629C179.375 96.0469 179.417 96.4415 179.417 96.8469C179.481 98.4469 179.407 100.015 179.193 101.551C178.98 103.066 178.639 104.57 178.169 106.063C178.02 106.511 177.839 106.959 177.625 107.407C177.412 107.834 177.135 108.239 176.793 108.623C176.644 108.794 176.484 108.954 176.313 109.103C176.164 109.252 175.993 109.38 175.801 109.487C175.289 109.828 174.735 109.946 174.137 109.839C173.561 109.732 173.039 109.444 172.569 108.975C172.356 108.74 172.143 108.452 171.929 108.111C171.737 107.748 171.567 107.343 171.417 106.895ZM174.425 106.639C174.767 106.148 175.033 105.636 175.225 105.103C175.439 104.548 175.609 103.994 175.737 103.439C175.887 102.863 176.004 102.287 176.089 101.711C176.175 101.114 176.271 100.516 176.377 99.9189C176.1 100.004 175.876 100.068 175.705 100.111C175.556 100.154 175.407 100.164 175.257 100.143C175.108 100.122 174.948 100.068 174.777 99.9829C174.628 99.8975 174.425 99.7802 174.169 99.6309C174.084 100.207 173.999 100.794 173.913 101.391C173.849 101.967 173.807 102.543 173.785 103.119C173.785 103.695 173.828 104.282 173.913 104.879C174.02 105.455 174.191 106.042 174.425 106.639Z" fill="#064102"/>
<path d="M160.389 99.536C159.92 99.3653 159.6 99.12 159.429 98.8C159.28 98.48 159.205 98.128 159.205 97.744C159.248 97.2746 159.269 96.816 159.269 96.368C159.29 95.8986 159.312 95.4293 159.333 94.96C159.333 94.9173 159.333 94.896 159.333 94.896C159.354 94.8746 159.365 94.8426 159.365 94.8C159.493 93.9253 159.888 93.4773 160.549 93.456C160.869 93.4133 161.189 93.4986 161.509 93.712C161.829 93.904 162.085 94.1813 162.277 94.544C162.49 95.0346 162.64 95.504 162.725 95.952C162.81 96.4426 162.885 96.944 162.949 97.456C163.034 97.9466 163.109 98.4373 163.173 98.928C163.216 99.0346 163.237 99.152 163.237 99.28C163.237 99.408 163.258 99.5573 163.301 99.728C163.386 99.6213 163.45 99.5466 163.493 99.504C163.557 99.44 163.61 99.376 163.653 99.312C163.973 98.8853 164.304 98.4693 164.645 98.064C164.986 97.6373 165.37 97.2426 165.797 96.88C166.032 96.688 166.266 96.5173 166.501 96.368C166.757 96.1973 167.034 96.0693 167.333 95.984C167.717 95.8986 168.069 95.952 168.389 96.144C168.73 96.336 168.954 96.6133 169.061 96.976C169.232 97.4026 169.178 97.7653 168.901 98.064C168.752 98.32 168.581 98.5333 168.389 98.704C167.77 99.1733 167.226 99.7066 166.757 100.304C166.288 100.88 165.84 101.477 165.413 102.096C165.242 102.352 165.05 102.821 164.837 103.504C164.624 104.165 164.421 104.869 164.229 105.616C164.037 106.341 163.866 107.035 163.717 107.696C163.589 108.357 163.514 108.816 163.493 109.072C163.472 109.627 163.429 110.16 163.365 110.672C163.322 111.205 163.28 111.749 163.237 112.304C163.237 112.453 163.216 112.592 163.173 112.72C163.13 112.869 163.088 113.019 163.045 113.168C163.024 113.339 162.96 113.509 162.853 113.68C162.682 114.043 162.437 114.309 162.117 114.48C161.797 114.672 161.456 114.725 161.093 114.64C160.73 114.533 160.4 114.32 160.101 114C159.824 113.68 159.664 113.317 159.621 112.912C159.6 112.656 159.589 112.389 159.589 112.112C159.589 111.856 159.589 111.611 159.589 111.376C159.696 110.309 159.92 109.296 160.261 108.336C160.325 108.187 160.378 107.877 160.421 107.408C160.485 106.917 160.528 106.405 160.549 105.872C160.57 105.317 160.581 104.795 160.581 104.304C160.602 103.813 160.613 103.472 160.613 103.28C160.57 102.661 160.528 102.043 160.485 101.424C160.464 100.805 160.432 100.176 160.389 99.536Z" fill="#064102"/>
<path d="M153.126 104.653C153.083 104.547 153.051 104.483 153.03 104.461C152.582 104.013 152.337 103.544 152.294 103.053C152.273 102.541 152.369 102.072 152.582 101.645C152.817 101.219 153.137 100.856 153.542 100.557C153.947 100.259 154.374 100.067 154.822 99.9815C155.163 99.9175 155.483 99.9281 155.782 100.013C156.081 100.099 156.347 100.28 156.582 100.557C157.115 101.176 157.393 101.88 157.414 102.669C157.435 103.821 157.446 104.984 157.446 106.157C157.467 107.331 157.478 108.493 157.478 109.645V111.149C157.478 111.555 157.371 111.896 157.158 112.173C156.945 112.451 156.657 112.632 156.294 112.717C155.483 112.845 154.907 112.493 154.566 111.661C154.417 111.299 154.331 110.936 154.31 110.573C154.289 110.211 154.267 109.848 154.246 109.485C154.246 109.379 154.235 109.272 154.214 109.165C154.214 109.059 154.214 108.931 154.214 108.781C154.107 108.845 154.022 108.899 153.958 108.941C153.894 108.984 153.819 109.037 153.734 109.101C153.201 109.571 152.593 109.88 151.91 110.029C150.502 110.285 149.329 109.837 148.39 108.685C147.963 108.152 147.643 107.576 147.43 106.957C147.217 106.317 147.078 105.656 147.014 104.973C146.907 104.035 146.929 103.128 147.078 102.253C147.227 101.379 147.473 100.504 147.814 99.6295C148.283 98.3921 148.838 97.2188 149.478 96.1095C150.139 95.0001 150.918 93.9655 151.814 93.0055C152.305 92.4508 152.859 91.9601 153.478 91.5335C153.969 91.2348 154.502 91.0215 155.078 90.8935C155.825 90.7228 156.475 90.8508 157.03 91.2775C157.606 91.6828 157.926 92.2588 157.99 93.0055C158.033 93.4321 158.033 93.8588 157.99 94.2855C157.947 94.6908 157.905 95.1068 157.862 95.5335C157.819 95.7255 157.777 95.9068 157.734 96.0775C157.691 96.2481 157.649 96.4188 157.606 96.5895C157.478 96.9521 157.265 97.2295 156.966 97.4215C156.667 97.5921 156.337 97.6348 155.974 97.5495C155.611 97.4855 155.323 97.3148 155.11 97.0375C154.897 96.7601 154.801 96.4295 154.822 96.0455C154.843 95.8108 154.865 95.5761 154.886 95.3415C154.929 95.0855 154.971 94.8295 155.014 94.5735C154.822 94.5735 154.673 94.6268 154.566 94.7335C154.481 94.8188 154.395 94.9148 154.31 95.0215C153.947 95.5121 153.585 95.9921 153.222 96.4615C152.859 96.9308 152.507 97.4215 152.166 97.9335C151.718 98.6801 151.323 99.4481 150.982 100.237C150.662 101.005 150.438 101.827 150.31 102.701C150.203 103.256 150.161 103.811 150.182 104.365C150.203 104.92 150.321 105.475 150.534 106.029C150.897 106.989 151.387 107.075 152.006 106.285C152.219 106.029 152.411 105.763 152.582 105.485C152.774 105.187 152.955 104.909 153.126 104.653Z" fill="#064102"/>
<path d="M131.488 105.455C131.744 105.263 132.032 105.231 132.352 105.359C132.672 105.466 132.928 105.658 133.12 105.935C133.333 106.191 133.44 106.511 133.44 106.895C133.44 107.279 133.259 107.652 132.896 108.015C132.171 108.74 131.424 109.455 130.656 110.159C129.888 110.863 129.088 111.524 128.256 112.143C127.893 112.42 127.52 112.666 127.136 112.879C126.752 113.092 126.336 113.252 125.888 113.359C125.312 113.466 124.757 113.402 124.224 113.167C123.712 112.954 123.275 112.58 122.912 112.047C122.613 111.599 122.411 111.13 122.304 110.639C122.197 110.17 122.123 109.69 122.08 109.199C122.016 108.58 122.005 107.972 122.048 107.375C122.112 106.778 122.219 106.191 122.368 105.615C122.773 103.93 123.349 102.351 124.096 100.879C124.843 99.4071 125.824 98.0524 127.04 96.8151C127.189 96.6444 127.36 96.4951 127.552 96.3671C127.744 96.2178 127.936 96.0684 128.128 95.9191C128.384 95.7271 128.683 95.5778 129.024 95.4711C129.408 95.3218 129.781 95.2684 130.144 95.3111C130.507 95.3538 130.827 95.4711 131.104 95.6631C131.403 95.8338 131.637 96.0898 131.808 96.4311C132 96.7511 132.117 97.1244 132.16 97.5511C132.16 97.8071 132.139 98.0738 132.096 98.3511C132.053 98.6284 132 98.8951 131.936 99.1511C131.616 100.239 131.157 101.21 130.56 102.063C129.963 102.895 129.237 103.652 128.384 104.335C128.128 104.527 127.861 104.719 127.584 104.911C127.328 105.103 127.051 105.284 126.752 105.455C126.517 105.626 126.251 105.764 125.952 105.871C125.675 105.978 125.376 106.106 125.056 106.255C124.885 107.45 124.907 108.303 125.12 108.815C125.333 109.306 125.643 109.572 126.048 109.615C126.453 109.658 126.933 109.519 127.488 109.199C128.043 108.879 128.587 108.495 129.12 108.047C129.653 107.599 130.133 107.13 130.56 106.639C130.987 106.148 131.296 105.754 131.488 105.455ZM126.752 101.999C127.84 101.167 128.608 100.122 129.056 98.8631C128.565 99.2898 128.128 99.7698 127.744 100.303C127.381 100.836 127.051 101.402 126.752 101.999Z" fill="#064102"/>
<path d="M105.308 105.744C105.372 105.637 105.426 105.53 105.468 105.424C105.511 105.317 105.554 105.21 105.596 105.104C106.023 103.674 106.45 102.277 106.876 100.912C107.324 99.5252 107.772 98.1278 108.22 96.7198C108.306 96.4638 108.38 96.2078 108.444 95.9518C108.53 95.6745 108.626 95.4078 108.732 95.1518C108.775 95.0452 108.828 94.9385 108.892 94.8318C108.956 94.7252 109.031 94.6185 109.116 94.5118C109.458 93.9785 109.98 93.8078 110.684 93.9998C111.324 94.2558 111.708 94.7038 111.836 95.3438C111.879 95.7065 111.879 96.0692 111.836 96.4318C111.772 97.3492 111.698 98.2452 111.612 99.1198C111.548 99.9732 111.484 100.848 111.42 101.744C111.399 102.106 111.388 102.48 111.388 102.864C111.388 103.248 111.378 103.642 111.356 104.048C111.42 104.048 111.463 104.058 111.484 104.08C111.527 103.973 111.57 103.888 111.612 103.824C111.676 103.738 111.73 103.653 111.772 103.568C112.135 102.65 112.476 101.744 112.796 100.848C113.138 99.9518 113.479 99.0558 113.82 98.1598C114.183 97.2212 114.535 96.3038 114.876 95.4078C115.239 94.4905 115.602 93.5732 115.964 92.6558C116.071 92.4212 116.188 92.1758 116.316 91.9198C116.466 91.6638 116.604 91.4078 116.732 91.1518C116.86 90.8745 117.031 90.6505 117.244 90.4798C117.458 90.2665 117.703 90.1385 117.98 90.0958C118.258 90.0318 118.524 90.0425 118.78 90.1278C119.036 90.1918 119.271 90.3305 119.484 90.5438C119.698 90.7358 119.858 90.9812 119.964 91.2798C120.028 91.4718 120.071 91.6745 120.092 91.8878C120.114 92.1012 120.135 92.3145 120.156 92.5278C120.114 93.2532 120.05 93.9678 119.964 94.6718C119.879 95.3758 119.815 96.0905 119.772 96.8158C119.602 98.6505 119.474 100.485 119.388 102.32C119.303 104.133 119.314 105.978 119.42 107.856C119.463 108.816 119.559 109.765 119.708 110.704C119.858 111.642 120.103 112.57 120.444 113.488C120.487 113.616 120.519 113.744 120.54 113.872C120.562 114 120.583 114.138 120.604 114.288C120.711 114.629 120.69 114.917 120.54 115.152C120.412 115.408 120.199 115.589 119.9 115.696C119.58 115.802 119.26 115.792 118.94 115.664C118.642 115.557 118.396 115.333 118.204 114.992C118.034 114.672 117.863 114.341 117.692 114C117.543 113.658 117.394 113.306 117.244 112.944C117.074 112.325 116.935 111.717 116.828 111.12C116.743 110.544 116.668 109.946 116.604 109.328C116.455 107.834 116.38 106.352 116.38 104.88C116.402 103.408 116.444 101.936 116.508 100.464C116.53 100.293 116.498 100.069 116.412 99.7918C116.391 99.8985 116.359 99.9838 116.316 100.048C116.295 100.112 116.284 100.176 116.284 100.24C115.943 101.072 115.612 101.914 115.292 102.768C114.994 103.621 114.663 104.453 114.3 105.264C114.172 105.626 114.012 105.968 113.82 106.288C113.628 106.586 113.426 106.885 113.212 107.184C113.106 107.354 112.956 107.525 112.764 107.696C112.594 107.845 112.423 107.994 112.252 108.144C111.698 108.506 111.111 108.592 110.492 108.4C109.874 108.186 109.415 107.749 109.116 107.088C109.01 106.874 108.914 106.65 108.828 106.416C108.764 106.181 108.679 105.925 108.572 105.648C108.508 105.904 108.434 106.106 108.348 106.256C108.156 106.682 107.975 107.13 107.804 107.6C107.634 108.069 107.42 108.528 107.164 108.976C107.058 109.21 106.908 109.434 106.716 109.648C106.546 109.861 106.375 110.085 106.204 110.32C105.906 110.661 105.522 110.864 105.052 110.928C104.562 110.992 104.114 110.906 103.708 110.672C103.303 110.437 102.983 110.074 102.748 109.584C102.578 109.2 102.46 108.816 102.396 108.432C102.354 108.026 102.311 107.632 102.268 107.248C102.226 106.181 102.226 105.136 102.268 104.112C102.332 103.066 102.428 102.021 102.556 100.976C102.727 99.8878 102.887 98.8105 103.036 97.7438C103.186 96.6558 103.346 95.5678 103.516 94.4798C103.559 94.3092 103.591 94.1598 103.612 94.0318C103.655 93.8825 103.708 93.7438 103.772 93.6158C103.9 93.2958 104.124 93.0718 104.444 92.9438C104.764 92.8158 105.095 92.8052 105.436 92.9118C105.82 93.0398 106.108 93.2638 106.3 93.5838C106.514 93.9038 106.599 94.2452 106.556 94.6078C106.556 94.7785 106.535 94.9065 106.492 94.9918C106.108 96.6985 105.82 98.4158 105.628 100.144C105.458 101.85 105.319 103.578 105.212 105.328C105.191 105.392 105.18 105.456 105.18 105.52C105.202 105.562 105.212 105.626 105.212 105.712L105.308 105.744Z" fill="#064102"/>
<path d="M97.6359 93.7118C97.7426 93.5198 97.8386 93.3384 97.9239 93.1678C98.0306 92.9971 98.1266 92.8264 98.2119 92.6558C98.4253 92.2718 98.7133 92.0371 99.0759 91.9518C99.4813 91.8451 99.8653 91.8984 100.228 92.1118C100.591 92.3251 100.825 92.6451 100.932 93.0718C101.103 93.4771 101.103 93.9251 100.932 94.4158C100.399 96.2504 99.9506 98.1064 99.5879 99.9838C99.2466 101.861 98.9479 103.76 98.6919 105.68C98.5426 106.704 98.4359 107.728 98.3719 108.752C98.3293 109.776 98.3719 110.821 98.4999 111.888V112.4C98.4573 113.125 98.1159 113.52 97.4759 113.584C97.1559 113.626 96.8573 113.573 96.5799 113.424C96.3026 113.274 96.0999 113.04 95.9719 112.72C95.7799 112.122 95.6306 111.525 95.5239 110.928C95.4386 110.16 95.4173 109.392 95.4599 108.624C95.5026 107.856 95.5666 107.098 95.6519 106.352C95.6946 105.989 95.7373 105.616 95.7799 105.232C95.8226 104.848 95.8439 104.453 95.8439 104.048C95.7799 104.154 95.7053 104.272 95.6199 104.4C95.2573 105.018 94.8946 105.637 94.5319 106.256C94.1906 106.874 93.8279 107.493 93.4439 108.112C93.2306 108.432 92.9959 108.741 92.7399 109.04C92.4839 109.338 92.2279 109.626 91.9719 109.904C91.5453 110.352 91.0439 110.672 90.4679 110.864C89.9133 111.077 89.3586 111.056 88.8039 110.8C88.2706 110.565 87.8546 110.16 87.5559 109.584C87.2146 108.922 87.0439 108.208 87.0439 107.44C87.0653 107.013 87.0866 106.597 87.1079 106.192C87.1293 105.765 87.1826 105.338 87.2679 104.912C87.6519 103.013 88.2279 101.21 88.9959 99.5038C89.7639 97.7971 90.7239 96.1864 91.8759 94.6718C92.1106 94.3731 92.3666 94.1064 92.6439 93.8718C92.9213 93.6158 93.1986 93.3598 93.4759 93.1038C93.5186 93.0611 93.5719 93.0184 93.6359 92.9758C93.6999 92.9331 93.7639 92.8904 93.8279 92.8478C95.1933 92.0584 96.4626 92.3464 97.6359 93.7118ZM89.9879 107.6C90.1373 107.429 90.2653 107.28 90.3719 107.152C90.4786 107.024 90.5853 106.896 90.6919 106.768C91.3319 105.914 91.8973 105.018 92.3879 104.08C92.8786 103.141 93.3693 102.192 93.8599 101.232C93.9239 101.146 93.9346 100.997 93.8919 100.784C93.7853 100.442 93.8173 100.058 93.9879 99.6318C94.1159 99.3758 94.2333 99.1198 94.3399 98.8638C94.4679 98.5864 94.5746 98.2984 94.6599 97.9998C94.7666 97.7011 94.8519 97.3918 94.9159 97.0718C95.0013 96.7304 95.0866 96.3998 95.1719 96.0798C95.1719 96.0371 95.1613 95.9838 95.1399 95.9198C95.1399 95.8558 95.1399 95.7918 95.1399 95.7278C94.7773 95.9411 94.3933 96.3144 93.9879 96.8478C93.6039 97.3598 93.2093 97.9784 92.8039 98.7038C92.4199 99.4078 92.0466 100.176 91.6839 101.008C91.3213 101.818 91.0013 102.629 90.7239 103.44C90.4679 104.229 90.2653 104.997 90.1159 105.744C89.9879 106.469 89.9453 107.088 89.9879 107.6Z" fill="#064102"/>
<path d="M81.1884 104.653C81.1458 104.547 81.1138 104.483 81.0924 104.461C80.6444 104.013 80.3991 103.544 80.3564 103.053C80.3351 102.541 80.4311 102.072 80.6444 101.645C80.8791 101.219 81.1991 100.856 81.6044 100.557C82.0098 100.259 82.4364 100.067 82.8844 99.9815C83.2258 99.9175 83.5458 99.9281 83.8444 100.013C84.1431 100.099 84.4098 100.28 84.6444 100.557C85.1778 101.176 85.4551 101.88 85.4764 102.669C85.4978 103.821 85.5084 104.984 85.5084 106.157C85.5298 107.331 85.5404 108.493 85.5404 109.645V111.149C85.5404 111.555 85.4338 111.896 85.2204 112.173C85.0071 112.451 84.7191 112.632 84.3564 112.717C83.5458 112.845 82.9698 112.493 82.6284 111.661C82.4791 111.299 82.3938 110.936 82.3724 110.573C82.3511 110.211 82.3298 109.848 82.3084 109.485C82.3084 109.379 82.2978 109.272 82.2764 109.165C82.2764 109.059 82.2764 108.931 82.2764 108.781C82.1698 108.845 82.0844 108.899 82.0204 108.941C81.9564 108.984 81.8818 109.037 81.7964 109.101C81.2631 109.571 80.6551 109.88 79.9724 110.029C78.5644 110.285 77.3911 109.837 76.4524 108.685C76.0258 108.152 75.7058 107.576 75.4924 106.957C75.2791 106.317 75.1404 105.656 75.0764 104.973C74.9698 104.035 74.9911 103.128 75.1404 102.253C75.2898 101.379 75.5351 100.504 75.8764 99.6295C76.3458 98.3921 76.9004 97.2188 77.5404 96.1095C78.2018 95.0001 78.9804 93.9655 79.8764 93.0055C80.3671 92.4508 80.9218 91.9601 81.5404 91.5335C82.0311 91.2348 82.5644 91.0215 83.1404 90.8935C83.8871 90.7228 84.5378 90.8508 85.0924 91.2775C85.6684 91.6828 85.9884 92.2588 86.0524 93.0055C86.0951 93.4321 86.0951 93.8588 86.0524 94.2855C86.0098 94.6908 85.9671 95.1068 85.9244 95.5335C85.8818 95.7255 85.8391 95.9068 85.7964 96.0775C85.7538 96.2481 85.7111 96.4188 85.6684 96.5895C85.5404 96.9521 85.3271 97.2295 85.0284 97.4215C84.7298 97.5921 84.3991 97.6348 84.0364 97.5495C83.6738 97.4855 83.3858 97.3148 83.1724 97.0375C82.9591 96.7601 82.8631 96.4295 82.8844 96.0455C82.9058 95.8108 82.9271 95.5761 82.9484 95.3415C82.9911 95.0855 83.0338 94.8295 83.0764 94.5735C82.8844 94.5735 82.7351 94.6268 82.6284 94.7335C82.5431 94.8188 82.4578 94.9148 82.3724 95.0215C82.0098 95.5121 81.6471 95.9921 81.2844 96.4615C80.9218 96.9308 80.5698 97.4215 80.2284 97.9335C79.7804 98.6801 79.3858 99.4481 79.0444 100.237C78.7244 101.005 78.5004 101.827 78.3724 102.701C78.2658 103.256 78.2231 103.811 78.2444 104.365C78.2658 104.92 78.3831 105.475 78.5964 106.029C78.9591 106.989 79.4498 107.075 80.0684 106.285C80.2818 106.029 80.4738 105.763 80.6444 105.485C80.8364 105.187 81.0178 104.909 81.1884 104.653Z" fill="#064102"/>
<path d="M52.5997 111.536C53.005 111.579 53.3677 111.579 53.6877 111.536C54.1357 111.494 54.573 111.44 54.9997 111.376C55.4477 111.312 55.8743 111.227 56.2797 111.12C57.5383 110.779 58.1463 109.915 58.1037 108.528C58.0823 107.974 57.9757 107.43 57.7837 106.896C57.613 106.342 57.4103 105.798 57.1757 105.264C56.877 104.454 56.5463 103.654 56.1837 102.864C55.8423 102.075 55.5223 101.275 55.2237 100.464C54.1997 97.7336 54.477 95.2696 56.0557 93.0723C56.397 92.6243 56.7597 92.219 57.1437 91.8563C57.5277 91.4723 57.965 91.131 58.4557 90.8323C59.0317 90.491 59.6183 90.3203 60.2157 90.3203C60.8343 90.363 61.3677 90.587 61.8157 90.9923C62.2637 91.3976 62.573 91.9096 62.7437 92.5283C62.7863 92.699 62.8183 92.8696 62.8397 93.0403C62.861 93.211 62.8717 93.371 62.8717 93.5203C62.829 94.011 62.7863 94.5016 62.7437 94.9923C62.7223 95.4616 62.6797 95.931 62.6157 96.4003C62.5517 96.9123 62.2957 97.243 61.8477 97.3923C61.6343 97.4776 61.421 97.499 61.2077 97.4563C60.9943 97.4136 60.7917 97.3283 60.5997 97.2003C60.429 97.0723 60.2903 96.9123 60.1837 96.7203C60.0983 96.507 60.0557 96.283 60.0557 96.0483C60.0557 95.7496 60.0557 95.451 60.0557 95.1523C60.077 94.8323 60.0983 94.523 60.1197 94.2243C60.1197 94.0963 60.109 93.979 60.0877 93.8723C60.0877 93.7443 60.077 93.595 60.0557 93.4243C59.8423 93.531 59.7037 93.6163 59.6397 93.6803C58.957 94.2776 58.4023 94.9816 57.9757 95.7923C57.6557 96.4536 57.517 97.1363 57.5597 97.8403C57.6023 98.523 57.7623 99.2163 58.0397 99.9203C58.3383 100.71 58.6583 101.499 58.9997 102.288C59.341 103.056 59.6823 103.846 60.0237 104.656C60.2797 105.296 60.5037 105.947 60.6957 106.608C60.8877 107.27 61.005 107.942 61.0477 108.624C61.0903 109.926 60.7703 111.056 60.0877 112.016C59.4263 112.976 58.4663 113.616 57.2077 113.936C56.397 114.15 55.5757 114.299 54.7437 114.384C53.933 114.47 53.0797 114.448 52.1837 114.32C51.9277 114.278 51.6717 114.214 51.4157 114.128C51.1597 114.064 50.9143 113.968 50.6797 113.84C50.317 113.648 50.0397 113.403 49.8477 113.104C49.6343 112.806 49.517 112.496 49.4957 112.176C49.453 111.878 49.5063 111.579 49.6557 111.28C49.7837 110.982 50.0077 110.736 50.3277 110.544C50.733 110.288 51.1383 110.224 51.5437 110.352C51.9277 110.48 52.2263 110.779 52.4397 111.248C52.4823 111.291 52.5357 111.387 52.5997 111.536Z" fill="#064102"/>
<path d="M48.2516 98.899C47.953 99.283 47.7183 99.6563 47.5476 100.019C47.0569 100.851 46.5769 101.694 46.1076 102.547C45.6383 103.379 45.1583 104.2 44.6676 105.011C44.4969 105.31 44.3156 105.598 44.1236 105.875C43.9316 106.131 43.7396 106.376 43.5476 106.611C43.3769 106.782 43.2063 106.931 43.0356 107.059C42.8649 107.187 42.6836 107.304 42.4916 107.411C42.2143 107.582 41.9263 107.667 41.6276 107.667C41.3289 107.667 41.0516 107.614 40.7956 107.507C40.5396 107.379 40.3049 107.198 40.0916 106.963C39.8996 106.707 39.7503 106.419 39.6436 106.099C39.4303 105.352 39.3556 104.595 39.4196 103.827C39.4836 103.144 39.5583 102.472 39.6436 101.811C39.7289 101.15 39.8143 100.488 39.8996 99.827C39.8996 99.6563 39.8889 99.5176 39.8676 99.411C39.8676 99.283 39.8463 99.1336 39.8036 98.963C39.6543 98.6003 39.6116 98.259 39.6756 97.939C39.7609 97.3203 39.9209 96.7336 40.1556 96.179C40.3903 95.6243 40.6569 95.0803 40.9556 94.547C41.1049 94.2483 41.3183 94.0563 41.5956 93.971C41.8943 93.8856 42.1929 93.8963 42.4916 94.003C42.7903 94.1096 43.0356 94.2803 43.2276 94.515C43.4409 94.7283 43.5689 94.995 43.6116 95.315C43.6116 95.7203 43.5796 96.115 43.5156 96.499C43.3449 97.395 43.1849 98.2803 43.0356 99.155C42.9076 100.008 42.7583 100.883 42.5876 101.779C42.5236 101.992 42.5236 102.238 42.5876 102.515C42.6303 102.451 42.6729 102.387 42.7156 102.323C42.7583 102.259 42.8009 102.195 42.8436 102.131C43.4196 101.171 43.9849 100.232 44.5396 99.315C45.0943 98.3763 45.6596 97.427 46.2356 96.467C46.4063 96.1683 46.5983 95.891 46.8116 95.635C47.0463 95.379 47.2703 95.1123 47.4836 94.835C47.6543 94.643 47.8463 94.483 48.0596 94.355C48.2729 94.227 48.5289 94.1416 48.8276 94.099C49.2329 94.0563 49.6063 94.131 49.9476 94.323C50.3103 94.515 50.5983 94.8136 50.8116 95.219C50.9609 95.4963 51.057 95.7843 51.0996 96.083C51.1636 96.3603 51.1956 96.6483 51.1956 96.947C51.217 97.7363 51.2276 98.5363 51.2276 99.347C51.2276 100.136 51.249 100.936 51.2916 101.747C51.313 102.707 51.3556 103.667 51.4196 104.627C51.4836 105.587 51.6223 106.547 51.8356 107.507C51.857 107.571 51.8676 107.646 51.8676 107.731C51.8676 107.795 51.8783 107.859 51.8996 107.923C51.9636 108.563 51.697 108.99 51.0996 109.203C50.8436 109.288 50.5769 109.288 50.2996 109.203C50.0436 109.118 49.8196 108.947 49.6276 108.691C49.4356 108.456 49.2649 108.211 49.1156 107.955C48.9876 107.699 48.9023 107.422 48.8596 107.123C48.7956 106.568 48.7209 106.003 48.6356 105.427C48.5716 104.851 48.5183 104.275 48.4756 103.699C48.4329 102.952 48.4009 102.195 48.3796 101.427C48.3796 100.659 48.3689 99.9016 48.3476 99.155C48.3263 99.1123 48.3049 99.0803 48.2836 99.059C48.2836 99.0376 48.273 98.9843 48.2516 98.899Z" fill="#064102"/>
<path d="M33.8604 111.827C33.7964 111.315 33.7324 110.803 33.6684 110.291C33.6044 109.8 33.5511 109.299 33.5084 108.787C33.4017 106.782 33.3377 104.798 33.3164 102.835C33.3164 100.872 33.4231 98.9096 33.6364 96.9469C33.6577 96.8616 33.6684 96.7869 33.6684 96.7229C33.6684 96.6376 33.6791 96.5416 33.7004 96.4349C33.7857 96.1576 33.9351 95.9443 34.1484 95.7949C34.3831 95.6243 34.6497 95.5496 34.9484 95.5709C35.2471 95.6136 35.5137 95.7203 35.7484 95.8909C36.0044 96.0616 36.1644 96.2963 36.2284 96.5949C36.2924 96.8296 36.3244 97.0856 36.3244 97.3629C36.3457 97.6189 36.3671 97.8856 36.3884 98.1629C36.3884 98.3549 36.3777 98.5576 36.3564 98.7709C36.3351 98.9629 36.3244 99.1656 36.3244 99.3789C36.2817 100.894 36.2604 102.398 36.2604 103.891C36.2604 105.384 36.3137 106.899 36.4204 108.435C36.4844 108.99 36.5484 109.544 36.6124 110.099C36.6977 110.675 36.7724 111.24 36.8364 111.795C36.9217 112.179 36.8897 112.51 36.7404 112.787C36.5911 113.064 36.3351 113.246 35.9724 113.331C35.6951 113.416 35.4177 113.406 35.1404 113.299C34.8631 113.214 34.6284 113.043 34.4364 112.787C34.3084 112.638 34.2017 112.478 34.1164 112.307C34.0524 112.158 33.9671 111.998 33.8604 111.827ZM34.2764 88.2429C34.4471 88.2003 34.6497 88.2003 34.8844 88.2429C35.1404 88.2856 35.3857 88.3496 35.6204 88.4349C35.8551 88.5203 36.0684 88.6269 36.2604 88.7549C36.4524 88.8829 36.5911 89.0109 36.6764 89.1389C36.8684 89.3949 36.9644 89.6723 36.9644 89.9709C36.9644 90.2696 36.8471 90.5256 36.6124 90.7389C36.4631 90.8456 36.3137 90.9416 36.1644 91.0269C36.0364 91.1123 35.8871 91.1976 35.7164 91.2829C35.6311 91.3683 35.4817 91.4109 35.2684 91.4109C34.6071 91.4323 34.0951 91.0696 33.7324 90.3229C33.3697 89.4269 33.4231 88.7976 33.8924 88.4349C33.9777 88.3923 34.0524 88.3603 34.1164 88.3389C34.1804 88.2963 34.2337 88.2643 34.2764 88.2429Z" fill="#064102"/>
<path d="M20.7364 96.8161C20.8431 96.6454 20.9284 96.4641 20.9924 96.2721C21.0564 96.0801 21.1311 95.8987 21.2164 95.7281C21.4938 95.1094 21.7711 94.4801 22.0484 93.8401C22.3471 93.2001 22.6458 92.5707 22.9444 91.9521C23.0724 91.6534 23.2964 91.3547 23.6164 91.0561C24.0644 90.6721 24.5978 90.6614 25.2164 91.0241C25.4938 91.1947 25.6964 91.3974 25.8244 91.6321C25.9738 91.8667 26.0271 92.1441 25.9844 92.4641C25.9844 92.6987 25.9524 92.9227 25.8884 93.1361C25.8458 93.3281 25.7818 93.5414 25.6964 93.7761C25.3338 94.9921 24.9498 96.2081 24.5444 97.4241C24.1604 98.6401 23.7764 99.8667 23.3924 101.104C23.2858 101.467 23.1791 101.829 23.0724 102.192C22.9871 102.555 22.8911 102.917 22.7844 103.28C22.7844 103.387 22.7524 103.6 22.6884 103.92C22.8378 103.856 22.9551 103.803 23.0404 103.76C23.1471 103.696 23.2538 103.643 23.3604 103.6C24.1284 103.173 24.8964 102.757 25.6644 102.352C26.4538 101.925 27.2324 101.499 28.0004 101.072C28.3204 100.901 28.5978 100.773 28.8324 100.688C29.0884 100.603 29.3551 100.603 29.6324 100.688C29.9098 100.773 30.1338 100.933 30.3044 101.168C30.5178 101.403 30.6458 101.669 30.6884 101.968C30.7524 102.245 30.6991 102.501 30.5284 102.736C30.4218 102.885 30.3044 103.035 30.1764 103.184C30.0698 103.312 29.9311 103.419 29.7604 103.504C27.7764 104.592 25.7498 105.669 23.6804 106.736C23.4244 106.843 23.1471 106.939 22.8484 107.024C22.5498 107.088 22.2511 107.163 21.9524 107.248C21.9098 107.483 21.8671 107.717 21.8244 107.952C21.7818 108.187 21.7391 108.432 21.6964 108.688C21.5898 109.243 21.4831 109.787 21.3764 110.32C21.2698 110.875 21.1631 111.419 21.0564 111.952C20.9924 112.443 20.8431 112.944 20.6084 113.456C20.5018 113.797 20.2884 114.032 19.9684 114.16C19.6484 114.309 19.2964 114.352 18.9124 114.288C18.5924 114.245 18.3151 114.107 18.0804 113.872C17.8458 113.659 17.6751 113.349 17.5684 112.944C17.3978 112.389 17.3018 111.835 17.2804 111.28C17.2378 110.725 17.2058 110.171 17.1844 109.616C17.1418 107.803 17.1631 106.011 17.2484 104.24C17.3338 102.469 17.4298 100.688 17.5364 98.8961C17.6644 96.4641 17.7924 94.0534 17.9204 91.6641C18.0698 89.2534 18.1978 86.8321 18.3044 84.4001C18.3471 83.9947 18.3684 83.6001 18.3684 83.2161C18.3684 82.8321 18.3684 82.4374 18.3684 82.0321C18.3684 81.8187 18.4004 81.6161 18.4644 81.4241C18.6351 80.7627 19.0511 80.4534 19.7124 80.4961C20.0111 80.4961 20.2778 80.5921 20.5124 80.7841C20.7684 80.9761 20.9498 81.2214 21.0564 81.5201C21.0991 81.6694 21.1311 81.8187 21.1524 81.9681C21.1738 82.0961 21.1951 82.2241 21.2164 82.3521C21.1738 83.6107 21.1418 84.8694 21.1204 86.1281C21.0991 87.3654 21.0671 88.6134 21.0244 89.8721C20.9818 90.9387 20.9178 91.9947 20.8324 93.0401C20.7684 94.0854 20.7044 95.1414 20.6404 96.2081V96.7841C20.6618 96.8054 20.6938 96.8161 20.7364 96.8161Z" fill="#064102"/>
</svg>
