<svg width="214" height="122" viewBox="0 0 214 122" fill="none" xmlns="http://www.w3.org/2000/svg">
<g clip-path="url(#clip0_962_1520)">
<path d="M16.3918 0C18.7307 0.000104227 23.264 0.946353 27.9479 2.11523C32.6446 3.28733 37.5311 4.69423 40.597 5.63184H40.599C41.7706 6.00323 43.6872 6.56992 45.6246 7.06152C47.568 7.55466 49.511 7.96705 50.7463 8.03809C52.3158 8.12826 56.2042 8.23404 60.3995 7.96289C64.6064 7.69098 69.0764 7.04223 71.8416 5.64746L71.9067 5.62012C71.9781 5.59539 72.0687 5.58226 72.1637 5.61719C72.2929 5.66487 72.3542 5.77276 72.3826 5.85254C72.4358 6.00252 72.4301 6.21355 72.4046 6.43555C72.3509 6.90174 72.1825 7.60984 71.9266 8.49902C71.4129 10.2847 70.531 12.8562 69.4438 15.8105C67.2803 21.6896 64.2962 29.1073 61.7664 34.9287L71.9396 58.9551C72.3958 60.0325 71.8402 61.2655 70.7128 61.6553C69.3885 62.1128 67.8641 62.63 66.5921 63.043C65.9563 63.2494 65.3819 63.4303 64.9262 63.5645C64.4793 63.696 64.1247 63.7902 63.9423 63.8125C63.4436 63.8734 60.9016 64.1601 57.9797 64.3418C55.0668 64.5229 51.7425 64.6021 49.6973 64.2334C46.463 63.6502 36.0304 60.6795 31.2317 59.2715L31.2167 59.2666L31.2017 59.2607C28.8537 58.2239 22.6724 56.3264 16.7938 57.0439C12.1863 57.6064 6.70096 59.1925 3.11178 60.3936C1.73279 60.8547 0.254734 59.8728 0.248001 58.4365L1.98344e-05 5.52051C-0.003718 4.67834 0.521187 3.93226 1.28592 3.57715C2.80078 2.87388 4.42206 1.97198 6.73251 1.25488C9.04903 0.535966 12.0593 2.42125e-05 16.3918 0ZM66.418 11.457C64.139 11.9707 58.6524 12.998 54.9399 12.998V59.8916C57.2654 60.1333 63.2934 59.6198 66.6811 58.4717C67.033 58.3523 66.3376 56.8524 66.325 56.8252L57.2608 34.9043L66.418 11.457ZM25.6721 12.085V15.7549C19.0576 16.0625 14.3099 19.4023 14.3099 24.8955V24.9395C14.3099 29.8833 17.6401 32.5425 23.6472 33.8389L25.6721 34.2559V40.7598C23.0398 40.518 21.5104 39.4414 21.1505 37.5078L21.1274 37.4639L14.0399 37.4863L13.995 37.5078C14.175 43.1328 18.8101 46.2314 25.6721 46.4951V50.0762H28.2149V46.4727C35.1667 46.0551 39.8241 42.6933 39.8241 37.1123V37.0684C39.8241 32.1465 36.6063 29.6856 30.2617 28.3232L28.2149 27.9053V21.5332C30.442 21.8848 31.9045 23.0935 32.2196 25.1367L32.2416 25.1807L39.3061 25.1592L39.3291 25.1367C39.0814 19.7976 35.0091 16.2379 28.2149 15.7764V12.085H25.6721ZM28.2149 34.8057C31.1394 35.5307 32.2866 36.2775 32.2866 37.9033V37.9473C32.2866 39.6391 30.8245 40.54 28.2149 40.7598V34.8057ZM25.6721 27.334C23.0624 26.6528 21.8473 25.7959 21.8473 24.3457V24.3018C21.8476 22.72 23.1525 21.709 25.6721 21.4893V27.334Z" fill="#064102"/>
<path d="M9.65692 89.9001C8.98226 90.2228 8.55692 90.6041 8.38092 91.0441C8.23426 91.4548 8.29292 91.9828 8.55692 92.6281C8.76226 93.0388 8.98226 93.4348 9.21692 93.8161C9.45159 94.1681 9.68626 94.5495 9.92092 94.9601C10.4196 95.7521 10.9329 96.5441 11.4609 97.3361C11.9889 98.1281 12.5023 98.9348 13.0009 99.7561C13.3236 100.343 13.6023 100.929 13.8369 101.516C14.1009 102.103 14.2916 102.733 14.4089 103.408C14.8783 106.459 13.9103 109.011 11.5049 111.064C10.6836 111.797 9.77426 112.369 8.77692 112.78C7.80892 113.191 6.81159 113.543 5.78492 113.836C5.49159 113.895 5.19826 113.953 4.90492 114.012C4.64092 114.071 4.34759 114.115 4.02492 114.144C3.70226 114.173 3.37959 114.173 3.05692 114.144C2.73426 114.144 2.41159 114.115 2.08892 114.056C1.67826 113.968 1.31159 113.792 0.988923 113.528C0.69559 113.264 0.504923 112.897 0.416923 112.428C0.328923 111.959 0.34359 111.519 0.460923 111.108C0.578256 110.727 0.842256 110.375 1.25292 110.052C1.66359 109.788 2.07426 109.627 2.48492 109.568C2.89559 109.509 3.33559 109.612 3.80492 109.876C3.92226 109.935 4.03959 109.979 4.15692 110.008C4.30359 110.037 4.43559 110.037 4.55292 110.008C5.31559 109.832 6.04892 109.612 6.75292 109.348C7.45692 109.055 8.11692 108.688 8.73292 108.248C9.29026 107.837 9.73026 107.368 10.0529 106.84C10.3756 106.283 10.5369 105.652 10.5369 104.948C10.5956 104.039 10.4049 103.247 9.96492 102.572C9.64226 101.956 9.30492 101.355 8.95292 100.768C8.60092 100.181 8.23426 99.5801 7.85292 98.9641C7.47159 98.3481 7.07559 97.7468 6.66492 97.1601C6.28359 96.5441 5.90226 95.9281 5.52092 95.3121C5.02226 94.5201 4.65559 93.6108 4.42092 92.5841C4.09826 91.0295 4.40626 89.6361 5.34492 88.4041C6.31292 87.2015 7.41292 86.3068 8.64492 85.7201C8.85026 85.6615 9.04092 85.6028 9.21692 85.5441C9.39292 85.4855 9.58359 85.4268 9.78892 85.3681C10.7569 85.2215 11.5783 85.4121 12.2529 85.9401C12.9276 86.4681 13.3383 87.2161 13.4849 88.1841C13.4849 88.4188 13.4849 88.6681 13.4849 88.9321C13.5143 89.1961 13.4996 89.4455 13.4409 89.6801C13.3529 90.2668 13.2503 90.8388 13.1329 91.3961C13.0449 91.9241 12.9569 92.4815 12.8689 93.0681C12.8396 93.1561 12.8103 93.2441 12.7809 93.3321C12.7516 93.4201 12.7223 93.4935 12.6929 93.5521C12.5169 93.9628 12.2236 94.2708 11.8129 94.4761C11.4316 94.6521 11.0356 94.6815 10.6249 94.5641C10.2436 94.4468 9.92092 94.2268 9.65692 93.9041C9.39292 93.5815 9.29026 93.2001 9.34892 92.7601L9.61292 90.6481C9.64226 90.5308 9.65692 90.4135 9.65692 90.2961C9.65692 90.1788 9.65692 90.0468 9.65692 89.9001Z" fill="#064102"/>
<path d="M204.039 97.7131C204.188 97.5638 204.306 97.4358 204.391 97.3291C204.498 97.2224 204.604 97.1158 204.711 97.0091C205.052 96.6464 205.415 96.3158 205.799 96.0171C206.183 95.6971 206.62 95.4518 207.111 95.2811C207.666 95.0891 208.22 95.0358 208.775 95.1211C209.159 95.1851 209.543 95.3771 209.927 95.6971C210.332 95.9958 210.588 96.3904 210.695 96.8811C210.78 97.2438 210.823 97.6064 210.823 97.9691C210.844 98.3318 210.802 98.6944 210.695 99.0571C210.503 99.8038 210.247 100.529 209.927 101.233C209.628 101.916 209.266 102.588 208.839 103.249C208.22 104.209 207.548 105.105 206.823 105.937C206.119 106.748 205.298 107.484 204.359 108.145C204.188 108.294 204.103 108.497 204.103 108.753C204.06 109.905 204.007 111.036 203.943 112.145C203.9 113.254 203.847 114.374 203.783 115.505C203.719 116.188 203.591 116.881 203.399 117.585C203.207 118.161 202.759 118.481 202.055 118.545C201.628 118.566 201.255 118.481 200.935 118.289C200.636 118.118 200.434 117.83 200.327 117.425C200.22 117.126 200.135 116.817 200.071 116.497C200.007 116.177 199.954 115.857 199.911 115.537C199.804 114.001 199.804 112.486 199.911 110.993C200.039 109.521 200.242 108.049 200.519 106.577C200.562 106.385 200.594 106.193 200.615 106.001C200.658 105.809 200.711 105.628 200.775 105.457C200.967 104.838 201.084 104.209 201.127 103.569C201.17 102.929 201.18 102.268 201.159 101.585C201.116 100.198 201.084 98.8224 201.063 97.4571C201.063 96.0918 201.042 94.7051 200.999 93.2971C200.999 93.1691 200.988 93.0411 200.967 92.9131C200.967 92.7851 200.978 92.6571 200.999 92.5291C201.042 91.8251 201.426 91.4518 202.151 91.4091C202.45 91.3664 202.738 91.4518 203.015 91.6651C203.292 91.8571 203.484 92.1238 203.591 92.4651C203.698 92.8918 203.751 93.3078 203.751 93.7131C203.815 94.2891 203.858 94.8651 203.879 95.4411C203.922 96.0171 203.964 96.5824 204.007 97.1371C204.007 97.2224 204.007 97.3078 204.007 97.3931C204.028 97.4784 204.039 97.5851 204.039 97.7131ZM204.263 104.081C204.604 103.825 204.978 103.441 205.383 102.929C205.788 102.396 206.151 101.841 206.471 101.265C206.812 100.689 207.09 100.134 207.303 99.6011C207.538 99.0678 207.655 98.6624 207.655 98.3851C206.759 99.1744 206.055 100.049 205.543 101.009C205.031 101.969 204.604 102.993 204.263 104.081Z" fill="#064102"/>
<path d="M188.852 109.431C188.959 109.282 189.066 109.143 189.172 109.015C189.279 108.866 189.364 108.706 189.428 108.535C189.748 107.852 190.068 107.17 190.388 106.487C190.708 105.804 191.018 105.122 191.316 104.439C191.743 103.415 192.18 102.402 192.628 101.399C193.076 100.375 193.556 99.3829 194.068 98.4229C194.154 98.3162 194.218 98.2096 194.26 98.1029C194.324 97.9962 194.399 97.8896 194.484 97.7829C194.847 97.3349 195.327 97.2069 195.924 97.3989C196.5 97.5696 196.874 97.9536 197.044 98.5509C197.13 98.9136 197.119 99.3296 197.012 99.7989C196.842 100.546 196.671 101.292 196.5 102.039C196.33 102.786 196.159 103.543 195.988 104.311C195.434 107.127 195.348 109.975 195.732 112.855C195.775 113.218 195.839 113.57 195.924 113.911C196.01 114.252 196.159 114.583 196.372 114.903C196.479 115.138 196.564 115.351 196.628 115.543C196.671 115.778 196.65 115.991 196.564 116.183C196.5 116.396 196.383 116.567 196.212 116.695C196.063 116.823 195.882 116.898 195.668 116.919C195.455 116.962 195.22 116.94 194.964 116.855C194.26 116.578 193.791 116.119 193.556 115.479C193.407 115.138 193.268 114.796 193.14 114.455C193.034 114.135 192.959 113.804 192.916 113.463C192.81 112.823 192.735 112.183 192.692 111.543C192.671 110.903 192.639 110.263 192.596 109.623V109.143C192.49 109.292 192.404 109.42 192.34 109.527C192.298 109.612 192.255 109.708 192.212 109.815C191.999 110.114 191.786 110.412 191.572 110.711C191.38 111.031 191.167 111.34 190.932 111.639C190.783 111.831 190.602 112.002 190.388 112.151C190.175 112.322 189.951 112.46 189.716 112.567C189.14 112.866 188.554 112.908 187.956 112.695C187.38 112.503 186.9 112.098 186.516 111.479C186.26 111.074 186.079 110.658 185.972 110.231C185.887 109.804 185.823 109.367 185.78 108.919C185.716 108.215 185.706 107.522 185.748 106.839C185.791 106.156 185.866 105.474 185.972 104.791C185.994 104.684 186.004 104.578 186.004 104.471C186.026 104.364 186.015 104.258 185.972 104.151C185.887 103.916 185.855 103.692 185.876 103.479C185.919 103.244 185.983 103.02 186.068 102.807C186.154 102.615 186.218 102.412 186.26 102.199C186.324 101.986 186.399 101.772 186.484 101.559C186.527 101.452 186.58 101.346 186.644 101.239C186.708 101.111 186.794 101.004 186.9 100.919C187.071 100.77 187.263 100.684 187.476 100.663C187.711 100.62 187.935 100.642 188.148 100.727C188.383 100.791 188.586 100.919 188.756 101.111C188.927 101.282 189.044 101.495 189.108 101.751C189.215 102.071 189.236 102.444 189.172 102.871C189.087 103.703 188.991 104.535 188.884 105.367C188.799 106.199 188.714 107.031 188.628 107.863C188.607 108.119 188.607 108.375 188.628 108.631C188.671 108.887 188.746 109.154 188.852 109.431Z" fill="#064102"/>
<path d="M175.778 107.348C175.5 106.559 175.319 105.748 175.234 104.916C175.17 104.084 175.17 103.241 175.234 102.388C175.34 101.193 175.5 100.031 175.714 98.9C175.948 97.748 176.268 96.6067 176.674 95.476C176.802 95.1347 176.951 94.7933 177.122 94.452C177.314 94.1107 177.495 93.7907 177.666 93.492C177.794 93.3213 177.943 93.172 178.114 93.044C178.306 92.916 178.487 92.788 178.658 92.66C178.764 92.5533 178.924 92.5 179.138 92.5C179.586 92.5427 180.023 92.564 180.45 92.564C180.898 92.5427 181.324 92.66 181.73 92.916C182.156 93.1507 182.498 93.4493 182.754 93.812C183.031 94.1533 183.234 94.5373 183.362 94.964C183.49 95.348 183.586 95.732 183.65 96.116C183.735 96.5 183.778 96.8947 183.778 97.3C183.842 98.9 183.767 100.468 183.554 102.004C183.34 103.519 182.999 105.023 182.53 106.516C182.38 106.964 182.199 107.412 181.986 107.86C181.772 108.287 181.495 108.692 181.154 109.076C181.004 109.247 180.844 109.407 180.674 109.556C180.524 109.705 180.354 109.833 180.162 109.94C179.65 110.281 179.095 110.399 178.498 110.292C177.922 110.185 177.399 109.897 176.93 109.428C176.716 109.193 176.503 108.905 176.29 108.564C176.098 108.201 175.927 107.796 175.778 107.348ZM178.786 107.092C179.127 106.601 179.394 106.089 179.586 105.556C179.799 105.001 179.97 104.447 180.098 103.892C180.247 103.316 180.364 102.74 180.45 102.164C180.535 101.567 180.631 100.969 180.738 100.372C180.46 100.457 180.236 100.521 180.066 100.564C179.916 100.607 179.767 100.617 179.618 100.596C179.468 100.575 179.308 100.521 179.138 100.436C178.988 100.351 178.786 100.233 178.53 100.084C178.444 100.66 178.359 101.247 178.274 101.844C178.21 102.42 178.167 102.996 178.146 103.572C178.146 104.148 178.188 104.735 178.274 105.332C178.38 105.908 178.551 106.495 178.786 107.092Z" fill="#064102"/>
<path d="M164.749 99.9891C164.28 99.8184 163.96 99.5731 163.789 99.2531C163.64 98.9331 163.565 98.5811 163.565 98.1971C163.608 97.7278 163.629 97.2691 163.629 96.8211C163.651 96.3518 163.672 95.8824 163.693 95.4131C163.693 95.3704 163.693 95.3491 163.693 95.3491C163.715 95.3278 163.725 95.2958 163.725 95.2531C163.853 94.3784 164.248 93.9304 164.909 93.9091C165.229 93.8664 165.549 93.9518 165.869 94.1651C166.189 94.3571 166.445 94.6344 166.637 94.9971C166.851 95.4878 167 95.9571 167.085 96.4051C167.171 96.8958 167.245 97.3971 167.309 97.9091C167.395 98.3998 167.469 98.8904 167.533 99.3811C167.576 99.4878 167.597 99.6051 167.597 99.7331C167.597 99.8611 167.619 100.01 167.661 100.181C167.747 100.074 167.811 99.9998 167.853 99.9571C167.917 99.8931 167.971 99.8291 168.013 99.7651C168.333 99.3384 168.664 98.9224 169.005 98.5171C169.347 98.0904 169.731 97.6958 170.157 97.3331C170.392 97.1411 170.627 96.9704 170.861 96.8211C171.117 96.6504 171.395 96.5224 171.693 96.4371C172.077 96.3518 172.429 96.4051 172.749 96.5971C173.091 96.7891 173.315 97.0664 173.421 97.4291C173.592 97.8558 173.539 98.2184 173.261 98.5171C173.112 98.7731 172.941 98.9864 172.749 99.1571C172.131 99.6264 171.587 100.16 171.117 100.757C170.648 101.333 170.2 101.93 169.773 102.549C169.603 102.805 169.411 103.274 169.197 103.957C168.984 104.618 168.781 105.322 168.589 106.069C168.397 106.794 168.227 107.488 168.077 108.149C167.949 108.81 167.875 109.269 167.853 109.525C167.832 110.08 167.789 110.613 167.725 111.125C167.683 111.658 167.64 112.202 167.597 112.757C167.597 112.906 167.576 113.045 167.533 113.173C167.491 113.322 167.448 113.472 167.405 113.621C167.384 113.792 167.32 113.962 167.213 114.133C167.043 114.496 166.797 114.762 166.477 114.933C166.157 115.125 165.816 115.178 165.453 115.093C165.091 114.986 164.76 114.773 164.461 114.453C164.184 114.133 164.024 113.77 163.981 113.365C163.96 113.109 163.949 112.842 163.949 112.565C163.949 112.309 163.949 112.064 163.949 111.829C164.056 110.762 164.28 109.749 164.621 108.789C164.685 108.64 164.739 108.33 164.781 107.861C164.845 107.37 164.888 106.858 164.909 106.325C164.931 105.77 164.941 105.248 164.941 104.757C164.963 104.266 164.973 103.925 164.973 103.733C164.931 103.114 164.888 102.496 164.845 101.877C164.824 101.258 164.792 100.629 164.749 99.9891Z" fill="#064102"/>
<path d="M153.576 104.192C153.517 104.046 153.473 103.958 153.444 103.928C152.828 103.312 152.49 102.667 152.432 101.992C152.402 101.288 152.534 100.643 152.828 100.056C153.15 99.4698 153.59 98.9711 154.148 98.5604C154.705 98.1498 155.292 97.8858 155.908 97.7684C156.377 97.6804 156.817 97.6951 157.228 97.8124C157.638 97.9298 158.005 98.1791 158.328 98.5604C159.061 99.4111 159.442 100.379 159.472 101.464C159.501 103.048 159.516 104.647 159.516 106.26C159.545 107.874 159.56 109.472 159.56 111.056V113.124C159.56 113.682 159.413 114.151 159.12 114.532C158.826 114.914 158.43 115.163 157.932 115.28C156.817 115.456 156.025 114.972 155.556 113.828C155.35 113.33 155.233 112.831 155.204 112.332C155.174 111.834 155.145 111.335 155.116 110.836C155.116 110.69 155.101 110.543 155.072 110.396C155.072 110.25 155.072 110.074 155.072 109.868C154.925 109.956 154.808 110.03 154.72 110.088C154.632 110.147 154.529 110.22 154.412 110.308C153.678 110.954 152.842 111.379 151.904 111.584C149.968 111.936 148.354 111.32 147.064 109.736C146.477 109.003 146.037 108.211 145.744 107.36C145.45 106.48 145.26 105.571 145.172 104.632C145.025 103.342 145.054 102.095 145.26 100.892C145.465 99.6898 145.802 98.4871 146.272 97.2844C146.917 95.5831 147.68 93.9698 148.56 92.4444C149.469 90.9191 150.54 89.4964 151.772 88.1764C152.446 87.4138 153.209 86.7391 154.06 86.1524C154.734 85.7418 155.468 85.4484 156.26 85.2724C157.286 85.0378 158.181 85.2138 158.944 85.8004C159.736 86.3578 160.176 87.1498 160.264 88.1764C160.322 88.7631 160.322 89.3498 160.264 89.9364C160.205 90.4938 160.146 91.0658 160.088 91.6524C160.029 91.9164 159.97 92.1658 159.912 92.4004C159.853 92.6351 159.794 92.8698 159.736 93.1044C159.56 93.6031 159.266 93.9844 158.856 94.2484C158.445 94.4831 157.99 94.5418 157.492 94.4244C156.993 94.3364 156.597 94.1018 156.304 93.7204C156.01 93.3391 155.878 92.8844 155.908 92.3564C155.937 92.0338 155.966 91.7111 155.996 91.3884C156.054 91.0364 156.113 90.6844 156.172 90.3324C155.908 90.3324 155.702 90.4058 155.556 90.5524C155.438 90.6698 155.321 90.8018 155.204 90.9484C154.705 91.6231 154.206 92.2831 153.708 92.9284C153.209 93.5738 152.725 94.2484 152.256 94.9524C151.64 95.9791 151.097 97.0351 150.628 98.1204C150.188 99.1764 149.88 100.306 149.704 101.508C149.557 102.271 149.498 103.034 149.528 103.796C149.557 104.559 149.718 105.322 150.012 106.084C150.51 107.404 151.185 107.522 152.036 106.436C152.329 106.084 152.593 105.718 152.828 105.336C153.092 104.926 153.341 104.544 153.576 104.192Z" fill="#064102"/>
<path d="M134.848 105.908C135.104 105.716 135.392 105.684 135.712 105.812C136.032 105.919 136.288 106.111 136.48 106.388C136.694 106.644 136.8 106.964 136.8 107.348C136.8 107.732 136.619 108.106 136.256 108.468C135.531 109.194 134.784 109.908 134.016 110.612C133.248 111.316 132.448 111.978 131.616 112.596C131.254 112.874 130.88 113.119 130.496 113.332C130.112 113.546 129.696 113.706 129.248 113.812C128.672 113.919 128.118 113.855 127.584 113.62C127.072 113.407 126.635 113.034 126.272 112.5C125.974 112.052 125.771 111.583 125.664 111.092C125.558 110.623 125.483 110.143 125.44 109.652C125.376 109.034 125.366 108.426 125.408 107.828C125.472 107.231 125.579 106.644 125.728 106.068C126.134 104.383 126.71 102.804 127.456 101.332C128.203 99.8602 129.184 98.5056 130.4 97.2682C130.55 97.0976 130.72 96.9482 130.912 96.8202C131.104 96.6709 131.296 96.5216 131.488 96.3722C131.744 96.1802 132.043 96.0309 132.384 95.9242C132.768 95.7749 133.142 95.7216 133.504 95.7642C133.867 95.8069 134.187 95.9242 134.464 96.1162C134.763 96.2869 134.998 96.5429 135.168 96.8842C135.36 97.2042 135.478 97.5776 135.52 98.0042C135.52 98.2602 135.499 98.5269 135.456 98.8042C135.414 99.0816 135.36 99.3482 135.296 99.6042C134.976 100.692 134.518 101.663 133.92 102.516C133.323 103.348 132.598 104.106 131.744 104.788C131.488 104.98 131.222 105.172 130.944 105.364C130.688 105.556 130.411 105.738 130.112 105.908C129.878 106.079 129.611 106.218 129.312 106.324C129.035 106.431 128.736 106.559 128.416 106.708C128.246 107.903 128.267 108.756 128.48 109.268C128.694 109.759 129.003 110.026 129.408 110.068C129.814 110.111 130.294 109.972 130.848 109.652C131.403 109.332 131.947 108.948 132.48 108.5C133.014 108.052 133.494 107.583 133.92 107.092C134.347 106.602 134.656 106.207 134.848 105.908ZM130.112 102.452C131.2 101.62 131.968 100.575 132.416 99.3162C131.926 99.7429 131.488 100.223 131.104 100.756C130.742 101.29 130.411 101.855 130.112 102.452Z" fill="#064102"/>
<path d="M108.669 106.197C108.733 106.09 108.786 105.984 108.829 105.877C108.871 105.77 108.914 105.664 108.957 105.557C109.383 104.128 109.81 102.73 110.237 101.365C110.685 99.9783 111.133 98.581 111.581 97.173C111.666 96.917 111.741 96.661 111.805 96.405C111.89 96.1276 111.986 95.861 112.093 95.605C112.135 95.4983 112.189 95.3916 112.253 95.285C112.317 95.1783 112.391 95.0716 112.477 94.965C112.818 94.4316 113.341 94.261 114.045 94.453C114.685 94.709 115.069 95.157 115.197 95.797C115.239 96.1596 115.239 96.5223 115.197 96.885C115.133 97.8023 115.058 98.6983 114.973 99.573C114.909 100.426 114.845 101.301 114.781 102.197C114.759 102.56 114.749 102.933 114.749 103.317C114.749 103.701 114.738 104.096 114.717 104.501C114.781 104.501 114.823 104.512 114.845 104.533C114.887 104.426 114.93 104.341 114.973 104.277C115.037 104.192 115.09 104.106 115.133 104.021C115.495 103.104 115.837 102.197 116.157 101.301C116.498 100.405 116.839 99.509 117.181 98.613C117.543 97.6743 117.895 96.757 118.237 95.861C118.599 94.9436 118.962 94.0263 119.325 93.109C119.431 92.8743 119.549 92.629 119.677 92.373C119.826 92.117 119.965 91.861 120.093 91.605C120.221 91.3276 120.391 91.1036 120.605 90.933C120.818 90.7196 121.063 90.5916 121.341 90.549C121.618 90.485 121.885 90.4956 122.141 90.581C122.397 90.645 122.631 90.7836 122.845 90.997C123.058 91.189 123.218 91.4343 123.325 91.733C123.389 91.925 123.431 92.1276 123.453 92.341C123.474 92.5543 123.495 92.7676 123.517 92.981C123.474 93.7063 123.41 94.421 123.325 95.125C123.239 95.829 123.175 96.5436 123.133 97.269C122.962 99.1036 122.834 100.938 122.749 102.773C122.663 104.586 122.674 106.432 122.781 108.309C122.823 109.269 122.919 110.218 123.069 111.157C123.218 112.096 123.463 113.024 123.805 113.941C123.847 114.069 123.879 114.197 123.901 114.325C123.922 114.453 123.943 114.592 123.965 114.741C124.071 115.082 124.05 115.37 123.901 115.605C123.773 115.861 123.559 116.042 123.261 116.149C122.941 116.256 122.621 116.245 122.301 116.117C122.002 116.01 121.757 115.786 121.565 115.445C121.394 115.125 121.223 114.794 121.053 114.453C120.903 114.112 120.754 113.76 120.605 113.397C120.434 112.778 120.295 112.17 120.189 111.573C120.103 110.997 120.029 110.4 119.965 109.781C119.815 108.288 119.741 106.805 119.741 105.333C119.762 103.861 119.805 102.389 119.869 100.917C119.89 100.746 119.858 100.522 119.773 100.245C119.751 100.352 119.719 100.437 119.677 100.501C119.655 100.565 119.645 100.629 119.645 100.693C119.303 101.525 118.973 102.368 118.653 103.221C118.354 104.074 118.023 104.906 117.661 105.717C117.533 106.08 117.373 106.421 117.181 106.741C116.989 107.04 116.786 107.338 116.573 107.637C116.466 107.808 116.317 107.978 116.125 108.149C115.954 108.298 115.783 108.448 115.613 108.597C115.058 108.96 114.471 109.045 113.853 108.853C113.234 108.64 112.775 108.202 112.477 107.541C112.37 107.328 112.274 107.104 112.189 106.869C112.125 106.634 112.039 106.378 111.933 106.101C111.869 106.357 111.794 106.56 111.709 106.709C111.517 107.136 111.335 107.584 111.165 108.053C110.994 108.522 110.781 108.981 110.525 109.429C110.418 109.664 110.269 109.888 110.077 110.101C109.906 110.314 109.735 110.538 109.565 110.773C109.266 111.114 108.882 111.317 108.413 111.381C107.922 111.445 107.474 111.36 107.069 111.125C106.663 110.89 106.343 110.528 106.109 110.037C105.938 109.653 105.821 109.269 105.757 108.885C105.714 108.48 105.671 108.085 105.629 107.701C105.586 106.634 105.586 105.589 105.629 104.565C105.693 103.52 105.789 102.474 105.917 101.429C106.087 100.341 106.247 99.2636 106.397 98.197C106.546 97.109 106.706 96.021 106.877 94.933C106.919 94.7623 106.951 94.613 106.973 94.485C107.015 94.3356 107.069 94.197 107.133 94.069C107.261 93.749 107.485 93.525 107.805 93.397C108.125 93.269 108.455 93.2583 108.797 93.365C109.181 93.493 109.469 93.717 109.661 94.037C109.874 94.357 109.959 94.6983 109.917 95.061C109.917 95.2316 109.895 95.3596 109.853 95.445C109.469 97.1516 109.181 98.869 108.989 100.597C108.818 102.304 108.679 104.032 108.573 105.781C108.551 105.845 108.541 105.909 108.541 105.973C108.562 106.016 108.573 106.08 108.573 106.165L108.669 106.197Z" fill="#064102"/>
<path d="M100.996 94.1649C101.103 93.9729 101.199 93.7916 101.284 93.6209C101.391 93.4502 101.487 93.2796 101.572 93.1089C101.786 92.7249 102.074 92.4902 102.436 92.4049C102.842 92.2982 103.226 92.3516 103.588 92.5649C103.951 92.7782 104.186 93.0982 104.292 93.5249C104.463 93.9302 104.463 94.3782 104.292 94.8689C103.759 96.7036 103.311 98.5596 102.948 100.437C102.607 102.314 102.308 104.213 102.052 106.133C101.903 107.157 101.796 108.181 101.732 109.205C101.69 110.229 101.732 111.274 101.86 112.341V112.853C101.818 113.578 101.476 113.973 100.836 114.037C100.516 114.08 100.218 114.026 99.9403 113.877C99.663 113.728 99.4603 113.493 99.3323 113.173C99.1403 112.576 98.991 111.978 98.8843 111.381C98.799 110.613 98.7776 109.845 98.8203 109.077C98.863 108.309 98.927 107.552 99.0123 106.805C99.055 106.442 99.0976 106.069 99.1403 105.685C99.183 105.301 99.2043 104.906 99.2043 104.501C99.1403 104.608 99.0656 104.725 98.9803 104.853C98.6176 105.472 98.255 106.09 97.8923 106.709C97.551 107.328 97.1883 107.946 96.8043 108.565C96.591 108.885 96.3563 109.194 96.1003 109.493C95.8443 109.792 95.5883 110.08 95.3323 110.357C94.9056 110.805 94.4043 111.125 93.8283 111.317C93.2736 111.53 92.719 111.509 92.1643 111.253C91.631 111.018 91.215 110.613 90.9163 110.037C90.575 109.376 90.4043 108.661 90.4043 107.893C90.4256 107.466 90.447 107.05 90.4683 106.645C90.4896 106.218 90.543 105.792 90.6283 105.365C91.0123 103.466 91.5883 101.664 92.3563 99.9569C93.1243 98.2502 94.0843 96.6396 95.2363 95.1249C95.471 94.8262 95.727 94.5596 96.0043 94.3249C96.2816 94.0689 96.559 93.8129 96.8363 93.5569C96.879 93.5142 96.9323 93.4716 96.9963 93.4289C97.0603 93.3862 97.1243 93.3436 97.1883 93.3009C98.5536 92.5116 99.823 92.7996 100.996 94.1649ZM93.3483 108.053C93.4976 107.882 93.6256 107.733 93.7323 107.605C93.839 107.477 93.9456 107.349 94.0523 107.221C94.6923 106.368 95.2576 105.472 95.7483 104.533C96.239 103.594 96.7296 102.645 97.2203 101.685C97.2843 101.6 97.295 101.45 97.2523 101.237C97.1456 100.896 97.1776 100.512 97.3483 100.085C97.4763 99.8289 97.5936 99.5729 97.7003 99.3169C97.8283 99.0396 97.935 98.7516 98.0203 98.4529C98.127 98.1542 98.2123 97.8449 98.2763 97.5249C98.3616 97.1836 98.447 96.8529 98.5323 96.5329C98.5323 96.4902 98.5216 96.4369 98.5003 96.3729C98.5003 96.3089 98.5003 96.2449 98.5003 96.1809C98.1376 96.3942 97.7536 96.7676 97.3483 97.3009C96.9643 97.8129 96.5696 98.4316 96.1643 99.1569C95.7803 99.8609 95.407 100.629 95.0443 101.461C94.6816 102.272 94.3616 103.082 94.0843 103.893C93.8283 104.682 93.6256 105.45 93.4763 106.197C93.3483 106.922 93.3056 107.541 93.3483 108.053Z" fill="#064102"/>
<path d="M82.0132 103.841C81.9546 103.694 81.9106 103.606 81.8812 103.577C81.2652 102.961 80.9279 102.316 80.8692 101.641C80.8399 100.937 80.9719 100.292 81.2652 99.7049C81.5879 99.1182 82.0279 98.6196 82.5852 98.2089C83.1426 97.7982 83.7292 97.5342 84.3452 97.4169C84.8146 97.3289 85.2546 97.3436 85.6652 97.4609C86.0759 97.5782 86.4426 97.8276 86.7652 98.2089C87.4986 99.0596 87.8799 100.028 87.9092 101.113C87.9386 102.697 87.9532 104.296 87.9532 105.909C87.9826 107.522 87.9972 109.121 87.9972 110.705V112.773C87.9972 113.33 87.8506 113.8 87.5572 114.181C87.2639 114.562 86.8679 114.812 86.3692 114.929C85.2546 115.105 84.4626 114.621 83.9932 113.477C83.7879 112.978 83.6706 112.48 83.6412 111.981C83.6119 111.482 83.5826 110.984 83.5532 110.485C83.5532 110.338 83.5386 110.192 83.5092 110.045C83.5092 109.898 83.5092 109.722 83.5092 109.517C83.3626 109.605 83.2452 109.678 83.1572 109.737C83.0692 109.796 82.9666 109.869 82.8492 109.957C82.1159 110.602 81.2799 111.028 80.3412 111.233C78.4052 111.585 76.7919 110.969 75.5012 109.385C74.9146 108.652 74.4746 107.86 74.1812 107.009C73.8879 106.129 73.6972 105.22 73.6092 104.281C73.4626 102.99 73.4919 101.744 73.6972 100.541C73.9026 99.3382 74.2399 98.1356 74.7092 96.9329C75.3546 95.2316 76.1172 93.6182 76.9972 92.0929C77.9066 90.5676 78.9772 89.1449 80.2092 87.8249C80.8839 87.0622 81.6466 86.3875 82.4972 85.8009C83.1719 85.3902 83.9052 85.0969 84.6972 84.9209C85.7239 84.6862 86.6186 84.8622 87.3812 85.4489C88.1732 86.0062 88.6132 86.7982 88.7012 87.8249C88.7599 88.4115 88.7599 88.9982 88.7012 89.5849C88.6426 90.1422 88.5839 90.7142 88.5252 91.3009C88.4666 91.5649 88.4079 91.8142 88.3492 92.0489C88.2906 92.2836 88.2319 92.5182 88.1732 92.7529C87.9972 93.2516 87.7039 93.6329 87.2932 93.8969C86.8826 94.1316 86.4279 94.1902 85.9292 94.0729C85.4306 93.9849 85.0346 93.7502 84.7412 93.3689C84.4479 92.9876 84.3159 92.5329 84.3452 92.0049C84.3746 91.6822 84.4039 91.3596 84.4332 91.0369C84.4919 90.6849 84.5506 90.3329 84.6092 89.9809C84.3452 89.9809 84.1399 90.0542 83.9932 90.2009C83.8759 90.3182 83.7586 90.4502 83.6412 90.5969C83.1426 91.2715 82.6439 91.9316 82.1452 92.5769C81.6466 93.2222 81.1626 93.8969 80.6932 94.6009C80.0772 95.6276 79.5346 96.6836 79.0652 97.7689C78.6252 98.8249 78.3172 99.9542 78.1412 101.157C77.9946 101.92 77.9359 102.682 77.9652 103.445C77.9946 104.208 78.1559 104.97 78.4492 105.733C78.9479 107.053 79.6226 107.17 80.4732 106.085C80.7666 105.733 81.0306 105.366 81.2652 104.985C81.5292 104.574 81.7786 104.193 82.0132 103.841Z" fill="#064102"/>
<path d="M52.96 111.989C53.3654 112.032 53.728 112.032 54.048 111.989C54.496 111.947 54.9334 111.893 55.36 111.829C55.808 111.765 56.2347 111.68 56.64 111.573C57.8987 111.232 58.5067 110.368 58.464 108.981C58.4427 108.427 58.336 107.883 58.144 107.349C57.9734 106.795 57.7707 106.251 57.536 105.717C57.2374 104.907 56.9067 104.107 56.544 103.317C56.2027 102.528 55.8827 101.728 55.584 100.917C54.56 98.1868 54.8374 95.7228 56.416 93.5254C56.7574 93.0774 57.12 92.6721 57.504 92.3094C57.888 91.9254 58.3254 91.5841 58.816 91.2854C59.392 90.9441 59.9787 90.7734 60.576 90.7734C61.1947 90.8161 61.728 91.0401 62.176 91.4454C62.624 91.8508 62.9334 92.3628 63.104 92.9814C63.1467 93.1521 63.1787 93.3228 63.2 93.4934C63.2214 93.6641 63.232 93.8241 63.232 93.9734C63.1894 94.4641 63.1467 94.9548 63.104 95.4454C63.0827 95.9148 63.04 96.3841 62.976 96.8534C62.912 97.3654 62.656 97.6961 62.208 97.8454C61.9947 97.9308 61.7814 97.9521 61.568 97.9094C61.3547 97.8668 61.152 97.7814 60.96 97.6534C60.7894 97.5254 60.6507 97.3654 60.544 97.1734C60.4587 96.9601 60.416 96.7361 60.416 96.5014C60.416 96.2028 60.416 95.9041 60.416 95.6054C60.4374 95.2854 60.4587 94.9761 60.48 94.6774C60.48 94.5494 60.4694 94.4321 60.448 94.3254C60.448 94.1974 60.4374 94.0481 60.416 93.8774C60.2027 93.9841 60.064 94.0694 60 94.1334C59.3174 94.7308 58.7627 95.4348 58.336 96.2454C58.016 96.9068 57.8774 97.5894 57.92 98.2934C57.9627 98.9761 58.1227 99.6694 58.4 100.373C58.6987 101.163 59.0187 101.952 59.36 102.741C59.7014 103.509 60.0427 104.299 60.384 105.109C60.64 105.749 60.864 106.4 61.056 107.061C61.248 107.723 61.3654 108.395 61.408 109.077C61.4507 110.379 61.1307 111.509 60.448 112.469C59.7867 113.429 58.8267 114.069 57.568 114.389C56.7574 114.603 55.936 114.752 55.104 114.837C54.2934 114.923 53.44 114.901 52.544 114.773C52.288 114.731 52.032 114.667 51.776 114.581C51.52 114.517 51.2747 114.421 51.04 114.293C50.6774 114.101 50.4 113.856 50.208 113.557C49.9947 113.259 49.8774 112.949 49.856 112.629C49.8134 112.331 49.8667 112.032 50.016 111.733C50.144 111.435 50.368 111.189 50.688 110.997C51.0934 110.741 51.4987 110.677 51.904 110.805C52.288 110.933 52.5867 111.232 52.8 111.701C52.8427 111.744 52.896 111.84 52.96 111.989Z" fill="#064102"/>
<path d="M48.612 99.3521C48.3133 99.7361 48.0786 100.109 47.908 100.472C47.4173 101.304 46.9373 102.147 46.468 103C45.9986 103.832 45.5186 104.653 45.028 105.464C44.8573 105.763 44.676 106.051 44.484 106.328C44.292 106.584 44.1 106.829 43.908 107.064C43.7373 107.235 43.5666 107.384 43.396 107.512C43.2253 107.64 43.044 107.757 42.852 107.864C42.5746 108.035 42.2866 108.12 41.988 108.12C41.6893 108.12 41.412 108.067 41.156 107.96C40.9 107.832 40.6653 107.651 40.452 107.416C40.26 107.16 40.1106 106.872 40.004 106.552C39.7906 105.805 39.716 105.048 39.78 104.28C39.844 103.597 39.9186 102.925 40.004 102.264C40.0893 101.603 40.1746 100.941 40.26 100.28C40.26 100.109 40.2493 99.9707 40.228 99.8641C40.228 99.7361 40.2066 99.5867 40.164 99.4161C40.0146 99.0534 39.972 98.7121 40.036 98.3921C40.1213 97.7734 40.2813 97.1867 40.516 96.6321C40.7506 96.0774 41.0173 95.5334 41.316 95.0001C41.4653 94.7014 41.6786 94.5094 41.956 94.4241C42.2546 94.3387 42.5533 94.3494 42.852 94.4561C43.1506 94.5627 43.396 94.7334 43.588 94.9681C43.8013 95.1814 43.9293 95.4481 43.972 95.7681C43.972 96.1734 43.94 96.5681 43.876 96.9521C43.7053 97.8481 43.5453 98.7334 43.396 99.6081C43.268 100.461 43.1186 101.336 42.948 102.232C42.884 102.445 42.884 102.691 42.948 102.968C42.9906 102.904 43.0333 102.84 43.076 102.776C43.1186 102.712 43.1613 102.648 43.204 102.584C43.78 101.624 44.3453 100.685 44.9 99.7681C45.4546 98.8294 46.02 97.8801 46.596 96.9201C46.7666 96.6214 46.9586 96.3441 47.172 96.0881C47.4066 95.8321 47.6306 95.5654 47.844 95.2881C48.0146 95.0961 48.2066 94.9361 48.42 94.8081C48.6333 94.6801 48.8893 94.5947 49.188 94.5521C49.5933 94.5094 49.9666 94.5841 50.308 94.7761C50.6706 94.9681 50.9586 95.2667 51.172 95.6721C51.3213 95.9494 51.4173 96.2374 51.46 96.5361C51.524 96.8134 51.556 97.1014 51.556 97.4001C51.5773 98.1894 51.588 98.9894 51.588 99.8001C51.588 100.589 51.6093 101.389 51.652 102.2C51.6733 103.16 51.716 104.12 51.78 105.08C51.844 106.04 51.9826 107 52.196 107.96C52.2173 108.024 52.228 108.099 52.228 108.184C52.228 108.248 52.2386 108.312 52.26 108.376C52.324 109.016 52.0573 109.443 51.46 109.656C51.204 109.741 50.9373 109.741 50.66 109.656C50.404 109.571 50.18 109.4 49.988 109.144C49.796 108.909 49.6253 108.664 49.476 108.408C49.348 108.152 49.2626 107.875 49.22 107.576C49.156 107.021 49.0813 106.456 48.996 105.88C48.932 105.304 48.8786 104.728 48.836 104.152C48.7933 103.405 48.7613 102.648 48.74 101.88C48.74 101.112 48.7293 100.355 48.708 99.6081C48.6866 99.5654 48.6653 99.5334 48.644 99.5121C48.644 99.4907 48.6333 99.4374 48.612 99.3521Z" fill="#064102"/>
<path d="M34.2208 112.28C34.1568 111.768 34.0928 111.256 34.0288 110.744C33.9648 110.253 33.9114 109.752 33.8688 109.24C33.7621 107.235 33.6981 105.251 33.6768 103.288C33.6768 101.325 33.7834 99.3627 33.9968 97.4001C34.0181 97.3147 34.0288 97.2401 34.0288 97.1761C34.0288 97.0907 34.0394 96.9947 34.0608 96.8881C34.1461 96.6107 34.2954 96.3974 34.5088 96.2481C34.7434 96.0774 35.0101 96.0027 35.3088 96.0241C35.6074 96.0667 35.8741 96.1734 36.1088 96.3441C36.3648 96.5147 36.5248 96.7494 36.5888 97.0481C36.6528 97.2827 36.6848 97.5387 36.6848 97.8161C36.7061 98.0721 36.7274 98.3387 36.7488 98.6161C36.7488 98.8081 36.7381 99.0107 36.7168 99.2241C36.6954 99.4161 36.6848 99.6187 36.6848 99.8321C36.6421 101.347 36.6208 102.851 36.6208 104.344C36.6208 105.837 36.6741 107.352 36.7808 108.888C36.8448 109.443 36.9088 109.997 36.9728 110.552C37.0581 111.128 37.1328 111.693 37.1968 112.248C37.2821 112.632 37.2501 112.963 37.1008 113.24C36.9514 113.517 36.6954 113.699 36.3328 113.784C36.0554 113.869 35.7781 113.859 35.5008 113.752C35.2234 113.667 34.9888 113.496 34.7968 113.24C34.6688 113.091 34.5621 112.931 34.4768 112.76C34.4128 112.611 34.3274 112.451 34.2208 112.28ZM34.6368 88.6961C34.8074 88.6534 35.0101 88.6534 35.2448 88.6961C35.5008 88.7387 35.7461 88.8027 35.9808 88.8881C36.2154 88.9734 36.4288 89.0801 36.6208 89.2081C36.8128 89.3361 36.9514 89.4641 37.0368 89.5921C37.2288 89.8481 37.3248 90.1254 37.3248 90.4241C37.3248 90.7227 37.2074 90.9787 36.9728 91.1921C36.8234 91.2987 36.6741 91.3947 36.5248 91.4801C36.3968 91.5654 36.2474 91.6507 36.0768 91.7361C35.9914 91.8214 35.8421 91.8641 35.6288 91.8641C34.9674 91.8854 34.4554 91.5227 34.0928 90.7761C33.7301 89.8801 33.7834 89.2507 34.2528 88.8881C34.3381 88.8454 34.4128 88.8134 34.4768 88.7921C34.5408 88.7494 34.5941 88.7174 34.6368 88.6961Z" fill="#064102"/>
<path d="M21.0968 97.2692C21.2034 97.0985 21.2888 96.9172 21.3528 96.7252C21.4168 96.5332 21.4914 96.3519 21.5768 96.1812C21.8541 95.5625 22.1314 94.9332 22.4088 94.2932C22.7074 93.6532 23.0061 93.0239 23.3048 92.4052C23.4328 92.1065 23.6568 91.8079 23.9768 91.5092C24.4248 91.1252 24.9581 91.1145 25.5768 91.4772C25.8541 91.6479 26.0568 91.8505 26.1848 92.0852C26.3341 92.3199 26.3874 92.5972 26.3448 92.9172C26.3448 93.1519 26.3128 93.3759 26.2488 93.5892C26.2061 93.7812 26.1421 93.9945 26.0568 94.2292C25.6941 95.4452 25.3101 96.6612 24.9048 97.8772C24.5208 99.0932 24.1368 100.32 23.7528 101.557C23.6461 101.92 23.5394 102.283 23.4328 102.645C23.3474 103.008 23.2514 103.371 23.1448 103.733C23.1448 103.84 23.1128 104.053 23.0488 104.373C23.1981 104.309 23.3154 104.256 23.4008 104.213C23.5074 104.149 23.6141 104.096 23.7208 104.053C24.4888 103.627 25.2568 103.211 26.0248 102.805C26.8141 102.379 27.5928 101.952 28.3608 101.525C28.6808 101.355 28.9581 101.227 29.1928 101.141C29.4488 101.056 29.7154 101.056 29.9928 101.141C30.2701 101.227 30.4941 101.387 30.6648 101.621C30.8781 101.856 31.0061 102.123 31.0488 102.421C31.1128 102.699 31.0594 102.955 30.8888 103.189C30.7821 103.339 30.6648 103.488 30.5368 103.637C30.4301 103.765 30.2914 103.872 30.1208 103.957C28.1368 105.045 26.1101 106.123 24.0408 107.189C23.7848 107.296 23.5074 107.392 23.2088 107.477C22.9101 107.541 22.6114 107.616 22.3128 107.701C22.2701 107.936 22.2274 108.171 22.1848 108.405C22.1421 108.64 22.0994 108.885 22.0568 109.141C21.9501 109.696 21.8434 110.24 21.7368 110.773C21.6301 111.328 21.5234 111.872 21.4168 112.405C21.3528 112.896 21.2034 113.397 20.9688 113.909C20.8621 114.251 20.6488 114.485 20.3288 114.613C20.0088 114.763 19.6568 114.805 19.2728 114.741C18.9528 114.699 18.6754 114.56 18.4408 114.325C18.2061 114.112 18.0354 113.803 17.9288 113.397C17.7581 112.843 17.6621 112.288 17.6408 111.733C17.5981 111.179 17.5661 110.624 17.5448 110.069C17.5021 108.256 17.5234 106.464 17.6088 104.693C17.6941 102.923 17.7901 101.141 17.8968 99.3492C18.0248 96.9172 18.1528 94.5065 18.2808 92.1172C18.4301 89.7065 18.5581 87.2852 18.6648 84.8532C18.7074 84.4479 18.7288 84.0532 18.7288 83.6692C18.7288 83.2852 18.7288 82.8905 18.7288 82.4852C18.7288 82.2719 18.7608 82.0692 18.8248 81.8772C18.9954 81.2159 19.4114 80.9065 20.0728 80.9492C20.3714 80.9492 20.6381 81.0452 20.8728 81.2372C21.1288 81.4292 21.3101 81.6745 21.4168 81.9732C21.4594 82.1225 21.4914 82.2719 21.5128 82.4212C21.5341 82.5492 21.5554 82.6772 21.5768 82.8052C21.5341 84.0639 21.5021 85.3225 21.4808 86.5812C21.4594 87.8185 21.4274 89.0665 21.3848 90.3252C21.3421 91.3919 21.2781 92.4479 21.1928 93.4932C21.1288 94.5385 21.0648 95.5945 21.0008 96.6612V97.2372C21.0221 97.2585 21.0541 97.2692 21.0968 97.2692Z" fill="#064102"/>
</g>
<defs>
<clipPath id="clip0_962_1520">
<rect width="214" height="122" fill="white"/>
</clipPath>
</defs>
</svg>
